<?xml version="1.0" encoding="utf-8"?>
<!-- Generator: Adobe Illustrator 19.2.1, SVG Export Plug-In . SVG Version: 6.00 Build 0)  -->
<svg version="1.1" id="backpack" xmlns="http://www.w3.org/2000/svg" xmlns:xlink="http://www.w3.org/1999/xlink" x="0px" y="0px"
	 width="500px" height="500px" viewBox="0 0 500 500" enable-background="new 0 0 500 500" xml:space="preserve">
<g id="background" display="none">
	<rect display="inline" fill="#E6E6E6" width="500" height="500"/>
</g>

<g id="handle">
	<path id="handle-color" fill="#272C40" stroke="#000000" stroke-width="2" stroke-miterlimit="10" d="M268.8,145.7H263v-22.2c0-4.2-3.4-7.6-7.6-7.6
		h-11.3c-4.2,0-7.6,3.4-7.6,7.6v22.2h-5.7v-22.2c0-7.3,6-13.3,13.3-13.3h11.3c7.3,0,13.3,6,13.3,13.3L268.8,145.7L268.8,145.7
		L268.8,145.7z"/>
</g>
<g id="base">
	<path id="base-color" fill="#272C40" stroke="#000000" stroke-width="3" stroke-miterlimit="10" d="M311.3,386.4H188.6c-8.3,0-15-6.8-15-15V142.2
		c0-8.3,6.8-15,15-15h122.7c8.3,0,15,6.8,15,15v229.2C326.3,379.6,319.6,386.4,311.3,386.4z"/>
</g>
<g id="cover-shadow">
	<path opacity="0.125" enable-background="new    " d="M280.3,248.8c-30.2,0-30.5,0-60.7,0c-32.4,0-50-29.8-50-39.1s3-62.1,3-62.1
		c0-8.3,6.8-15,15-15h124.7c8.3,0,14.6,6.8,15,15c0.5,9.3,3,52.8,3,62.1C330.3,219,312.3,248.8,280.3,248.8z"/>
</g>
<g id="cover">
	<path id="cover-color" fill="#272C40" stroke="#000000" stroke-width="3" stroke-miterlimit="10" d="M280.3,243.5c-30.2,0-30.5,0-60.7,0
		c-32.4,0-50-29.8-50-39.1c0-9.3,3-62.1,3-62.1c0-8.3,6.8-15,15-15h124.7c8.3,0,14.6,6.8,15,15c0.5,9.3,3,52.8,3,62.1
		C330.3,213.7,312.3,243.5,280.3,243.5z"/>
</g>
<g id="pocket-base">
	<path id="pocket-base-color" fill="#394054" stroke="#000000" stroke-width="2" stroke-miterlimit="10" d="M312.3,276.2h-125v80.3
		c0,8.8,7.5,15.9,16.2,15.9h93c8.8,0,15.8-7.1,15.8-15.9v-64.4C312.3,283.4,312.3,284.9,312.3,276.2L312.3,276.2z"/>
</g>
<g id="zipper">
	<path fill="#FFFFFF" stroke="#000000" stroke-miterlimit="10" d="M200.9,305.3c-2.8,0.4-3.7,11.3-3.6,13.4c0,2,1.6,3.7,3.6,3.8
		c2-0.1,3.6-1.8,3.6-3.8C204.6,316.6,203.6,305.7,200.9,305.3z M200.9,320.2c-1.1,0-2-0.9-1.9-2c0-1.1,0.9-2,2-1.9
		c1.1,0,2,0.9,1.9,2C202.9,319.4,202,320.3,200.9,320.2z"/>
</g>
<g id="pocket-top-shadow" opacity="0.1">
	<path d="M312.5,301.1c0,9-7.1,16.7-16.1,16.7h-92.3c-9,0-16.6-7.6-16.6-16.7v-19.9h124.9L312.5,301.1L312.5,301.1L312.5,301.1z"/>
</g>
<g id="pocket-top">
	<path id="pocket" fill="#4D556B" stroke="#000000" stroke-width="2" stroke-miterlimit="10" d="M312.5,296.1
		c0,9-7.1,16.7-16.1,16.7h-92.3c-9,0-16.6-7.6-16.6-16.7v-19.9h124.9L312.5,296.1L312.5,296.1L312.5,296.1z"/>
</g>
<g id="logo">
	<path fill="#FFFFFF" stroke="#000000" stroke-miterlimit="10" d="M238.3,332h23.2v17.2h-23.2V332z"/>
	<path fill="#FFFFFF" stroke="#000000" stroke-miterlimit="10" d="M240.9,334.5h18v12.3h-18V334.5z"/>
</g>
<g>
	<defs>
		<rect id="SVGID_1_" y="125.7" width="500" height="278.3"/>
	</defs>
	<clipPath id="SVGID_2_">
		<use xlink:href="#SVGID_1_"  overflow="visible"/>
	</clipPath>
	<g id="strap-right" clip-path="url(#SVGID_2_)">
		<path fill="#93481F" stroke="#000000" stroke-width="1.5" stroke-miterlimit="10" d="M284.7,125.7h-7.5c-1.7,0-3,1.3-3,3v1.7v4.8
			v1v2.2v220.9v5.7v7c0,1.7,1.3,3,3,3h7.5c1.7,0,3-1.3,3-3v-7v-5.7V138.4v-2.2v-1v-4.8v-1.7C287.7,127.1,286.3,125.7,284.7,125.7z"
			/>
		<ellipse fill="#93481F" stroke="#000000" stroke-miterlimit="10" cx="280.8" cy="323.8" rx="1.5" ry="1.5"/>
		<ellipse fill="#93481F" stroke="#000000" stroke-miterlimit="10" cx="280.8" cy="333.5" rx="1.5" ry="1.5"/>
		<ellipse fill="#93481F" stroke="#000000" stroke-miterlimit="10" cx="280.8" cy="314.1" rx="1.5" ry="1.5"/>
		<ellipse fill="#93481F" stroke="#000000" stroke-miterlimit="10" cx="280.8" cy="343.3" rx="1.5" ry="1.5"/>
		<ellipse fill="#93481F" stroke="#000000" stroke-miterlimit="10" cx="280.8" cy="252.6" rx="1.5" ry="1.5"/>
		<ellipse fill="#93481F" stroke="#000000" stroke-miterlimit="10" cx="280.8" cy="262.4" rx="1.5" ry="1.5"/>
		<ellipse fill="#93481F" stroke="#000000" stroke-miterlimit="10" cx="280.8" cy="242.8" rx="1.5" ry="1.5"/>
		<ellipse fill="#93481F" stroke="#000000" stroke-miterlimit="10" cx="280.8" cy="272.2" rx="1.5" ry="1.5"/>
		<ellipse fill="#93481F" stroke="#000000" stroke-miterlimit="10" cx="280.8" cy="242.8" rx="1.5" ry="1.5"/>
	</g>
</g>
<g>
	<defs>
		<rect id="SVGID_3_" y="125.7" width="500" height="278.3"/>
	</defs>
	<clipPath id="SVGID_4_">
		<use xlink:href="#SVGID_3_"  overflow="visible"/>
	</clipPath>
	<g id="strap-left" clip-path="url(#SVGID_4_)">
		<path fill="#93481F" stroke="#000000" stroke-width="1.5" stroke-miterlimit="10" d="M222.7,125.7h-7.5c-1.7,0-3,1.3-3,3v1.7v4.8
			v1v2.2v220.9v5.7v7c0,1.7,1.3,3,3,3h7.5c1.7,0,3-1.3,3-3v-7v-5.7V138.4v-2.2v-1v-4.8v-1.7C225.7,127.1,224.3,125.7,222.7,125.7z"
			/>
		<ellipse fill="#93481F" stroke="#000000" stroke-miterlimit="10" cx="218.8" cy="323.8" rx="1.5" ry="1.5"/>
		<ellipse fill="#93481F" stroke="#000000" stroke-miterlimit="10" cx="218.8" cy="333.5" rx="1.5" ry="1.5"/>
		<ellipse fill="#93481F" stroke="#000000" stroke-miterlimit="10" cx="218.8" cy="314.1" rx="1.5" ry="1.5"/>
		<ellipse fill="#93481F" stroke="#000000" stroke-miterlimit="10" cx="218.8" cy="343.3" rx="1.5" ry="1.5"/>
		<ellipse fill="#93481F" stroke="#000000" stroke-miterlimit="10" cx="218.8" cy="252.6" rx="1.5" ry="1.5"/>
		<ellipse fill="#93481F" stroke="#000000" stroke-miterlimit="10" cx="218.8" cy="262.4" rx="1.5" ry="1.5"/>
		<ellipse fill="#93481F" stroke="#000000" stroke-miterlimit="10" cx="218.8" cy="242.8" rx="1.5" ry="1.5"/>
		<ellipse fill="#93481F" stroke="#000000" stroke-miterlimit="10" cx="218.8" cy="272.2" rx="1.5" ry="1.5"/>
		<ellipse fill="#93481F" stroke="#000000" stroke-miterlimit="10" cx="218.8" cy="242.8" rx="1.5" ry="1.5"/>
	</g>
</g>
<g id="strap-holder-right">
	<path fill="#B5683C" stroke="#000000" stroke-miterlimit="10" d="M293.2,209.1c0,0.9-0.7,1.6-1.6,1.6h-21.4c-0.9,0-1.6-0.7-1.6-1.6
		v-1.8c0-0.9,0.7-1.6,1.6-1.6h21.4c0.9,0,1.6,0.7,1.6,1.6V209.1L293.2,209.1z M293.2,292.3c0,0.9-0.7,1.6-1.6,1.6h-21.4
		c-0.9,0-1.6-0.7-1.6-1.6v-1.8c0-0.9,0.7-1.6,1.6-1.6h21.4c0.9,0,1.6,0.7,1.6,1.6V292.3L293.2,292.3z M293.2,151
		c0,0.9-0.7,1.6-1.6,1.6h-21.4c-0.9,0-1.6-0.7-1.6-1.6v-1.8c0-0.9,0.7-1.6,1.6-1.6h21.4c0.9,0,1.6,0.7,1.6,1.6V151L293.2,151z"/>
</g>
<g id="strap-buckle-right">
	<path fill="#FFFFFF" stroke="#000000" stroke-miterlimit="10" d="M280.8,235.9c-7,0-8.1,1.7-8.1,2.7v12.3c0,1,1,2,2,2h12.7
		c1,0,1.5-1,1.5-2v-12.3C289.1,237.6,287.8,235.9,280.8,235.9L280.8,235.9L280.8,235.9z M287.3,249.2c0,0.8-0.6,1.4-1.4,1.4h-9.8
		c-0.8,0-1.4-0.6-1.4-1.4v-7.9c0-0.8,0.6-1.4,1.4-1.4h9.8c0.8,0,1.4,0.6,1.4,1.4V249.2L287.3,249.2z"/>
	<path fill="#FFFFFF" stroke="#000000" stroke-miterlimit="10" d="M280.8,307.9c-7,0-8.1,1.7-8.1,2.7v12.3c0,1,1,2,2,2h12.7
		c1,0,1.5-1,1.5-2v-12.3C289.1,309.6,287.8,307.9,280.8,307.9L280.8,307.9L280.8,307.9z M287.3,321.2c0,0.8-0.6,1.4-1.4,1.4h-9.8
		c-0.8,0-1.4-0.6-1.4-1.4v-7.9c0-0.8,0.6-1.4,1.4-1.4h9.8c0.8,0,1.4,0.6,1.4,1.4V321.2L287.3,321.2z"/>
</g>
<g id="strap-prong-right-btm">
	<path fill="#FFFFFF" stroke="#000000" stroke-miterlimit="10" d="M280.8,309.9c-0.8,0-1.5,0.7-1.5,1.5v1.9c0,0.8,0.7,1.5,1.5,1.5
		s1.5-0.7,1.5-1.5v-1.9C282.3,310.6,281.7,309.9,280.8,309.9z"/>
</g>
<g id="strap-prong-right-top">
	<path fill="#FFFFFF" stroke="#000000" stroke-miterlimit="10" d="M280.8,237.9c-0.8,0-1.5,0.7-1.5,1.5v1.9c0,0.8,0.7,1.5,1.5,1.5
		s1.5-0.7,1.5-1.5v-1.9C282.3,238.6,281.7,237.9,280.8,237.9z"/>
</g>
<g id="strap-holder-left">
	<path fill="#B5683C" stroke="#000000" stroke-miterlimit="10" d="M231.1,209.1c0,0.9-0.7,1.6-1.6,1.6h-21.4c-0.9,0-1.6-0.7-1.6-1.6
		v-1.8c0-0.9,0.7-1.6,1.6-1.6h21.4c0.9,0,1.6,0.7,1.6,1.6V209.1L231.1,209.1z M231.1,292.3c0,0.9-0.7,1.6-1.6,1.6h-21.4
		c-0.9,0-1.6-0.7-1.6-1.6v-1.8c0-0.9,0.7-1.6,1.6-1.6h21.4c0.9,0,1.6,0.7,1.6,1.6V292.3L231.1,292.3z M231.1,151
		c0,0.9-0.7,1.6-1.6,1.6h-21.4c-0.9,0-1.6-0.7-1.6-1.6v-1.8c0-0.9,0.7-1.6,1.6-1.6h21.4c0.9,0,1.6,0.7,1.6,1.6V151L231.1,151z"/>
</g>
<g id="strap-buckle-left">
	<path fill="#FFFFFF" stroke="#000000" stroke-miterlimit="10" d="M218.9,306.9c-7,0-8.1,1.7-8.1,2.7v12.3c0,1,1,2,2,2h12.7
		c1,0,1.5-1,1.5-2v-12.3C227.1,308.6,225.9,306.9,218.9,306.9L218.9,306.9L218.9,306.9z M225.3,320.2c0,0.8-0.6,1.4-1.4,1.4h-9.8
		c-0.8,0-1.4-0.6-1.4-1.4v-7.9c0-0.8,0.6-1.4,1.4-1.4h9.8c0.8,0,1.4,0.6,1.4,1.4V320.2L225.3,320.2z"/>
	<path fill="#FFFFFF" stroke="#000000" stroke-miterlimit="10" d="M218.9,235.9c-7,0-8.1,1.7-8.1,2.7v12.3c0,1,1,2,2,2h12.7
		c1,0,1.5-1,1.5-2v-12.3C227.1,237.6,225.9,235.9,218.9,235.9L218.9,235.9L218.9,235.9z M225.3,249.2c0,0.8-0.6,1.4-1.4,1.4h-9.8
		c-0.8,0-1.4-0.6-1.4-1.4v-7.9c0-0.8,0.6-1.4,1.4-1.4h9.8c0.8,0,1.4,0.6,1.4,1.4V249.2L225.3,249.2z"/>
</g>
<g id="strap-prong-left-btm">
	<path fill="#FFFFFF" stroke="#000000" stroke-miterlimit="10" d="M218.9,309.9c-0.8,0-1.5,0.7-1.5,1.5v1.9c0,0.8,0.7,1.5,1.5,1.5
		s1.5-0.7,1.5-1.5v-1.9C220.4,310.6,219.6,309.9,218.9,309.9z"/>
</g>
<g id="strap-prong-left-top">
	<path fill="#FFFFFF" stroke="#000000" stroke-miterlimit="10" d="M218.9,237.9c-0.8,0-1.5,0.7-1.5,1.5v1.9c0,0.8,0.7,1.5,1.5,1.5
		s1.5-0.7,1.5-1.5v-1.9C220.4,238.6,219.6,237.9,218.9,237.9z"/>
</g>
<svg id="sad" version="1.1"  xmlns="http://www.w3.org/2000/svg" xmlns:xlink="http://www.w3.org/1999/xlink" x="256px" y="153px"
	 width="50px" height="50px" viewBox="0 0 512.001 512.001" style="display: none; enable-background:new 0 0 512.001 512.001;" xml:space="preserve">
<circle style="fill:#F7B239;" cx="256.004" cy="256.004" r="246.855"/>
<g>
	<path style="fill:#E09B2D;" d="M126.306,385.694c-88.801-88.802-95.798-228.426-20.998-325.242
		C97.023,66.853,89.051,73.85,81.45,81.45c-96.401,96.401-96.401,252.698,0,349.099s252.698,96.401,349.099,0
		c7.599-7.599,14.597-15.573,20.999-23.858C354.733,481.492,215.108,474.494,126.306,385.694z"/>
	<path style="fill:#E09B2D;" d="M287.082,363.982c-1.431,0-2.882-0.337-4.237-1.046c-8.209-4.298-17.494-6.571-26.85-6.571
		c-9.352,0-18.633,2.272-26.841,6.569c-4.474,2.345-10.005,0.616-12.351-3.861c-2.344-4.476-0.615-10.006,3.861-12.349
		c10.817-5.664,23.034-8.658,35.331-8.658c12.299,0,24.52,2.994,35.337,8.658c4.477,2.343,6.206,7.874,3.862,12.349
		C293.561,362.198,290.377,363.982,287.082,363.982z"/>
</g>
<path d="M256.001,0C114.841,0,0,114.841,0,256.001s114.841,256.001,256.001,256.001S512.001,397.16,512.001,256.001
	C512,114.841,397.16,0,256.001,0z M256.001,493.701c-131.069,0-237.702-106.631-237.702-237.7S124.932,18.299,256.001,18.299
	s237.702,106.632,237.702,237.7C493.701,387.07,387.068,493.701,256.001,493.701z"/>
<path d="M257.142,300.395c-37.723,0-73.189,14.69-99.863,41.364c-3.573,3.573-3.573,9.365,0,12.939c3.574,3.573,9.367,3.573,12.94,0
	c23.217-23.218,54.087-36.005,86.923-36.005s63.706,12.787,86.923,36.005c1.787,1.787,4.128,2.68,6.471,2.68
	c2.341,0,4.683-0.893,6.471-2.68c3.573-3.573,3.573-9.365,0-12.939C330.332,315.086,294.865,300.395,257.142,300.395z"/>
<path d="M161.852,136.57c0-5.053-4.095-9.15-9.15-9.15s-9.15,4.097-9.15,9.15c0,26.857-21.849,48.707-48.707,48.707
	c-5.054,0-9.15,4.097-9.15,9.15s4.095,9.15,9.15,9.15C131.792,203.575,161.852,173.517,161.852,136.57z"/>
<path d="M417.155,185.276c-26.858,0-48.707-21.849-48.707-48.707c0-5.053-4.095-9.15-9.15-9.15c-5.054,0-9.15,4.097-9.15,9.15
	c0,36.947,30.059,67.006,67.006,67.006c5.054,0,9.15-4.097,9.15-9.15C426.304,189.372,422.209,185.276,417.155,185.276z"/>
<path d="M180.577,229.983c0-18.666-15.186-33.852-33.852-33.852s-33.852,15.186-33.852,33.852s15.186,33.852,33.852,33.852
	S180.577,248.649,180.577,229.983z"/>
<path d="M365.275,196.131c-18.666,0-33.852,15.186-33.852,33.852s15.186,33.852,33.852,33.852s33.852-15.186,33.852-33.852
	S383.942,196.131,365.275,196.131z"/>
<g>
	<circle style="fill:#FFFFFF;" cx="150.48" cy="225.372" r="9.15"/>
	<circle style="fill:#FFFFFF;" cx="368.849" cy="225.372" r="9.15"/>
</g>
</svg>

<svg id="happy" version="1.1"  xmlns="http://www.w3.org/2000/svg" x="256px" y="153px"
	 width="50px" height="50px"  xmlns:xlink="http://www.w3.org/1999/xlink"
	 viewBox="0 0 512 512" style="display: none; enable-background:new 0 0 512 512;" xml:space="preserve">
<circle style="fill:#F7B239;" cx="256.004" cy="256.004" r="246.855"/>
<path style="fill:#E09B2D;" d="M126.306,385.694c-88.801-88.802-95.798-228.426-20.998-325.242
	C97.023,66.853,89.051,73.85,81.45,81.45c-96.401,96.401-96.401,252.698,0,349.099s252.698,96.401,349.099,0
	c7.599-7.599,14.597-15.573,20.999-23.858C354.733,481.492,215.108,474.494,126.306,385.694z"/>
<path style="fill:#FFFFFF;" d="M373.277,215.314v42.759c-64.767,64.767-169.779,64.767-234.558,0v-42.759
	C203.498,280.093,308.51,280.093,373.277,215.314z"/>
<path style="fill:#F95428;" d="M285.844,336.845c19.031,0,35.573,10.626,44.028,26.265c-20.166,16.384-45.87,26.192-73.867,26.192
	c-27.998,0-53.702-9.808-73.867-26.192c8.442-15.64,24.997-26.265,44.015-26.265c11.187,0,21.52,3.672,29.852,9.882
	C264.336,340.517,274.657,336.845,285.844,336.845z"/>
<path style="fill:#A81004;" d="M373.277,258.073v13.956c0,32.389-13.127,61.705-34.354,82.919c-2.867,2.879-5.892,5.6-9.052,8.161
	c-8.454-15.64-24.997-26.265-44.028-26.265c-11.187,0-21.508,3.672-29.84,9.882c-8.332-6.209-18.665-9.882-29.852-9.882
	c-19.019,0-35.573,10.626-44.015,26.265c-26.497-21.483-43.418-54.312-43.418-91.081v-13.956
	C203.498,322.84,308.51,322.84,373.277,258.073z"/>
<path d="M171.704,184.358c0,5.053,4.097,9.15,9.15,9.15c5.053,0,9.15-4.097,9.15-9.15c0-31.956-25.998-57.954-57.954-57.954
	s-57.954,25.998-57.954,57.954c0,5.053,4.097,9.15,9.15,9.15s9.15-4.097,9.15-9.15c0-21.866,17.789-39.655,39.655-39.655
	S171.704,162.493,171.704,184.358z"/>
<path d="M379.951,126.405c-31.956,0-57.954,25.998-57.954,57.954c0,5.053,4.097,9.15,9.15,9.15c5.053,0,9.15-4.097,9.15-9.15
	c0-21.866,17.789-39.655,39.655-39.655s39.655,17.789,39.655,39.655c0,5.053,4.097,9.15,9.15,9.15s9.15-4.097,9.15-9.15
	C437.906,152.403,411.908,126.405,379.951,126.405z"/>
<path d="M376.777,206.86c-3.417-1.415-7.355-0.633-9.971,1.984c-29.596,29.602-68.947,45.904-110.805,45.904
	s-81.211-16.302-110.813-45.904c-2.617-2.618-6.552-3.399-9.971-1.984c-3.419,1.416-5.648,4.753-5.648,8.453v56.715
	c0,38.283,17.06,74.071,46.797,98.182c22.415,18.211,50.698,28.24,79.638,28.24c28.941,0,57.223-10.029,79.629-28.234
	c3.438-2.788,6.727-5.753,9.758-8.797c23.883-23.868,37.035-55.615,37.035-89.391v-56.715
	C382.427,211.613,380.197,208.277,376.777,206.86z M256.002,273.048c39.719,0,77.414-13.141,108.124-37.372v18.541
	c-60.387,57.607-155.859,57.607-216.259,0v-18.542C178.583,259.903,216.284,273.048,256.002,273.048z M194.55,360.969
	c7.676-9.378,19.207-14.976,31.601-14.976c8.87,0,17.302,2.79,24.385,8.069c3.244,2.417,7.69,2.417,10.934,0
	c7.083-5.279,15.51-8.069,24.373-8.069c12.393,0,23.928,5.598,31.611,14.978c-17.962,12.409-39.478,19.18-61.451,19.18
	C234.033,380.153,212.517,373.382,194.55,360.969z M332.44,348.493c-0.279,0.282-0.572,0.557-0.856,0.837
	c-11.12-13.555-27.812-21.634-45.739-21.634c-10.623,0-20.819,2.772-29.84,8.066c-9.023-5.295-19.223-8.066-29.852-8.066
	c-17.933,0-34.626,8.082-45.737,21.641c-19.246-18.765-30.744-43.854-32.348-70.78c31.57,24.767,69.75,37.159,107.935,37.159
	c38.177,0,76.347-12.388,107.91-37.145C362.345,304.993,351.328,329.615,332.44,348.493z"/>
<path d="M255.999,0C114.841,0,0,114.841,0,256.001S114.841,512,255.999,512C397.159,512,512,397.159,512,256.001
	C512,114.841,397.159,0,255.999,0z M255.999,493.701c-131.068,0-237.7-106.632-237.7-237.7c0-131.069,106.632-237.702,237.7-237.702
	c131.069,0,237.702,106.632,237.702,237.702C493.701,387.068,387.068,493.701,255.999,493.701z"/>
<g>
</g>
</svg>

<svg id="kiss" version="1.1"  xmlns="http://www.w3.org/2000/svg" x="256px" y="153px"
	 width="50px" height="50px"  xmlns:xlink="http://www.w3.org/1999/xlink"
	 viewBox="0 0 512 512" style="display: none; enable-background:new 0 0 512 512;" xml:space="preserve">
<circle style="fill:#F7B239;" cx="256.004" cy="256.004" r="246.855"/>
<path style="fill:#E09B2D;" d="M126.308,385.694c-88.802-88.802-95.799-228.426-20.999-325.241
	c-8.286,6.401-16.258,13.399-23.858,20.999c-96.401,96.401-96.401,252.698,0,349.099s252.698,96.401,349.099,0
	c7.599-7.599,14.597-15.573,20.999-23.858C354.734,481.492,215.108,474.495,126.308,385.694z"/>
<path d="M255.999,512C114.841,512,0,397.16,0,256.001S114.841,0,255.999,0C397.159,0,512,114.841,512,256.001
	S397.159,512,255.999,512z M255.999,18.299c-131.068,0-237.7,106.632-237.7,237.702s106.632,237.702,237.7,237.702
	c131.069,0,237.702-106.632,237.702-237.702S387.068,18.299,255.999,18.299z"/>
<path d="M198.66,242.515c-3.114,0-6.151-1.591-7.864-4.458c-8.265-13.834-22.821-22.094-38.937-22.094s-30.672,8.26-38.937,22.094
	c-2.591,4.338-8.207,5.754-12.547,3.162c-4.338-2.592-5.753-8.209-3.162-12.547c11.6-19.417,32.028-31.007,54.646-31.007
	s43.046,11.592,54.646,31.007c2.592,4.338,1.176,9.956-3.162,12.547C201.873,242.097,200.255,242.515,198.66,242.515z"/>
<path d="M406.941,242.515c-3.115,0-6.151-1.591-7.864-4.458c-8.265-13.834-22.821-22.094-38.937-22.094s-30.672,8.26-38.937,22.094
	c-2.591,4.338-8.208,5.754-12.547,3.162c-4.338-2.592-5.753-8.209-3.162-12.547c11.6-19.417,32.028-31.007,54.646-31.007
	s43.046,11.592,54.646,31.007c2.592,4.338,1.176,9.956-3.162,12.547C410.156,242.097,408.538,242.515,406.941,242.515z"/>
<path d="M273.097,397.082c-5.053,0-9.15-4.097-9.15-9.15s4.097-9.15,9.15-9.15c10.646,0,19.307-8.66,19.307-19.306
	s-8.66-19.307-19.307-19.307c-5.053,0-9.15-4.097-9.15-9.15c0-5.053,4.097-9.15,9.15-9.15c10.646,0,19.307-8.662,19.307-19.307
	c0-10.645-8.66-19.306-19.307-19.306c-5.053,0-9.15-4.097-9.15-9.15s4.097-9.15,9.15-9.15c20.737,0,37.606,16.869,37.606,37.605
	c0,11.358-5.06,21.555-13.046,28.456c7.986,6.901,13.046,17.099,13.046,28.456C310.701,380.212,293.832,397.082,273.097,397.082z"/>
<path style="fill:#F95428;" d="M404.052,287.332L404.052,287.332c-9.761-18.693-32.826-25.935-51.519-16.174l0,0
	c-18.693,9.761-25.935,32.826-16.174,51.519l0,0l35.345,67.693l67.693-35.345l0,0c18.693-9.761,25.935-32.826,16.174-51.519l0,0
	C445.811,284.813,422.746,277.572,404.052,287.332L404.052,287.332z"/>
<path d="M371.705,399.52c-0.921,0-1.846-0.139-2.741-0.42c-2.314-0.727-4.247-2.344-5.37-4.495l-35.345-67.693
	c-12.08-23.134-3.085-51.784,20.05-63.865c20.594-10.751,45.557-4.805,59.315,12.947c21.434-6.707,45.317,2.681,56.07,23.278
	c12.079,23.135,3.085,51.784-20.05,63.865l-67.694,35.345C374.619,399.17,373.165,399.52,371.705,399.52z M370.158,275.976
	c-4.524,0-9.109,1.059-13.39,3.294c-14.19,7.41-19.708,24.983-12.298,39.173l31.11,59.583l59.583-31.111
	c14.19-7.41,19.707-24.983,12.298-39.173c-7.41-14.192-24.983-19.708-39.173-12.298c-4.48,2.339-10.006,0.604-12.346-3.876
	C390.766,281.656,380.633,275.976,370.158,275.976z"/>
<g>
</g>
</svg>

<svg id="laughing" version="1.1"  xmlns="http://www.w3.org/2000/svg" x="256px" y="153px"
	 width="50px" height="50px"  xmlns:xlink="http://www.w3.org/1999/xlink"
	 viewBox="0 0 512 512" style="display: none; enable-background:new 0 0 512 512;" xml:space="preserve">
<circle style="fill:#F7B239;" cx="255.996" cy="256.006" r="218.495"/>
<path style="fill:#E09B2D;" d="M141.207,370.794c-78.6-78.6-84.793-202.183-18.586-287.875c-7.334,5.666-14.39,11.859-21.117,18.586
	c-85.326,85.326-85.326,223.667,0,308.993s223.667,85.326,308.993,0c6.726-6.726,12.92-13.783,18.586-21.117
	C343.39,455.588,219.807,449.394,141.207,370.794z"/>
<path style="fill:#FFFFFF;" d="M359.803,219.989v37.847c-57.326,57.326-150.274,57.326-207.61,0v-37.847
	C209.529,277.326,302.477,277.326,359.803,219.989z"/>
<path style="fill:#F95428;" d="M282.415,327.557c16.845,0,31.487,9.405,38.969,23.248c-17.849,14.502-40.6,23.183-65.381,23.183
	c-24.781,0-47.532-8.681-65.381-23.183c7.472-13.843,22.125-23.248,38.959-23.248c9.902,0,19.047,3.25,26.422,8.746
	C263.378,330.808,272.513,327.557,282.415,327.557z"/>
<path style="fill:#A81004;" d="M359.803,257.836v12.353c0,28.668-11.618,54.616-30.407,73.393c-2.538,2.548-5.215,4.956-8.012,7.224
	c-7.483-13.843-22.125-23.248-38.969-23.248c-9.902,0-19.037,3.25-26.412,8.746c-7.375-5.496-16.521-8.746-26.422-8.746
	c-16.834,0-31.487,9.405-38.959,23.248c-23.453-19.015-38.43-48.072-38.43-80.617v-12.353
	C209.529,315.161,302.477,315.161,359.803,257.836z"/>
<path style="fill:#2BA5F7;" d="M8.098,240.087L8.098,240.087c0-26.232,21.265-47.497,47.497-47.497h47.497v47.497
	c0,26.231-21.265,47.497-47.497,47.497l0,0C29.364,287.584,8.098,266.32,8.098,240.087z"/>
<path style="fill:#2197D8;" d="M30.614,240.087L30.614,240.087c0-26.232,21.265-47.497,47.497-47.497H55.595
	c-26.231,0-47.497,21.265-47.497,47.497l0,0c0,26.232,21.265,47.497,47.497,47.497l0,0c3.881,0,7.648-0.476,11.258-1.354
	C46.057,281.174,30.614,262.439,30.614,240.087z"/>
<path style="fill:#2BA5F7;" d="M503.903,240.087L503.903,240.087c0-26.232-21.265-47.497-47.497-47.497H408.91v47.497
	c0,26.231,21.265,47.497,47.497,47.497l0,0C482.637,287.584,503.903,266.32,503.903,240.087z"/>
<path style="fill:#2197D8;" d="M426.818,240.087v-47.497h-17.909v47.497c0,26.232,21.265,47.497,47.497,47.497l0,0
	c3.062,0,6.053-0.301,8.955-0.855C443.411,282.54,426.818,263.256,426.818,240.087z"/>
<path d="M362.902,212.507c-3.027-1.254-6.51-0.56-8.826,1.756c-26.196,26.201-61.026,40.63-98.075,40.63
	s-71.881-14.429-98.082-40.63c-2.317-2.317-5.8-3.008-8.825-1.756c-3.027,1.254-4.999,4.207-4.999,7.482v50.199
	c0,33.885,15.1,65.561,41.422,86.901c19.84,16.119,44.873,24.996,70.487,24.996c25.615,0,50.647-8.877,70.481-24.991
	c3.045-2.469,5.956-5.094,8.636-7.786c21.139-21.125,32.78-49.224,32.78-79.12v-50.199
	C367.901,216.713,365.929,213.761,362.902,212.507z M256.002,271.09c35.156,0,68.521-11.631,95.702-33.078v16.41
	c-53.449,50.989-137.955,50.99-191.414,0V238.01C187.478,259.456,220.848,271.09,256.002,271.09z M201.61,348.911
	c6.793-8.3,17-13.255,27.971-13.255c7.851,0,15.315,2.469,21.583,7.142c2.871,2.139,6.808,2.139,9.678,0
	c6.269-4.672,13.728-7.142,21.573-7.142c10.97,0,21.179,4.955,27.979,13.258c-15.899,10.984-34.944,16.976-54.391,16.976
	C236.557,365.89,217.513,359.898,201.61,348.911z M323.657,337.868c-0.247,0.248-0.506,0.493-0.758,0.741
	c-9.842-11.997-24.617-19.15-40.484-19.15c-9.403,0-18.428,2.453-26.412,7.14c-7.985-4.686-17.013-7.14-26.422-7.14
	c-15.873,0-30.648,7.154-40.482,19.154c-17.035-16.608-27.212-38.815-28.632-62.648c27.943,21.922,61.737,32.89,95.535,32.89
	c33.791,0,67.576-10.965,95.512-32.877C350.127,299.366,340.377,321.16,323.657,337.868z"/>
<path d="M512,240.087c0-25.321-17.022-46.727-40.219-53.416c-14.152-43.99-42.135-83.437-79.182-111.472
	c-39.588-29.958-86.821-45.793-136.596-45.793c-49.779,0-97.017,15.835-136.606,45.793c-37.047,28.034-65.032,67.482-79.184,111.474
	C17.02,193.364,0,214.768,0,240.087c0,22.231,13.12,41.445,32.019,50.333c7.971,52.248,34.122,100.188,73.988,135.422
	c41.405,36.596,94.676,56.75,149.996,56.75c55.316,0,108.583-20.154,149.987-56.75c39.864-35.235,66.015-83.174,73.987-135.42
	C498.878,281.536,512,262.32,512,240.087z M16.197,240.087c0-21.724,17.674-39.398,39.398-39.398h39.398v39.398
	c0,21.724-17.674,39.398-39.398,39.398S16.197,261.812,16.197,240.087z M395.264,413.707
	c-38.441,33.977-87.898,52.689-139.261,52.689c-51.367,0-100.827-18.713-139.27-52.689c-35.144-31.061-58.801-72.752-67.44-118.392
	c2.07,0.234,4.17,0.367,6.302,0.367c30.655,0,55.595-24.94,55.595-55.595v-47.497c0-19.354,15.745-35.1,35.1-35.1
	s35.1,15.745,35.1,35.1c0,4.472,3.626,8.098,8.098,8.098s8.098-3.626,8.098-8.098c0-28.285-23.011-51.296-51.296-51.296
	c-25.529,0-46.756,18.748-50.651,43.198H58.08c13.773-37.964,38.7-71.864,71.092-96.376c36.753-27.811,80.61-42.512,126.832-42.512
	c46.217,0,90.071,14.7,126.822,42.512c32.392,24.512,57.318,58.413,71.092,96.376h-37.556c-3.895-24.45-25.122-43.198-50.651-43.198
	c-28.284,0-51.295,23.011-51.295,51.296c0,4.472,3.625,8.098,8.098,8.098c4.474,0,8.098-3.626,8.098-8.098
	c0-19.354,15.745-35.1,35.098-35.1c19.354,0,35.1,15.745,35.1,35.1v47.497c0,30.655,24.94,55.595,55.595,55.595
	c2.13,0,4.229-0.133,6.297-0.367C454.064,340.956,430.408,382.646,395.264,413.707z M456.405,279.486
	c-21.724,0-39.398-17.674-39.398-39.398v-39.399h39.398c21.724,0,39.398,17.674,39.398,39.398S478.129,279.486,456.405,279.486z"/>
<g>
</g>
</svg>

<svg id="surprised" version="1.1"  xmlns="http://www.w3.org/2000/svg" xmlns:xlink="http://www.w3.org/1999/xlink" x="256px" y="153px" width="50px" height="50px" viewBox="0 0 512.001 512.001" style="display: none; enable-background:new 0 0 512.001 512.001;" xml:space="preserve">
<circle style="fill:#F7B239;" cx="256.005" cy="256.004" r="246.855"/>
<path style="fill:#E09B2D;" d="M126.308,385.694c-88.802-88.802-95.799-228.426-20.999-325.241
	c-8.286,6.401-16.258,13.399-23.858,20.999c-96.401,96.401-96.401,252.698,0,349.099s252.698,96.401,349.099,0
	c7.599-7.599,14.597-15.573,20.999-23.858C354.735,481.492,215.109,474.495,126.308,385.694z"/>
<path style="fill:#A81004;" d="M254.349,398.758L254.349,398.758c-33.349,0-60.385-27.035-60.385-60.383v-47.575
	c0-33.349,27.035-60.383,60.383-60.383l0,0c33.349,0,60.383,27.035,60.383,60.383v47.575
	C314.734,371.723,287.699,398.758,254.349,398.758z"/>
<g>
	
		<ellipse transform="matrix(0.7071 -0.7071 0.7071 0.7071 -104.4311 155.2862)" style="fill:#FFFFFF;" cx="135.231" cy="203.703" rx="67.73" ry="53.713"/>
	
		<ellipse transform="matrix(0.7071 0.7071 -0.7071 0.7071 254.396 -206.7572)" style="fill:#FFFFFF;" cx="376.776" cy="203.704" rx="67.73" ry="53.713"/>
</g>
<path style="fill:#F95428;" d="M269.717,335.112c4.575-2.074,9.43-3.196,14.468-3.196c11.236,0,21.605,5.551,29.95,14.932
	c-4.111,29.34-29.315,51.908-59.789,51.908s-55.666-22.581-59.777-51.921c8.344-9.369,18.702-14.92,29.925-14.92
	c5.038,0,9.906,1.122,14.481,3.196C248.795,339.565,259.896,339.553,269.717,335.112z"/>
<path style="fill:#FFFFFF;" d="M306.352,260.098c-13.432,13.078-31.779,21.129-52.006,21.129c-20.214,0-38.562-8.052-51.994-21.117
	c10.504-17.775,29.852-29.693,51.994-29.693c16.677,0,31.767,6.758,42.698,17.689C300.63,251.693,303.753,255.719,306.352,260.098z"
	/>
<path d="M256.001,0C114.842,0,0.001,114.841,0.001,256.001s114.841,256.001,256.001,256.001
	c141.158,0,255.999-114.841,255.999-256.001S397.159,0,256.001,0z M256.001,493.701c-131.069,0-237.702-106.631-237.702-237.7
	S124.932,18.299,256.001,18.299c131.068,0,237.7,106.632,237.7,237.702S387.069,493.701,256.001,493.701z"/>
<path d="M189.596,149.344c-24.513-24.512-68.842-20.067-98.818,9.91c-29.976,29.975-34.421,74.305-9.91,98.818
	c10.649,10.649,25.034,15.832,40.363,15.832c19.953,0,41.502-8.788,58.455-25.742C209.663,218.186,214.109,173.856,189.596,149.344z
	 M186.868,195.651c-1.636,14.178-8.781,28.232-20.12,39.571c-11.339,11.339-25.392,18.485-39.571,20.12
	c-13.388,1.551-25.238-2.082-33.369-10.212c-17.377-17.378-12.933-50.098,9.91-72.939c13.444-13.444,30.309-20.514,45.455-20.514
	c10.588,0,20.334,3.456,27.484,10.605C184.786,170.413,188.414,182.264,186.868,195.651z"/>
<path d="M421.223,159.253c-29.975-29.976-74.307-34.422-98.818-9.91c-24.512,24.512-20.067,68.841,9.91,98.818
	c16.955,16.955,38.499,25.742,58.455,25.742c15.326,0,29.715-5.185,40.363-15.832C455.644,233.559,451.199,189.228,421.223,159.253z
	 M418.193,245.132c-8.13,8.131-19.983,11.761-33.369,10.212c-14.178-1.636-28.232-8.781-39.571-20.12
	c-11.339-11.339-18.485-25.394-20.12-39.572c-1.546-13.388,2.082-25.238,10.212-33.369c7.151-7.15,16.895-10.605,27.484-10.605
	c15.144,0,32.012,7.072,45.455,20.515C431.125,195.034,435.57,227.754,418.193,245.132z"/>
<path d="M303.513,241.637c-13.135-13.135-30.596-20.369-49.167-20.369c-24.468,0-47.408,13.1-59.864,34.177
	c-6.321,10.659-9.661,22.886-9.661,35.36v47.565c0,3.33,0.233,6.623,0.687,9.736c4.777,34.091,34.371,59.8,68.838,59.8
	c34.475,0,64.074-25.703,68.844-59.742c0.46-3.161,0.693-6.456,0.693-9.795v-47.565c0-12.468-3.339-24.698-9.661-35.375
	C311.233,250.395,307.63,245.754,303.513,241.637z M284.184,322.767c-6.233,0-12.371,1.349-18.238,4.009
	c-7.382,3.339-15.836,3.34-23.196,0.004c-5.874-2.663-12.016-4.012-18.258-4.012c-7.461,0-14.659,1.892-21.373,5.541v-37.502
	c0-5.474,0.891-10.873,2.578-16.008c14.112,10.111,30.99,15.58,48.648,15.58c17.667,0,34.547-5.471,48.66-15.587
	c1.687,5.137,2.578,10.54,2.578,16.014v37.578C298.816,324.71,291.553,322.767,284.184,322.767z M254.346,239.567
	c13.683,0,26.55,5.33,36.229,15.009c1.261,1.261,2.441,2.605,3.567,3.994c-11.372,8.747-25.239,13.508-39.794,13.508
	c-14.547,0-28.409-4.758-39.782-13.501C224.21,246.71,238.855,239.567,254.346,239.567z M254.346,389.607
	c-23.922,0-44.65-16.803-49.921-39.78c4.841-4.5,11.648-8.762,20.07-8.762c3.617,0,7.218,0.8,10.701,2.38
	c12.153,5.51,26.109,5.512,38.299,0c3.484-1.58,7.082-2.38,10.692-2.38c8.444,0,15.258,4.269,20.097,8.774
	C299.031,372.789,278.288,389.607,254.346,389.607z"/>

</svg>

	<svg version="1.1" id="atom" xmlns="http://www.w3.org/2000/svg" xmlns:xlink="http://www.w3.org/1999/xlink" x="256px" y="153px" width="50px" height="50px"
	 viewBox="0 0 470 470" style="enable-background:new 0 0 470 470;" xml:space="preserve">
<g>
	<path style="fill:#D5E6DA;" d="M40.65,246.972c2.116-3.562,6.718-4.73,10.279-2.615l138.051,82.063
		c-1.706-41.44-20.014-76.038-50.359-94.076c-14.883-8.848-31.651-13.333-49.837-13.333c-21.301,0-43.573,6.262-64.65,18.143
		C24.135,237.159,40.649,246.975,40.65,246.972z"/>
	<path style="fill:#98AE9F;" d="M74.612,340.025c14.882,8.848,31.649,13.333,49.835,13.333c18.698,0,38.143-4.827,56.872-14.042
		L43.265,257.251c-3.56-2.117-4.73-6.716-2.616-10.276l-16.514-9.816C23.451,282.47,42.143,320.725,74.612,340.025z"/>
	<path style="fill:#98AE9F;" d="M395.387,340.025c32.469-19.3,51.161-57.555,50.478-102.866l-16.51,9.814
		c2.114,3.56,0.943,8.16-2.616,10.277L288.68,339.316c18.729,9.214,38.175,14.042,56.873,14.042
		C363.737,353.358,380.504,348.873,395.387,340.025z"/>
	<path style="fill:#D5E6DA;" d="M445.865,237.154c-21.077-11.881-43.35-18.143-64.65-18.143c-18.186,0-34.953,4.485-49.837,13.333
		c-30.346,18.038-48.654,52.636-50.36,94.076l138.056-82.065c3.56-2.114,8.163-0.945,10.279,2.615
		C429.354,246.973,445.865,237.159,445.865,237.154z"/>
	<path style="fill:#3E2C3A;" d="M460.739,232.464c-0.103-2.53-1.474-4.837-3.647-6.136c-24.435-14.601-50.673-22.317-75.877-22.317
		c-20.921,0-40.268,5.194-57.501,15.438c-37.159,22.088-58.565,65.212-57.807,115.953L242.5,349.317V270H255
		c4.143,0,7.5-3.357,7.5-7.5s-3.357-7.5-7.5-7.5h-12.5v-29.906c23.923-1.618,46.286-11.033,63.624-26.92
		c20.233-18.539,31.376-44.318,31.376-72.59V27.75c0-4.143-3.357-7.5-7.5-7.5c-13.214,0-25.969,1.976-37.962,5.753
		c-15.913-13.29-35.086-22.213-55.723-25.887c-0.869-0.154-1.76-0.154-2.629,0c-20.627,3.673-39.792,12.589-55.701,25.869
		C165.959,22.21,153.203,20.25,140,20.25c-4.142,0-7.5,3.357-7.5,7.5v97.833c0,28.267,11.169,54.048,31.451,72.595
		c17.336,15.854,39.669,25.26,63.549,26.905v124.233l-23.408-13.914c0.759-50.742-20.648-93.865-57.806-115.953
		c-17.234-10.244-36.581-15.438-57.501-15.438c-25.205,0-51.442,7.717-75.877,22.317c-2.173,1.299-3.544,3.605-3.646,6.136
		C7.129,285.15,28.694,330.18,66.947,352.919c17.234,10.244,36.58,15.438,57.5,15.438c23.868,0,48.661-6.932,71.975-20.065
		l31.078,18.474v54.9H215c-4.142,0-7.5,3.357-7.5,7.5s3.358,7.5,7.5,7.5h12.5V462.5c0,4.143,3.358,7.5,7.5,7.5
		c4.143,0,7.5-3.357,7.5-7.5v-59.167H255c4.143,0,7.5-3.357,7.5-7.5s-3.357-7.5-7.5-7.5h-12.5v-21.566l31.077-18.473
		c23.314,13.133,48.106,20.065,71.974,20.065c20.92,0,40.268-5.195,57.5-15.438C441.305,330.18,462.87,285.151,460.739,232.464z
		 M24.135,237.159c21.077-11.886,43.349-18.148,64.65-18.148c18.186,0,34.954,4.485,49.837,13.333
		c30.346,18.038,48.653,52.636,50.359,94.076L50.93,244.357c-3.561-2.115-8.163-0.946-10.279,2.615
		c-2.116,3.563-0.945,8.163,2.614,10.279l138.054,82.064c-18.729,9.215-38.175,14.042-56.872,14.042
		c-18.186,0-34.953-4.485-49.835-13.333C42.143,320.725,23.451,282.47,24.135,237.159z M235.014,64.814
		c-5.975-7.349-12.77-13.979-20.293-19.764c-6.414-4.932-13.272-9.146-20.483-12.639C206.353,23.86,220.225,17.948,235,15.125
		c14.793,2.826,28.682,8.749,40.808,17.319C260.166,40.013,246.285,50.942,235.014,64.814z M147.5,35.486
		c33.508,2.114,62.203,18.402,80.615,44.867c0.365,0.846,0.888,1.63,1.561,2.306c5.5,8.349,10.004,17.656,13.353,27.805
		c1.273,3.86,5.378,5.986,9.253,4.833c0.073-0.022,0.146-0.036,0.219-0.06c3.934-1.297,6.07-5.538,4.772-9.472
		c-3.316-10.054-7.743-19.512-13.172-28.22c18.785-24.983,46.828-39.997,78.399-42.052v90.091c0,47.356-35.416,77.7-73.586,83.674
		c9.792-18.8,15.086-40.174,15.086-61.548c0-1.65-0.031-3.328-0.092-4.987c-0.153-4.14-3.616-7.352-7.771-7.22
		c-0.083,0.003-0.164,0.016-0.246,0.021c-4.02,0.279-7.123,3.693-6.974,7.749c0.055,1.477,0.082,2.97,0.082,4.437
		c0,22.061-6.347,44.108-17.932,62.543c-41.758-1.893-83.568-33.257-83.568-84.669V35.486z M426.738,257.25
		c3.56-2.117,4.731-6.717,2.616-10.277c-2.117-3.563-6.721-4.732-10.281-2.618L281.017,326.42
		c1.706-41.44,20.014-76.038,50.36-94.076c14.884-8.848,31.651-13.333,49.837-13.333c21.301,0,43.573,6.262,64.65,18.143
		c0.683,45.316-18.009,83.571-50.478,102.871c-14.883,8.848-31.65,13.333-49.835,13.333c-18.698,0-38.144-4.828-56.873-14.042
		L426.738,257.25z"/>
	<path style="fill:#D7B0CD;" d="M194.238,32.412c7.211,3.492,14.069,7.707,20.483,12.639c7.523,5.784,14.318,12.415,20.293,19.764
		c11.271-13.872,25.151-24.801,40.794-32.369c-12.126-8.57-26.015-14.493-40.808-17.319
		C220.225,17.948,206.353,23.86,194.238,32.412z"/>
	<path style="fill:#C981A6;" d="M256.137,135.502c4.154-0.132,7.617,3.08,7.771,7.22c0.061,1.659,0.092,3.337,0.092,4.987
		c0,21.373-5.294,42.748-15.086,61.548c38.17-5.973,73.586-36.317,73.586-83.674V35.493c-31.571,2.055-59.614,17.068-78.399,42.052
		c5.429,8.708,9.855,18.166,13.172,28.22c1.298,3.934-0.839,8.175-4.772,9.472c-0.073,0.024-0.146,0.039-0.219,0.06
		c1.746,6.59,2.947,13.358,3.61,20.228C255.974,135.518,256.054,135.505,256.137,135.502z"/>
	<path style="fill:#BC6190;" d="M231.067,210.253C242.652,191.818,249,169.771,249,147.709c0-1.467-0.027-2.96-0.082-4.437
		c-0.149-4.056,2.954-7.47,6.974-7.749c-0.663-6.87-1.865-13.638-3.61-20.228c-3.876,1.154-7.98-0.972-9.253-4.833
		c-3.349-10.148-7.853-19.456-13.353-27.805c-0.673-0.676-1.196-1.46-1.561-2.306C209.703,53.888,181.007,37.6,147.5,35.486v90.098
		C147.5,176.996,189.309,208.359,231.067,210.253z"/>
</g>
	</svg>

	<svg version="1.1" id="snowman" xmlns="http://www.w3.org/2000/svg" xmlns:xlink="http://www.w3.org/1999/xlink" x="256px" y="153px" width="50px" height="50px"
	 viewBox="0 0 511.998 511.998" style="enable-background:new 0 0 511.998 511.998;" xml:space="preserve">
<g>

		<rect x="107.234" y="160.722" transform="matrix(-0.9973 0.0729 -0.0729 -0.9973 257.0102 479.1907)" style="fill:#F49D18;" width="25.051" height="167.128"/>
	<polygon style="fill:#F49D18;" points="107.485,76.233 58.063,100.778 62.747,124.25 112.22,141.047 158.727,117.238
		159.951,93.334 	"/>
</g>
<polygon style="fill:#DB8D15;" points="82.749,114.165 82.749,114.165 78.638,90.559 58.063,100.778 59.231,106.631 62.747,124.25
	85.874,132.103 "/>
<g>
	<path style="fill:#FBBF0D;" d="M153.576,51.931l-95.224,6.957c-4.529,0.331-7.744,4.555-6.855,9.009l6.565,32.881l101.889-7.444
		l1.716-33.486C161.9,55.313,158.106,51.6,153.576,51.931z"/>
	<path style="fill:#FBBF0D;" d="M158.727,117.238l-1.742,33.958c-0.567,11.146-5.246,21.201-12.566,28.679
		c-7.312,7.477-17.272,12.374-28.403,13.187c-22.254,1.626-42.24-13.588-46.61-35.468l-6.659-33.344L158.727,117.238z"/>
</g>
<g>
	<path style="fill:#E0AB0A;" d="M117.916,192.879c0.408-0.048,0.813-0.107,1.218-0.167c0.192-0.028,0.385-0.053,0.577-0.083
		c0.526-0.084,1.049-0.178,1.569-0.28c0.051-0.01,0.101-0.019,0.152-0.029c0.568-0.114,1.133-0.237,1.694-0.372
		c-16.687-4.285-30.217-19.465-33.718-39.561l-5.174-29.707l-21.485,1.569l0,0l0,0l6.659,33.344
		c3.807,19.064,19.471,33.061,38.157,35.275c1.421,0.168,2.858,0.273,4.31,0.302c1.37,0.028,2.751-0.008,4.142-0.11
		C116.654,193.015,117.287,192.952,117.916,192.879z"/>
	<path style="fill:#E0AB0A;" d="M51.378,67.038c0.024,0.285,0.063,0.571,0.12,0.859l6.565,32.881l22.075-1.613l-2.073-11.906
		l-5.126-29.437l-4.089,0.299l-10.496,0.767c-0.849,0.062-1.652,0.261-2.39,0.573c-0.246,0.104-0.485,0.22-0.716,0.348
		C52.711,61.212,51.124,64.016,51.378,67.038z"/>
</g>
<path style="fill:#44C2A7;" d="M378.934,323.979l43.834-19.751c13.515-6.09,29.412-0.07,35.502,13.446
	c6.091,13.517,0.07,29.413-13.446,35.502l-47.226,21.279L378.934,323.979z"/>
<path style="fill:#1F967E;" d="M444.824,333.176l-47.226,21.279l-12.324-33.332l-6.34,2.856l18.663,50.478l47.226-21.279
	c13.177-5.937,19.225-21.191,13.877-34.478C456.208,324.912,451.409,330.208,444.824,333.176z"/>
<path style="fill:#44C2A7;" d="M177.285,323.979l-43.834-19.751c-13.515-6.09-29.412-0.07-35.502,13.446
	c-6.091,13.517-0.07,29.413,13.446,35.502l47.226,21.279L177.285,323.979z"/>
<path style="fill:#1F967E;" d="M158.623,354.455l-47.226-21.279c-6.585-2.966-11.384-8.264-13.877-14.476
	c-5.347,13.286,0.7,28.542,13.877,34.478l47.226,21.279l18.663-50.478l-6.34-2.856L158.623,354.455z"/>
<circle style="fill:#EEEEEC;" cx="278.113" cy="370.592" r="133.922"/>
<path style="fill:#D4D3D3;" d="M184.188,370.596c0-67.167,49.446-122.781,113.923-132.437c-6.526-0.977-13.204-1.488-20.002-1.488
	c-73.965,0-133.925,59.96-133.925,133.925s59.96,133.925,133.925,133.925c6.798,0,13.476-0.51,20.002-1.488
	C233.635,493.377,184.188,437.763,184.188,370.596z"/>
<path style="fill:#D13834;" d="M400.53,274.48l-35.35-35.144l-38.553,38.778l35.349,35.144c3.395,3.375,8.883,3.359,12.258-0.036
	l26.331-26.485C403.941,283.343,403.925,277.856,400.53,274.48z"/>
<path style="fill:#E95552;" d="M357.247,194.108c30.041,26.014,35.992,107.886-79.136,107.886s-109.177-81.871-79.136-107.886
	L357.247,194.108L357.247,194.108z"/>
<path style="fill:#D13834;" d="M228.976,194.108h-30.002c-23.454,20.311-32.222,74.667,19.849,97.528
	C202.659,257.504,211.935,213.81,228.976,194.108z"/>
<circle style="fill:#EEEEEC;" cx="278.113" cy="168.654" r="83.117"/>
<path style="fill:#D4D3D3;" d="M214.999,158.393c0-23.252,7.568-44.516,20.084-60.86c-24.028,14.568-40.086,40.969-40.086,71.12
	c0,45.902,37.211,83.113,83.113,83.113c3.461,0,6.866-0.237,10.216-0.647C247.037,245.676,214.999,206.241,214.999,158.393z"/>
<g>
	<circle style="fill:#424342;" cx="278.113" cy="339.849" r="15.367"/>
	<circle style="fill:#424342;" cx="278.113" cy="392.584" r="15.367"/>
	<circle style="fill:#424342;" cx="278.113" cy="445.319" r="15.367"/>
</g>
<g>
	<circle style="fill:#E95552;" cx="278.113" cy="168.654" r="17.725"/>
	<path style="fill:#E95552;" d="M211.889,85.539c0-50.678,122.615-114.308,179.618-52.666v16.57
		c-39.107-8.617-47.176,36.095-47.176,36.095l-66.223,16.443L211.889,85.539z"/>
</g>
<circle style="fill:#E3F0FB;" cx="391.504" cy="41.822" r="23.202"/>
<path style="fill:#CAD6DF;" d="M401.508,55.02c-12.812,0-23.199-10.386-23.199-23.199c0-3.829,0.933-7.439,2.576-10.621
	c-7.468,3.854-12.577,11.639-12.577,20.622c0,12.812,10.386,23.199,23.199,23.199c8.983,0,16.768-5.109,20.622-12.577
	C408.947,54.086,405.338,55.02,401.508,55.02z"/>
<rect x="211.887" y="85.536" style="fill:#44C2A7;" width="132.442" height="32.888"/>
<rect x="211.887" y="85.536" style="fill:#1F967E;" width="20.002" height="32.888"/>
<path d="M278.149,362.694c12.609,0,22.868-10.259,22.868-22.868c0-12.609-10.258-22.868-22.868-22.868s-22.868,10.258-22.868,22.868
	C255.281,352.436,265.54,362.694,278.149,362.694z M278.149,331.96c4.337,0,7.867,3.528,7.867,7.867
	c0,4.338-3.528,7.867-7.867,7.867s-7.867-3.529-7.867-7.867C270.283,335.489,273.812,331.96,278.149,331.96z"/>
<path d="M278.149,415.43c12.609,0,22.868-10.259,22.868-22.868s-10.258-22.868-22.868-22.868s-22.868,10.258-22.868,22.868
	S265.54,415.43,278.149,415.43z M278.149,384.695c4.337,0,7.867,3.528,7.867,7.867s-3.528,7.867-7.867,7.867
	s-7.867-3.529-7.867-7.867S273.812,384.695,278.149,384.695z"/>
<path d="M278.149,468.166c12.609,0,22.868-10.259,22.868-22.868s-10.258-22.868-22.868-22.868s-22.868,10.258-22.868,22.868
	S265.54,468.166,278.149,468.166z M278.149,437.431c4.337,0,7.867,3.528,7.867,7.867s-3.528,7.867-7.867,7.867
	s-7.867-3.529-7.867-7.867S273.812,437.431,278.149,437.431z"/>
<path d="M278.149,193.855c13.909,0,25.225-11.316,25.225-25.225s-11.316-25.225-25.225-25.225s-25.225,11.316-25.225,25.225
	S264.24,193.855,278.149,193.855z M278.149,158.405c5.638,0,10.224,4.586,10.224,10.224s-4.586,10.224-10.224,10.224
	s-10.224-4.586-10.224-10.224S272.512,158.405,278.149,158.405z"/>
<path d="M306.275,198.587c-3.397-2.37-8.073-1.536-10.443,1.862c-3.529,5.061-10.305,8.205-17.682,8.205
	c-7.379,0-14.155-3.145-17.685-8.208c-2.369-3.397-7.044-4.233-10.442-1.864s-4.232,7.045-1.864,10.443
	c6.386,9.161,17.598,14.63,29.991,14.63c12.39,0,23.6-5.467,29.986-14.625C310.506,205.631,309.672,200.956,306.275,198.587z"/>
<circle cx="240.26" cy="149.672" r="10.439"/>
<circle cx="316.037" cy="149.672" r="10.439"/>
<path d="M169.198,60.209c0.21-4.101-1.291-8.16-4.118-11.136c-3.082-3.244-7.476-4.978-12.01-4.646l-95.223,6.957
	c-4.303,0.314-8.271,2.464-10.883,5.898s-3.625,7.83-2.781,12.06l17.908,89.698c3.694,18.498,17.108,33.094,34.243,38.897
	l7.447,101.941c-5.428,3.521-9.868,8.567-12.629,14.693c-3.768,8.365-4.054,17.696-0.805,26.274
	c3.249,8.58,9.646,15.379,18.009,19.148l28.399,12.795c1.189,76.964,64.156,139.211,141.398,139.211s140.209-62.247,141.398-139.211
	c0,0,28.389-12.791,28.398-12.795c17.045-7.681,24.89-28.363,17.204-45.422c-7.661-17.004-28.427-24.86-45.422-17.203l-16.409,7.394
	c-1.153-2.188-2.358-4.351-3.63-6.484c0,0,6.234-6.27,6.238-6.274c6.217-6.253,6.181-16.655-0.067-22.865l-23.076-22.943
	c2.812-21.275-5.404-42.016-17.037-54.355c1.965-7.412,3.018-15.19,3.018-23.211c0-19.082-5.841-37.222-16.892-52.651V86.297
	c0.693-3.053,4.605-18.177,15.296-25.869c5.616,7.332,14.452,12.072,24.379,12.072c16.928,0,30.7-13.772,30.7-30.7
	s-13.772-30.7-30.7-30.7c-4.18,0-8.168,0.843-11.803,2.363c-39.023-24.271-90.575-11.837-123.647,6.758
	c-3.611,2.03-4.892,6.604-2.862,10.214s6.604,4.891,10.214,2.862c42.995-24.174,80.711-21.055,103.426-9.793
	c-1.161,1.56-2.147,3.235-2.987,4.983c-2.657,5.528-3.558,11.755-2.705,17.82c0.004,0.031,0.006,0.063,0.011,0.094
	c-13.646,8.159-20.005,23.163-22.623,31.615H220.536c2.585-9.15,9.612-19.226,20.137-28.628c3.089-2.76,3.356-7.502,0.597-10.591
	c-2.759-3.089-7.502-3.357-10.591-0.597c-16.928,15.121-26.25,31.925-26.25,47.316v30.461
	c-11.052,15.428-16.893,33.57-16.893,52.653c0,8.021,1.053,15.799,3.018,23.211c-14.119,14.978-23.219,42.34-13.653,67.999
	c1.062,2.85,2.341,5.604,3.816,8.256c-11.286,10.733-20.619,23.136-27.736,36.666l-8.979-4.045l-7.721-105.682
	c4.981-2.533,9.563-5.87,13.536-9.934c8.837-9.026,14.056-20.939,14.697-33.541L169.198,60.209z M407.246,41.799
	c0,8.656-7.043,15.698-15.698,15.698c-8.434,0-15.698-7.248-15.698-15.698c0-8.527,7.182-15.697,15.698-15.697
	C400.203,26.1,407.246,33.143,407.246,41.799z M67.12,107.616l84.945-6.206l-0.451,8.806l-73.292,5.354l-9.477,0.692L67.12,107.616z
	 M154.216,59.441l-1.377,26.871l-8.633,0.631L64.172,92.79l-5.233-26.445L154.216,59.441z M409.607,318.381l16.282-7.337
	c9.614-4.331,21.253,0.082,25.581,9.689c4.337,9.626-0.088,21.257-9.689,25.582l-22.905,10.321
	c-0.004-0.038-0.009-0.075-0.013-0.113c-1.314-12.734-4.315-25.495-9.022-37.519C409.761,318.797,409.689,318.587,409.607,318.381z
	 M395.626,280.601c0.001,0.221-0.058,0.543-0.339,0.826l-26.331,26.484c-0.443,0.449-1.203,0.453-1.65,0.005l-15.489-15.399
	c14.168-8.792,22.059-19.643,26.4-29.708l17.066,16.968C395.565,280.059,395.626,280.381,395.626,280.601z M336.871,93.016v17.887
	H219.43V93.016H336.871z M215.769,125.905h124.762c8.668,12.604,13.231,27.299,13.231,42.725c0,37.753-27.813,69.13-64.023,74.724
	c-3.832,0.592-7.712,0.889-11.589,0.889c-3.872,0-7.762-0.306-11.589-0.889c-36.211-5.594-64.023-36.971-64.023-74.724
	C202.538,153.205,207.101,138.509,215.769,125.905z M196.636,208.259c12.909,26.675,37.987,45.233,67.201,49.85
	c9.487,1.499,19.137,1.472,28.625,0c29.214-4.617,54.292-23.175,67.201-49.85c6.818,10.461,10.574,25.204,7.65,39.443
	c-0.789,3.823-2.06,7.554-3.772,11.063c-15.48,31.735-58.466,36.229-89.471,35.667c-30.547-0.554-70.923-7.142-83.111-39.832
	C184.911,238.381,188.708,220.424,196.636,208.259z M189.608,280.348c4.853,5.253,10.462,9.603,16.566,13.194
	c20.832,12.26,45.497,15.625,69.294,15.911c20.732,0.249,41.982-1.828,61.403-9.507c0.272-0.107,0.552-0.208,0.822-0.317
	c0,0,19.019,18.909,19.036,18.926c6.23,6.194,16.669,6.164,22.866-0.067l9.144-9.197c10.362,18.642,15.836,39.96,15.836,61.28
	c0,69.711-56.713,126.424-126.424,126.424s-126.424-56.713-126.424-126.424C151.725,337.05,165.536,303.975,189.608,280.348z
	 M137.76,353.583c-0.121,1.015-0.25,2.031-0.35,3.048c0,0-22.881-10.31-22.893-10.315c-9.607-4.328-14.021-15.966-9.69-25.581
	c3.058-6.789,10.215-11.401,17.66-11.401c4.179,0,7.518,1.761,11.288,3.228l12.904,5.815
	C142.171,329.696,139.202,341.477,137.76,353.583z M121.597,199.91l6.937,94.958c-0.11-0.02-3.037-0.43-4.401-0.495
	c-1.897-0.09-3.813-0.027-5.7,0.196l-6.862-93.926c1.674,0.04,3.358,0,5.045-0.124c1.574-0.115,3.252-0.32,4.847-0.589
	C121.508,199.922,121.553,199.917,121.597,199.91z M149.534,150.791c-0.936,18.242-15.814,33.435-34.025,34.767
	c-18.232,1.334-35.13-11.543-38.707-29.457l-4.995-25.013l79.035-5.774C150.841,125.315,149.535,150.781,149.534,150.791z"/>
	</svg>

	<text id="yourText" style="fill:black;font-size:6pt;" x="242" y="342"></text>
</svg>