<?xml version="1.0" encoding="utf-8"?>
<!-- Generator: Adobe Illustrator 19.2.1, SVG Export Plug-In . SVG Version: 6.00 Build 0)  -->
<svg version="1.1" id="backpack" xmlns="http://www.w3.org/2000/svg" xmlns:xlink="http://www.w3.org/1999/xlink" x="0px" y="0px"
	 width="500px" height="500px" viewBox="0 0 500 500" enable-background="new 0 0 500 500" xml:space="preserve">
<g id="background" display="none">
	<rect display="inline" fill="#E6E6E6" width="500" height="500"/>
</g>

<g id="handle">
	<path id="handle-color" fill="#272C40" stroke="#000000" stroke-width="2" stroke-miterlimit="10" d="M268.8,145.7H263v-22.2c0-4.2-3.4-7.6-7.6-7.6
		h-11.3c-4.2,0-7.6,3.4-7.6,7.6v22.2h-5.7v-22.2c0-7.3,6-13.3,13.3-13.3h11.3c7.3,0,13.3,6,13.3,13.3L268.8,145.7L268.8,145.7
		L268.8,145.7z"/>
</g>
<g id="base">
	<path id="base-color" fill="#272C40" stroke="#000000" stroke-width="3" stroke-miterlimit="10" d="M311.3,386.4H188.6c-8.3,0-15-6.8-15-15V142.2
		c0-8.3,6.8-15,15-15h122.7c8.3,0,15,6.8,15,15v229.2C326.3,379.6,319.6,386.4,311.3,386.4z"/>
</g>
<g id="cover-shadow">
	<path opacity="0.125" enable-background="new    " d="M280.3,248.8c-30.2,0-30.5,0-60.7,0c-32.4,0-50-29.8-50-39.1s3-62.1,3-62.1
		c0-8.3,6.8-15,15-15h124.7c8.3,0,14.6,6.8,15,15c0.5,9.3,3,52.8,3,62.1C330.3,219,312.3,248.8,280.3,248.8z"/>
</g>
<g id="cover">
	<path id="cover-color" fill="#272C40" stroke="#000000" stroke-width="3" stroke-miterlimit="10" d="M280.3,243.5c-30.2,0-30.5,0-60.7,0
		c-32.4,0-50-29.8-50-39.1c0-9.3,3-62.1,3-62.1c0-8.3,6.8-15,15-15h124.7c8.3,0,14.6,6.8,15,15c0.5,9.3,3,52.8,3,62.1
		C330.3,213.7,312.3,243.5,280.3,243.5z"/>
</g>
<g id="pocket-base">
	<path id="pocket-base-color" fill="#394054" stroke="#000000" stroke-width="2" stroke-miterlimit="10" d="M312.3,276.2h-125v80.3
		c0,8.8,7.5,15.9,16.2,15.9h93c8.8,0,15.8-7.1,15.8-15.9v-64.4C312.3,283.4,312.3,284.9,312.3,276.2L312.3,276.2z"/>
</g>
<g id="zipper">
	<path fill="#FFFFFF" stroke="#000000" stroke-miterlimit="10" d="M200.9,305.3c-2.8,0.4-3.7,11.3-3.6,13.4c0,2,1.6,3.7,3.6,3.8
		c2-0.1,3.6-1.8,3.6-3.8C204.6,316.6,203.6,305.7,200.9,305.3z M200.9,320.2c-1.1,0-2-0.9-1.9-2c0-1.1,0.9-2,2-1.9
		c1.1,0,2,0.9,1.9,2C202.9,319.4,202,320.3,200.9,320.2z"/>
</g>
<g id="pocket-top-shadow" opacity="0.1">
	<path d="M312.5,301.1c0,9-7.1,16.7-16.1,16.7h-92.3c-9,0-16.6-7.6-16.6-16.7v-19.9h124.9L312.5,301.1L312.5,301.1L312.5,301.1z"/>
</g>
<g id="pocket-top">
	<path id="pocket" fill="#4D556B" stroke="#000000" stroke-width="2" stroke-miterlimit="10" d="M312.5,296.1
		c0,9-7.1,16.7-16.1,16.7h-92.3c-9,0-16.6-7.6-16.6-16.7v-19.9h124.9L312.5,296.1L312.5,296.1L312.5,296.1z"/>
</g>
<g id="logo">
	<path fill="#FFFFFF" stroke="#000000" stroke-miterlimit="10" d="M238.3,332h23.2v17.2h-23.2V332z"/>
	<path fill="#FFFFFF" stroke="#000000" stroke-miterlimit="10" d="M240.9,334.5h18v12.3h-18V334.5z"/>
</g>
<g>
	<defs>
		<rect id="SVGID_1_" y="125.7" width="500" height="278.3"/>
	</defs>
	<clipPath id="SVGID_2_">
		<use xlink:href="#SVGID_1_"  overflow="visible"/>
	</clipPath>
	<g id="strap-right" clip-path="url(#SVGID_2_)">
		<path fill="#93481F" stroke="#000000" stroke-width="1.5" stroke-miterlimit="10" d="M284.7,125.7h-7.5c-1.7,0-3,1.3-3,3v1.7v4.8
			v1v2.2v220.9v5.7v7c0,1.7,1.3,3,3,3h7.5c1.7,0,3-1.3,3-3v-7v-5.7V138.4v-2.2v-1v-4.8v-1.7C287.7,127.1,286.3,125.7,284.7,125.7z"
			/>
		<ellipse fill="#93481F" stroke="#000000" stroke-miterlimit="10" cx="280.8" cy="323.8" rx="1.5" ry="1.5"/>
		<ellipse fill="#93481F" stroke="#000000" stroke-miterlimit="10" cx="280.8" cy="333.5" rx="1.5" ry="1.5"/>
		<ellipse fill="#93481F" stroke="#000000" stroke-miterlimit="10" cx="280.8" cy="314.1" rx="1.5" ry="1.5"/>
		<ellipse fill="#93481F" stroke="#000000" stroke-miterlimit="10" cx="280.8" cy="343.3" rx="1.5" ry="1.5"/>
		<ellipse fill="#93481F" stroke="#000000" stroke-miterlimit="10" cx="280.8" cy="252.6" rx="1.5" ry="1.5"/>
		<ellipse fill="#93481F" stroke="#000000" stroke-miterlimit="10" cx="280.8" cy="262.4" rx="1.5" ry="1.5"/>
		<ellipse fill="#93481F" stroke="#000000" stroke-miterlimit="10" cx="280.8" cy="242.8" rx="1.5" ry="1.5"/>
		<ellipse fill="#93481F" stroke="#000000" stroke-miterlimit="10" cx="280.8" cy="272.2" rx="1.5" ry="1.5"/>
		<ellipse fill="#93481F" stroke="#000000" stroke-miterlimit="10" cx="280.8" cy="242.8" rx="1.5" ry="1.5"/>
	</g>
</g>
<g>
	<defs>
		<rect id="SVGID_3_" y="125.7" width="500" height="278.3"/>
	</defs>
	<clipPath id="SVGID_4_">
		<use xlink:href="#SVGID_3_"  overflow="visible"/>
	</clipPath>
	<g id="strap-left" clip-path="url(#SVGID_4_)">
		<path fill="#93481F" stroke="#000000" stroke-width="1.5" stroke-miterlimit="10" d="M222.7,125.7h-7.5c-1.7,0-3,1.3-3,3v1.7v4.8
			v1v2.2v220.9v5.7v7c0,1.7,1.3,3,3,3h7.5c1.7,0,3-1.3,3-3v-7v-5.7V138.4v-2.2v-1v-4.8v-1.7C225.7,127.1,224.3,125.7,222.7,125.7z"
			/>
		<ellipse fill="#93481F" stroke="#000000" stroke-miterlimit="10" cx="218.8" cy="323.8" rx="1.5" ry="1.5"/>
		<ellipse fill="#93481F" stroke="#000000" stroke-miterlimit="10" cx="218.8" cy="333.5" rx="1.5" ry="1.5"/>
		<ellipse fill="#93481F" stroke="#000000" stroke-miterlimit="10" cx="218.8" cy="314.1" rx="1.5" ry="1.5"/>
		<ellipse fill="#93481F" stroke="#000000" stroke-miterlimit="10" cx="218.8" cy="343.3" rx="1.5" ry="1.5"/>
		<ellipse fill="#93481F" stroke="#000000" stroke-miterlimit="10" cx="218.8" cy="252.6" rx="1.5" ry="1.5"/>
		<ellipse fill="#93481F" stroke="#000000" stroke-miterlimit="10" cx="218.8" cy="262.4" rx="1.5" ry="1.5"/>
		<ellipse fill="#93481F" stroke="#000000" stroke-miterlimit="10" cx="218.8" cy="242.8" rx="1.5" ry="1.5"/>
		<ellipse fill="#93481F" stroke="#000000" stroke-miterlimit="10" cx="218.8" cy="272.2" rx="1.5" ry="1.5"/>
		<ellipse fill="#93481F" stroke="#000000" stroke-miterlimit="10" cx="218.8" cy="242.8" rx="1.5" ry="1.5"/>
	</g>
</g>
<g id="strap-holder-right">
	<path fill="#B5683C" stroke="#000000" stroke-miterlimit="10" d="M293.2,209.1c0,0.9-0.7,1.6-1.6,1.6h-21.4c-0.9,0-1.6-0.7-1.6-1.6
		v-1.8c0-0.9,0.7-1.6,1.6-1.6h21.4c0.9,0,1.6,0.7,1.6,1.6V209.1L293.2,209.1z M293.2,292.3c0,0.9-0.7,1.6-1.6,1.6h-21.4
		c-0.9,0-1.6-0.7-1.6-1.6v-1.8c0-0.9,0.7-1.6,1.6-1.6h21.4c0.9,0,1.6,0.7,1.6,1.6V292.3L293.2,292.3z M293.2,151
		c0,0.9-0.7,1.6-1.6,1.6h-21.4c-0.9,0-1.6-0.7-1.6-1.6v-1.8c0-0.9,0.7-1.6,1.6-1.6h21.4c0.9,0,1.6,0.7,1.6,1.6V151L293.2,151z"/>
</g>
<g id="strap-buckle-right">
	<path fill="#FFFFFF" stroke="#000000" stroke-miterlimit="10" d="M280.8,235.9c-7,0-8.1,1.7-8.1,2.7v12.3c0,1,1,2,2,2h12.7
		c1,0,1.5-1,1.5-2v-12.3C289.1,237.6,287.8,235.9,280.8,235.9L280.8,235.9L280.8,235.9z M287.3,249.2c0,0.8-0.6,1.4-1.4,1.4h-9.8
		c-0.8,0-1.4-0.6-1.4-1.4v-7.9c0-0.8,0.6-1.4,1.4-1.4h9.8c0.8,0,1.4,0.6,1.4,1.4V249.2L287.3,249.2z"/>
	<path fill="#FFFFFF" stroke="#000000" stroke-miterlimit="10" d="M280.8,307.9c-7,0-8.1,1.7-8.1,2.7v12.3c0,1,1,2,2,2h12.7
		c1,0,1.5-1,1.5-2v-12.3C289.1,309.6,287.8,307.9,280.8,307.9L280.8,307.9L280.8,307.9z M287.3,321.2c0,0.8-0.6,1.4-1.4,1.4h-9.8
		c-0.8,0-1.4-0.6-1.4-1.4v-7.9c0-0.8,0.6-1.4,1.4-1.4h9.8c0.8,0,1.4,0.6,1.4,1.4V321.2L287.3,321.2z"/>
</g>
<g id="strap-prong-right-btm">
	<path fill="#FFFFFF" stroke="#000000" stroke-miterlimit="10" d="M280.8,309.9c-0.8,0-1.5,0.7-1.5,1.5v1.9c0,0.8,0.7,1.5,1.5,1.5
		s1.5-0.7,1.5-1.5v-1.9C282.3,310.6,281.7,309.9,280.8,309.9z"/>
</g>
<g id="strap-prong-right-top">
	<path fill="#FFFFFF" stroke="#000000" stroke-miterlimit="10" d="M280.8,237.9c-0.8,0-1.5,0.7-1.5,1.5v1.9c0,0.8,0.7,1.5,1.5,1.5
		s1.5-0.7,1.5-1.5v-1.9C282.3,238.6,281.7,237.9,280.8,237.9z"/>
</g>
<g id="strap-holder-left">
	<path fill="#B5683C" stroke="#000000" stroke-miterlimit="10" d="M231.1,209.1c0,0.9-0.7,1.6-1.6,1.6h-21.4c-0.9,0-1.6-0.7-1.6-1.6
		v-1.8c0-0.9,0.7-1.6,1.6-1.6h21.4c0.9,0,1.6,0.7,1.6,1.6V209.1L231.1,209.1z M231.1,292.3c0,0.9-0.7,1.6-1.6,1.6h-21.4
		c-0.9,0-1.6-0.7-1.6-1.6v-1.8c0-0.9,0.7-1.6,1.6-1.6h21.4c0.9,0,1.6,0.7,1.6,1.6V292.3L231.1,292.3z M231.1,151
		c0,0.9-0.7,1.6-1.6,1.6h-21.4c-0.9,0-1.6-0.7-1.6-1.6v-1.8c0-0.9,0.7-1.6,1.6-1.6h21.4c0.9,0,1.6,0.7,1.6,1.6V151L231.1,151z"/>
</g>
<g id="strap-buckle-left">
	<path fill="#FFFFFF" stroke="#000000" stroke-miterlimit="10" d="M218.9,306.9c-7,0-8.1,1.7-8.1,2.7v12.3c0,1,1,2,2,2h12.7
		c1,0,1.5-1,1.5-2v-12.3C227.1,308.6,225.9,306.9,218.9,306.9L218.9,306.9L218.9,306.9z M225.3,320.2c0,0.8-0.6,1.4-1.4,1.4h-9.8
		c-0.8,0-1.4-0.6-1.4-1.4v-7.9c0-0.8,0.6-1.4,1.4-1.4h9.8c0.8,0,1.4,0.6,1.4,1.4V320.2L225.3,320.2z"/>
	<path fill="#FFFFFF" stroke="#000000" stroke-miterlimit="10" d="M218.9,235.9c-7,0-8.1,1.7-8.1,2.7v12.3c0,1,1,2,2,2h12.7
		c1,0,1.5-1,1.5-2v-12.3C227.1,237.6,225.9,235.9,218.9,235.9L218.9,235.9L218.9,235.9z M225.3,249.2c0,0.8-0.6,1.4-1.4,1.4h-9.8
		c-0.8,0-1.4-0.6-1.4-1.4v-7.9c0-0.8,0.6-1.4,1.4-1.4h9.8c0.8,0,1.4,0.6,1.4,1.4V249.2L225.3,249.2z"/>
</g>
<g id="strap-prong-left-btm">
	<path fill="#FFFFFF" stroke="#000000" stroke-miterlimit="10" d="M218.9,309.9c-0.8,0-1.5,0.7-1.5,1.5v1.9c0,0.8,0.7,1.5,1.5,1.5
		s1.5-0.7,1.5-1.5v-1.9C220.4,310.6,219.6,309.9,218.9,309.9z"/>
</g>
<g id="strap-prong-left-top">
	<path fill="#FFFFFF" stroke="#000000" stroke-miterlimit="10" d="M218.9,237.9c-0.8,0-1.5,0.7-1.5,1.5v1.9c0,0.8,0.7,1.5,1.5,1.5
		s1.5-0.7,1.5-1.5v-1.9C220.4,238.6,219.6,237.9,218.9,237.9z"/>
</g>
<svg version="1.1" id="Layer_1" xmlns="http://www.w3.org/2000/svg" xmlns:xlink="http://www.w3.org/1999/xlink" x="256px" y="153px"
	 width="50px" height="50px" viewBox="0 0 512.001 512.001" style="z-index=999 enable-background:new 0 0 512.001 512.001;" xml:space="preserve">
<circle style="fill:#F7B239;" cx="256.004" cy="256.004" r="246.855"/>
<g>
	<path style="fill:#E09B2D;" d="M126.306,385.694c-88.801-88.802-95.798-228.426-20.998-325.242
		C97.023,66.853,89.051,73.85,81.45,81.45c-96.401,96.401-96.401,252.698,0,349.099s252.698,96.401,349.099,0
		c7.599-7.599,14.597-15.573,20.999-23.858C354.733,481.492,215.108,474.494,126.306,385.694z"/>
	<path style="fill:#E09B2D;" d="M287.082,363.982c-1.431,0-2.882-0.337-4.237-1.046c-8.209-4.298-17.494-6.571-26.85-6.571
		c-9.352,0-18.633,2.272-26.841,6.569c-4.474,2.345-10.005,0.616-12.351-3.861c-2.344-4.476-0.615-10.006,3.861-12.349
		c10.817-5.664,23.034-8.658,35.331-8.658c12.299,0,24.52,2.994,35.337,8.658c4.477,2.343,6.206,7.874,3.862,12.349
		C293.561,362.198,290.377,363.982,287.082,363.982z"/>
</g>
<path d="M256.001,0C114.841,0,0,114.841,0,256.001s114.841,256.001,256.001,256.001S512.001,397.16,512.001,256.001
	C512,114.841,397.16,0,256.001,0z M256.001,493.701c-131.069,0-237.702-106.631-237.702-237.7S124.932,18.299,256.001,18.299
	s237.702,106.632,237.702,237.7C493.701,387.07,387.068,493.701,256.001,493.701z"/>
<path d="M257.142,300.395c-37.723,0-73.189,14.69-99.863,41.364c-3.573,3.573-3.573,9.365,0,12.939c3.574,3.573,9.367,3.573,12.94,0
	c23.217-23.218,54.087-36.005,86.923-36.005s63.706,12.787,86.923,36.005c1.787,1.787,4.128,2.68,6.471,2.68
	c2.341,0,4.683-0.893,6.471-2.68c3.573-3.573,3.573-9.365,0-12.939C330.332,315.086,294.865,300.395,257.142,300.395z"/>
<path d="M161.852,136.57c0-5.053-4.095-9.15-9.15-9.15s-9.15,4.097-9.15,9.15c0,26.857-21.849,48.707-48.707,48.707
	c-5.054,0-9.15,4.097-9.15,9.15s4.095,9.15,9.15,9.15C131.792,203.575,161.852,173.517,161.852,136.57z"/>
<path d="M417.155,185.276c-26.858,0-48.707-21.849-48.707-48.707c0-5.053-4.095-9.15-9.15-9.15c-5.054,0-9.15,4.097-9.15,9.15
	c0,36.947,30.059,67.006,67.006,67.006c5.054,0,9.15-4.097,9.15-9.15C426.304,189.372,422.209,185.276,417.155,185.276z"/>
<path d="M180.577,229.983c0-18.666-15.186-33.852-33.852-33.852s-33.852,15.186-33.852,33.852s15.186,33.852,33.852,33.852
	S180.577,248.649,180.577,229.983z"/>
<path d="M365.275,196.131c-18.666,0-33.852,15.186-33.852,33.852s15.186,33.852,33.852,33.852s33.852-15.186,33.852-33.852
	S383.942,196.131,365.275,196.131z"/>
<g>
	<circle style="fill:#FFFFFF;" cx="150.48" cy="225.372" r="9.15"/>
	<circle style="fill:#FFFFFF;" cx="368.849" cy="225.372" r="9.15"/>
</g>
</svg>
</svg>