<?xml version="1.0" encoding="utf-8"?>
<!-- Generator: Adobe Illustrator 19.2.1, SVG Export Plug-In . SVG Version: 6.00 Build 0)  -->
<svg version="1.1" id="backpack" xmlns="http://www.w3.org/2000/svg" xmlns:xlink="http://www.w3.org/1999/xlink" x="0px" y="0px"
	 width="500px" height="500px" viewBox="0 0 500 500" enable-background="new 0 0 500 500" xml:space="preserve">
<g id="background" display="none">
	<rect display="inline" fill="#E6E6E6" width="500" height="500"/>
</g>

<g id="handle">
	<path id="handle-color" fill="#272C40" stroke="#000000" stroke-width="2" stroke-miterlimit="10" d="M268.8,145.7H263v-22.2c0-4.2-3.4-7.6-7.6-7.6
		h-11.3c-4.2,0-7.6,3.4-7.6,7.6v22.2h-5.7v-22.2c0-7.3,6-13.3,13.3-13.3h11.3c7.3,0,13.3,6,13.3,13.3L268.8,145.7L268.8,145.7
		L268.8,145.7z"/>
</g>
<g id="base">
	<path id="base-color" fill="#272C40" stroke="#000000" stroke-width="3" stroke-miterlimit="10" d="M311.3,386.4H188.6c-8.3,0-15-6.8-15-15V142.2
		c0-8.3,6.8-15,15-15h122.7c8.3,0,15,6.8,15,15v229.2C326.3,379.6,319.6,386.4,311.3,386.4z"/>
</g>
<g id="cover-shadow">
	<path opacity="0.125" enable-background="new    " d="M280.3,248.8c-30.2,0-30.5,0-60.7,0c-32.4,0-50-29.8-50-39.1s3-62.1,3-62.1
		c0-8.3,6.8-15,15-15h124.7c8.3,0,14.6,6.8,15,15c0.5,9.3,3,52.8,3,62.1C330.3,219,312.3,248.8,280.3,248.8z"/>
</g>
<g id="cover">
	<path id="cover-color" fill="#272C40" stroke="#000000" stroke-width="3" stroke-miterlimit="10" d="M280.3,243.5c-30.2,0-30.5,0-60.7,0
		c-32.4,0-50-29.8-50-39.1c0-9.3,3-62.1,3-62.1c0-8.3,6.8-15,15-15h124.7c8.3,0,14.6,6.8,15,15c0.5,9.3,3,52.8,3,62.1
		C330.3,213.7,312.3,243.5,280.3,243.5z"/>
</g>
<g id="pocket-base">
	<path id="pocket-base-color" fill="#394054" stroke="#000000" stroke-width="2" stroke-miterlimit="10" d="M312.3,276.2h-125v80.3
		c0,8.8,7.5,15.9,16.2,15.9h93c8.8,0,15.8-7.1,15.8-15.9v-64.4C312.3,283.4,312.3,284.9,312.3,276.2L312.3,276.2z"/>
</g>
<g id="zipper">
	<path fill="#FFFFFF" stroke="#000000" stroke-miterlimit="10" d="M200.9,305.3c-2.8,0.4-3.7,11.3-3.6,13.4c0,2,1.6,3.7,3.6,3.8
		c2-0.1,3.6-1.8,3.6-3.8C204.6,316.6,203.6,305.7,200.9,305.3z M200.9,320.2c-1.1,0-2-0.9-1.9-2c0-1.1,0.9-2,2-1.9
		c1.1,0,2,0.9,1.9,2C202.9,319.4,202,320.3,200.9,320.2z"/>
</g>
<g id="pocket-top-shadow" opacity="0.1">
	<path d="M312.5,301.1c0,9-7.1,16.7-16.1,16.7h-92.3c-9,0-16.6-7.6-16.6-16.7v-19.9h124.9L312.5,301.1L312.5,301.1L312.5,301.1z"/>
</g>
<g id="pocket-top">
	<path id="pocket" fill="#4D556B" stroke="#000000" stroke-width="2" stroke-miterlimit="10" d="M312.5,296.1
		c0,9-7.1,16.7-16.1,16.7h-92.3c-9,0-16.6-7.6-16.6-16.7v-19.9h124.9L312.5,296.1L312.5,296.1L312.5,296.1z"/>
</g>
<g id="logo">
	<path fill="#FFFFFF" stroke="#000000" stroke-miterlimit="10" d="M238.3,332h23.2v17.2h-23.2V332z"/>
	<path fill="#FFFFFF" stroke="#000000" stroke-miterlimit="10" d="M240.9,334.5h18v12.3h-18V334.5z"/>
</g>
<g>
	<defs>
		<rect id="SVGID_1_" y="125.7" width="500" height="278.3"/>
	</defs>
	<clipPath id="SVGID_2_">
		<use xlink:href="#SVGID_1_"  overflow="visible"/>
	</clipPath>
	<g id="strap-right" clip-path="url(#SVGID_2_)">
		<path fill="#93481F" stroke="#000000" stroke-width="1.5" stroke-miterlimit="10" d="M284.7,125.7h-7.5c-1.7,0-3,1.3-3,3v1.7v4.8
			v1v2.2v220.9v5.7v7c0,1.7,1.3,3,3,3h7.5c1.7,0,3-1.3,3-3v-7v-5.7V138.4v-2.2v-1v-4.8v-1.7C287.7,127.1,286.3,125.7,284.7,125.7z"
			/>
		<ellipse fill="#93481F" stroke="#000000" stroke-miterlimit="10" cx="280.8" cy="323.8" rx="1.5" ry="1.5"/>
		<ellipse fill="#93481F" stroke="#000000" stroke-miterlimit="10" cx="280.8" cy="333.5" rx="1.5" ry="1.5"/>
		<ellipse fill="#93481F" stroke="#000000" stroke-miterlimit="10" cx="280.8" cy="314.1" rx="1.5" ry="1.5"/>
		<ellipse fill="#93481F" stroke="#000000" stroke-miterlimit="10" cx="280.8" cy="343.3" rx="1.5" ry="1.5"/>
		<ellipse fill="#93481F" stroke="#000000" stroke-miterlimit="10" cx="280.8" cy="252.6" rx="1.5" ry="1.5"/>
		<ellipse fill="#93481F" stroke="#000000" stroke-miterlimit="10" cx="280.8" cy="262.4" rx="1.5" ry="1.5"/>
		<ellipse fill="#93481F" stroke="#000000" stroke-miterlimit="10" cx="280.8" cy="242.8" rx="1.5" ry="1.5"/>
		<ellipse fill="#93481F" stroke="#000000" stroke-miterlimit="10" cx="280.8" cy="272.2" rx="1.5" ry="1.5"/>
		<ellipse fill="#93481F" stroke="#000000" stroke-miterlimit="10" cx="280.8" cy="242.8" rx="1.5" ry="1.5"/>
	</g>
</g>
<g>
	<defs>
		<rect id="SVGID_3_" y="125.7" width="500" height="278.3"/>
	</defs>
	<clipPath id="SVGID_4_">
		<use xlink:href="#SVGID_3_"  overflow="visible"/>
	</clipPath>
	<g id="strap-left" clip-path="url(#SVGID_4_)">
		<path fill="#93481F" stroke="#000000" stroke-width="1.5" stroke-miterlimit="10" d="M222.7,125.7h-7.5c-1.7,0-3,1.3-3,3v1.7v4.8
			v1v2.2v220.9v5.7v7c0,1.7,1.3,3,3,3h7.5c1.7,0,3-1.3,3-3v-7v-5.7V138.4v-2.2v-1v-4.8v-1.7C225.7,127.1,224.3,125.7,222.7,125.7z"
			/>
		<ellipse fill="#93481F" stroke="#000000" stroke-miterlimit="10" cx="218.8" cy="323.8" rx="1.5" ry="1.5"/>
		<ellipse fill="#93481F" stroke="#000000" stroke-miterlimit="10" cx="218.8" cy="333.5" rx="1.5" ry="1.5"/>
		<ellipse fill="#93481F" stroke="#000000" stroke-miterlimit="10" cx="218.8" cy="314.1" rx="1.5" ry="1.5"/>
		<ellipse fill="#93481F" stroke="#000000" stroke-miterlimit="10" cx="218.8" cy="343.3" rx="1.5" ry="1.5"/>
		<ellipse fill="#93481F" stroke="#000000" stroke-miterlimit="10" cx="218.8" cy="252.6" rx="1.5" ry="1.5"/>
		<ellipse fill="#93481F" stroke="#000000" stroke-miterlimit="10" cx="218.8" cy="262.4" rx="1.5" ry="1.5"/>
		<ellipse fill="#93481F" stroke="#000000" stroke-miterlimit="10" cx="218.8" cy="242.8" rx="1.5" ry="1.5"/>
		<ellipse fill="#93481F" stroke="#000000" stroke-miterlimit="10" cx="218.8" cy="272.2" rx="1.5" ry="1.5"/>
		<ellipse fill="#93481F" stroke="#000000" stroke-miterlimit="10" cx="218.8" cy="242.8" rx="1.5" ry="1.5"/>
	</g>
</g>
<g id="strap-holder-right">
	<path fill="#B5683C" stroke="#000000" stroke-miterlimit="10" d="M293.2,209.1c0,0.9-0.7,1.6-1.6,1.6h-21.4c-0.9,0-1.6-0.7-1.6-1.6
		v-1.8c0-0.9,0.7-1.6,1.6-1.6h21.4c0.9,0,1.6,0.7,1.6,1.6V209.1L293.2,209.1z M293.2,292.3c0,0.9-0.7,1.6-1.6,1.6h-21.4
		c-0.9,0-1.6-0.7-1.6-1.6v-1.8c0-0.9,0.7-1.6,1.6-1.6h21.4c0.9,0,1.6,0.7,1.6,1.6V292.3L293.2,292.3z M293.2,151
		c0,0.9-0.7,1.6-1.6,1.6h-21.4c-0.9,0-1.6-0.7-1.6-1.6v-1.8c0-0.9,0.7-1.6,1.6-1.6h21.4c0.9,0,1.6,0.7,1.6,1.6V151L293.2,151z"/>
</g>
<g id="strap-buckle-right">
	<path fill="#FFFFFF" stroke="#000000" stroke-miterlimit="10" d="M280.8,235.9c-7,0-8.1,1.7-8.1,2.7v12.3c0,1,1,2,2,2h12.7
		c1,0,1.5-1,1.5-2v-12.3C289.1,237.6,287.8,235.9,280.8,235.9L280.8,235.9L280.8,235.9z M287.3,249.2c0,0.8-0.6,1.4-1.4,1.4h-9.8
		c-0.8,0-1.4-0.6-1.4-1.4v-7.9c0-0.8,0.6-1.4,1.4-1.4h9.8c0.8,0,1.4,0.6,1.4,1.4V249.2L287.3,249.2z"/>
	<path fill="#FFFFFF" stroke="#000000" stroke-miterlimit="10" d="M280.8,307.9c-7,0-8.1,1.7-8.1,2.7v12.3c0,1,1,2,2,2h12.7
		c1,0,1.5-1,1.5-2v-12.3C289.1,309.6,287.8,307.9,280.8,307.9L280.8,307.9L280.8,307.9z M287.3,321.2c0,0.8-0.6,1.4-1.4,1.4h-9.8
		c-0.8,0-1.4-0.6-1.4-1.4v-7.9c0-0.8,0.6-1.4,1.4-1.4h9.8c0.8,0,1.4,0.6,1.4,1.4V321.2L287.3,321.2z"/>
</g>
<g id="strap-prong-right-btm">
	<path fill="#FFFFFF" stroke="#000000" stroke-miterlimit="10" d="M280.8,309.9c-0.8,0-1.5,0.7-1.5,1.5v1.9c0,0.8,0.7,1.5,1.5,1.5
		s1.5-0.7,1.5-1.5v-1.9C282.3,310.6,281.7,309.9,280.8,309.9z"/>
</g>
<g id="strap-prong-right-top">
	<path fill="#FFFFFF" stroke="#000000" stroke-miterlimit="10" d="M280.8,237.9c-0.8,0-1.5,0.7-1.5,1.5v1.9c0,0.8,0.7,1.5,1.5,1.5
		s1.5-0.7,1.5-1.5v-1.9C282.3,238.6,281.7,237.9,280.8,237.9z"/>
</g>
<g id="strap-holder-left">
	<path fill="#B5683C" stroke="#000000" stroke-miterlimit="10" d="M231.1,209.1c0,0.9-0.7,1.6-1.6,1.6h-21.4c-0.9,0-1.6-0.7-1.6-1.6
		v-1.8c0-0.9,0.7-1.6,1.6-1.6h21.4c0.9,0,1.6,0.7,1.6,1.6V209.1L231.1,209.1z M231.1,292.3c0,0.9-0.7,1.6-1.6,1.6h-21.4
		c-0.9,0-1.6-0.7-1.6-1.6v-1.8c0-0.9,0.7-1.6,1.6-1.6h21.4c0.9,0,1.6,0.7,1.6,1.6V292.3L231.1,292.3z M231.1,151
		c0,0.9-0.7,1.6-1.6,1.6h-21.4c-0.9,0-1.6-0.7-1.6-1.6v-1.8c0-0.9,0.7-1.6,1.6-1.6h21.4c0.9,0,1.6,0.7,1.6,1.6V151L231.1,151z"/>
</g>
<g id="strap-buckle-left">
	<path fill="#FFFFFF" stroke="#000000" stroke-miterlimit="10" d="M218.9,306.9c-7,0-8.1,1.7-8.1,2.7v12.3c0,1,1,2,2,2h12.7
		c1,0,1.5-1,1.5-2v-12.3C227.1,308.6,225.9,306.9,218.9,306.9L218.9,306.9L218.9,306.9z M225.3,320.2c0,0.8-0.6,1.4-1.4,1.4h-9.8
		c-0.8,0-1.4-0.6-1.4-1.4v-7.9c0-0.8,0.6-1.4,1.4-1.4h9.8c0.8,0,1.4,0.6,1.4,1.4V320.2L225.3,320.2z"/>
	<path fill="#FFFFFF" stroke="#000000" stroke-miterlimit="10" d="M218.9,235.9c-7,0-8.1,1.7-8.1,2.7v12.3c0,1,1,2,2,2h12.7
		c1,0,1.5-1,1.5-2v-12.3C227.1,237.6,225.9,235.9,218.9,235.9L218.9,235.9L218.9,235.9z M225.3,249.2c0,0.8-0.6,1.4-1.4,1.4h-9.8
		c-0.8,0-1.4-0.6-1.4-1.4v-7.9c0-0.8,0.6-1.4,1.4-1.4h9.8c0.8,0,1.4,0.6,1.4,1.4V249.2L225.3,249.2z"/>
</g>
<g id="strap-prong-left-btm">
	<path fill="#FFFFFF" stroke="#000000" stroke-miterlimit="10" d="M218.9,309.9c-0.8,0-1.5,0.7-1.5,1.5v1.9c0,0.8,0.7,1.5,1.5,1.5
		s1.5-0.7,1.5-1.5v-1.9C220.4,310.6,219.6,309.9,218.9,309.9z"/>
</g>
<g id="strap-prong-left-top">
	<path fill="#FFFFFF" stroke="#000000" stroke-miterlimit="10" d="M218.9,237.9c-0.8,0-1.5,0.7-1.5,1.5v1.9c0,0.8,0.7,1.5,1.5,1.5
		s1.5-0.7,1.5-1.5v-1.9C220.4,238.6,219.6,237.9,218.9,237.9z"/>
</g>
<svg id="sad" version="1.1"  xmlns="http://www.w3.org/2000/svg" xmlns:xlink="http://www.w3.org/1999/xlink" x="256px" y="153px"
	 width="50px" height="50px" viewBox="0 0 512.001 512.001" style="display: none; enable-background:new 0 0 512.001 512.001;" xml:space="preserve">
<circle style="fill:#F7B239;" cx="256.004" cy="256.004" r="246.855"/>
<g>
	<path style="fill:#E09B2D;" d="M126.306,385.694c-88.801-88.802-95.798-228.426-20.998-325.242
		C97.023,66.853,89.051,73.85,81.45,81.45c-96.401,96.401-96.401,252.698,0,349.099s252.698,96.401,349.099,0
		c7.599-7.599,14.597-15.573,20.999-23.858C354.733,481.492,215.108,474.494,126.306,385.694z"/>
	<path style="fill:#E09B2D;" d="M287.082,363.982c-1.431,0-2.882-0.337-4.237-1.046c-8.209-4.298-17.494-6.571-26.85-6.571
		c-9.352,0-18.633,2.272-26.841,6.569c-4.474,2.345-10.005,0.616-12.351-3.861c-2.344-4.476-0.615-10.006,3.861-12.349
		c10.817-5.664,23.034-8.658,35.331-8.658c12.299,0,24.52,2.994,35.337,8.658c4.477,2.343,6.206,7.874,3.862,12.349
		C293.561,362.198,290.377,363.982,287.082,363.982z"/>
</g>
<path d="M256.001,0C114.841,0,0,114.841,0,256.001s114.841,256.001,256.001,256.001S512.001,397.16,512.001,256.001
	C512,114.841,397.16,0,256.001,0z M256.001,493.701c-131.069,0-237.702-106.631-237.702-237.7S124.932,18.299,256.001,18.299
	s237.702,106.632,237.702,237.7C493.701,387.07,387.068,493.701,256.001,493.701z"/>
<path d="M257.142,300.395c-37.723,0-73.189,14.69-99.863,41.364c-3.573,3.573-3.573,9.365,0,12.939c3.574,3.573,9.367,3.573,12.94,0
	c23.217-23.218,54.087-36.005,86.923-36.005s63.706,12.787,86.923,36.005c1.787,1.787,4.128,2.68,6.471,2.68
	c2.341,0,4.683-0.893,6.471-2.68c3.573-3.573,3.573-9.365,0-12.939C330.332,315.086,294.865,300.395,257.142,300.395z"/>
<path d="M161.852,136.57c0-5.053-4.095-9.15-9.15-9.15s-9.15,4.097-9.15,9.15c0,26.857-21.849,48.707-48.707,48.707
	c-5.054,0-9.15,4.097-9.15,9.15s4.095,9.15,9.15,9.15C131.792,203.575,161.852,173.517,161.852,136.57z"/>
<path d="M417.155,185.276c-26.858,0-48.707-21.849-48.707-48.707c0-5.053-4.095-9.15-9.15-9.15c-5.054,0-9.15,4.097-9.15,9.15
	c0,36.947,30.059,67.006,67.006,67.006c5.054,0,9.15-4.097,9.15-9.15C426.304,189.372,422.209,185.276,417.155,185.276z"/>
<path d="M180.577,229.983c0-18.666-15.186-33.852-33.852-33.852s-33.852,15.186-33.852,33.852s15.186,33.852,33.852,33.852
	S180.577,248.649,180.577,229.983z"/>
<path d="M365.275,196.131c-18.666,0-33.852,15.186-33.852,33.852s15.186,33.852,33.852,33.852s33.852-15.186,33.852-33.852
	S383.942,196.131,365.275,196.131z"/>
<g>
	<circle style="fill:#FFFFFF;" cx="150.48" cy="225.372" r="9.15"/>
	<circle style="fill:#FFFFFF;" cx="368.849" cy="225.372" r="9.15"/>
</g>
</svg>

<svg id="happy" version="1.1"  xmlns="http://www.w3.org/2000/svg" x="256px" y="153px"
	 width="50px" height="50px"  xmlns:xlink="http://www.w3.org/1999/xlink"
	 viewBox="0 0 512 512" style="display: none; enable-background:new 0 0 512 512;" xml:space="preserve">
<circle style="fill:#F7B239;" cx="256.004" cy="256.004" r="246.855"/>
<path style="fill:#E09B2D;" d="M126.306,385.694c-88.801-88.802-95.798-228.426-20.998-325.242
	C97.023,66.853,89.051,73.85,81.45,81.45c-96.401,96.401-96.401,252.698,0,349.099s252.698,96.401,349.099,0
	c7.599-7.599,14.597-15.573,20.999-23.858C354.733,481.492,215.108,474.494,126.306,385.694z"/>
<path style="fill:#FFFFFF;" d="M373.277,215.314v42.759c-64.767,64.767-169.779,64.767-234.558,0v-42.759
	C203.498,280.093,308.51,280.093,373.277,215.314z"/>
<path style="fill:#F95428;" d="M285.844,336.845c19.031,0,35.573,10.626,44.028,26.265c-20.166,16.384-45.87,26.192-73.867,26.192
	c-27.998,0-53.702-9.808-73.867-26.192c8.442-15.64,24.997-26.265,44.015-26.265c11.187,0,21.52,3.672,29.852,9.882
	C264.336,340.517,274.657,336.845,285.844,336.845z"/>
<path style="fill:#A81004;" d="M373.277,258.073v13.956c0,32.389-13.127,61.705-34.354,82.919c-2.867,2.879-5.892,5.6-9.052,8.161
	c-8.454-15.64-24.997-26.265-44.028-26.265c-11.187,0-21.508,3.672-29.84,9.882c-8.332-6.209-18.665-9.882-29.852-9.882
	c-19.019,0-35.573,10.626-44.015,26.265c-26.497-21.483-43.418-54.312-43.418-91.081v-13.956
	C203.498,322.84,308.51,322.84,373.277,258.073z"/>
<path d="M171.704,184.358c0,5.053,4.097,9.15,9.15,9.15c5.053,0,9.15-4.097,9.15-9.15c0-31.956-25.998-57.954-57.954-57.954
	s-57.954,25.998-57.954,57.954c0,5.053,4.097,9.15,9.15,9.15s9.15-4.097,9.15-9.15c0-21.866,17.789-39.655,39.655-39.655
	S171.704,162.493,171.704,184.358z"/>
<path d="M379.951,126.405c-31.956,0-57.954,25.998-57.954,57.954c0,5.053,4.097,9.15,9.15,9.15c5.053,0,9.15-4.097,9.15-9.15
	c0-21.866,17.789-39.655,39.655-39.655s39.655,17.789,39.655,39.655c0,5.053,4.097,9.15,9.15,9.15s9.15-4.097,9.15-9.15
	C437.906,152.403,411.908,126.405,379.951,126.405z"/>
<path d="M376.777,206.86c-3.417-1.415-7.355-0.633-9.971,1.984c-29.596,29.602-68.947,45.904-110.805,45.904
	s-81.211-16.302-110.813-45.904c-2.617-2.618-6.552-3.399-9.971-1.984c-3.419,1.416-5.648,4.753-5.648,8.453v56.715
	c0,38.283,17.06,74.071,46.797,98.182c22.415,18.211,50.698,28.24,79.638,28.24c28.941,0,57.223-10.029,79.629-28.234
	c3.438-2.788,6.727-5.753,9.758-8.797c23.883-23.868,37.035-55.615,37.035-89.391v-56.715
	C382.427,211.613,380.197,208.277,376.777,206.86z M256.002,273.048c39.719,0,77.414-13.141,108.124-37.372v18.541
	c-60.387,57.607-155.859,57.607-216.259,0v-18.542C178.583,259.903,216.284,273.048,256.002,273.048z M194.55,360.969
	c7.676-9.378,19.207-14.976,31.601-14.976c8.87,0,17.302,2.79,24.385,8.069c3.244,2.417,7.69,2.417,10.934,0
	c7.083-5.279,15.51-8.069,24.373-8.069c12.393,0,23.928,5.598,31.611,14.978c-17.962,12.409-39.478,19.18-61.451,19.18
	C234.033,380.153,212.517,373.382,194.55,360.969z M332.44,348.493c-0.279,0.282-0.572,0.557-0.856,0.837
	c-11.12-13.555-27.812-21.634-45.739-21.634c-10.623,0-20.819,2.772-29.84,8.066c-9.023-5.295-19.223-8.066-29.852-8.066
	c-17.933,0-34.626,8.082-45.737,21.641c-19.246-18.765-30.744-43.854-32.348-70.78c31.57,24.767,69.75,37.159,107.935,37.159
	c38.177,0,76.347-12.388,107.91-37.145C362.345,304.993,351.328,329.615,332.44,348.493z"/>
<path d="M255.999,0C114.841,0,0,114.841,0,256.001S114.841,512,255.999,512C397.159,512,512,397.159,512,256.001
	C512,114.841,397.159,0,255.999,0z M255.999,493.701c-131.068,0-237.7-106.632-237.7-237.7c0-131.069,106.632-237.702,237.7-237.702
	c131.069,0,237.702,106.632,237.702,237.702C493.701,387.068,387.068,493.701,255.999,493.701z"/>
<g>
</g>
</svg>

<svg id="kiss" version="1.1"  xmlns="http://www.w3.org/2000/svg" x="256px" y="153px"
	 width="50px" height="50px"  xmlns:xlink="http://www.w3.org/1999/xlink"
	 viewBox="0 0 512 512" style="display: none; enable-background:new 0 0 512 512;" xml:space="preserve">
<circle style="fill:#F7B239;" cx="256.004" cy="256.004" r="246.855"/>
<path style="fill:#E09B2D;" d="M126.308,385.694c-88.802-88.802-95.799-228.426-20.999-325.241
	c-8.286,6.401-16.258,13.399-23.858,20.999c-96.401,96.401-96.401,252.698,0,349.099s252.698,96.401,349.099,0
	c7.599-7.599,14.597-15.573,20.999-23.858C354.734,481.492,215.108,474.495,126.308,385.694z"/>
<path d="M255.999,512C114.841,512,0,397.16,0,256.001S114.841,0,255.999,0C397.159,0,512,114.841,512,256.001
	S397.159,512,255.999,512z M255.999,18.299c-131.068,0-237.7,106.632-237.7,237.702s106.632,237.702,237.7,237.702
	c131.069,0,237.702-106.632,237.702-237.702S387.068,18.299,255.999,18.299z"/>
<path d="M198.66,242.515c-3.114,0-6.151-1.591-7.864-4.458c-8.265-13.834-22.821-22.094-38.937-22.094s-30.672,8.26-38.937,22.094
	c-2.591,4.338-8.207,5.754-12.547,3.162c-4.338-2.592-5.753-8.209-3.162-12.547c11.6-19.417,32.028-31.007,54.646-31.007
	s43.046,11.592,54.646,31.007c2.592,4.338,1.176,9.956-3.162,12.547C201.873,242.097,200.255,242.515,198.66,242.515z"/>
<path d="M406.941,242.515c-3.115,0-6.151-1.591-7.864-4.458c-8.265-13.834-22.821-22.094-38.937-22.094s-30.672,8.26-38.937,22.094
	c-2.591,4.338-8.208,5.754-12.547,3.162c-4.338-2.592-5.753-8.209-3.162-12.547c11.6-19.417,32.028-31.007,54.646-31.007
	s43.046,11.592,54.646,31.007c2.592,4.338,1.176,9.956-3.162,12.547C410.156,242.097,408.538,242.515,406.941,242.515z"/>
<path d="M273.097,397.082c-5.053,0-9.15-4.097-9.15-9.15s4.097-9.15,9.15-9.15c10.646,0,19.307-8.66,19.307-19.306
	s-8.66-19.307-19.307-19.307c-5.053,0-9.15-4.097-9.15-9.15c0-5.053,4.097-9.15,9.15-9.15c10.646,0,19.307-8.662,19.307-19.307
	c0-10.645-8.66-19.306-19.307-19.306c-5.053,0-9.15-4.097-9.15-9.15s4.097-9.15,9.15-9.15c20.737,0,37.606,16.869,37.606,37.605
	c0,11.358-5.06,21.555-13.046,28.456c7.986,6.901,13.046,17.099,13.046,28.456C310.701,380.212,293.832,397.082,273.097,397.082z"/>
<path style="fill:#F95428;" d="M404.052,287.332L404.052,287.332c-9.761-18.693-32.826-25.935-51.519-16.174l0,0
	c-18.693,9.761-25.935,32.826-16.174,51.519l0,0l35.345,67.693l67.693-35.345l0,0c18.693-9.761,25.935-32.826,16.174-51.519l0,0
	C445.811,284.813,422.746,277.572,404.052,287.332L404.052,287.332z"/>
<path d="M371.705,399.52c-0.921,0-1.846-0.139-2.741-0.42c-2.314-0.727-4.247-2.344-5.37-4.495l-35.345-67.693
	c-12.08-23.134-3.085-51.784,20.05-63.865c20.594-10.751,45.557-4.805,59.315,12.947c21.434-6.707,45.317,2.681,56.07,23.278
	c12.079,23.135,3.085,51.784-20.05,63.865l-67.694,35.345C374.619,399.17,373.165,399.52,371.705,399.52z M370.158,275.976
	c-4.524,0-9.109,1.059-13.39,3.294c-14.19,7.41-19.708,24.983-12.298,39.173l31.11,59.583l59.583-31.111
	c14.19-7.41,19.707-24.983,12.298-39.173c-7.41-14.192-24.983-19.708-39.173-12.298c-4.48,2.339-10.006,0.604-12.346-3.876
	C390.766,281.656,380.633,275.976,370.158,275.976z"/>
<g>
</g>
</svg>

<svg id="laughing" version="1.1"  xmlns="http://www.w3.org/2000/svg" x="256px" y="153px"
	 width="50px" height="50px"  xmlns:xlink="http://www.w3.org/1999/xlink"
	 viewBox="0 0 512 512" style="display: none; enable-background:new 0 0 512 512;" xml:space="preserve">
<circle style="fill:#F7B239;" cx="255.996" cy="256.006" r="218.495"/>
<path style="fill:#E09B2D;" d="M141.207,370.794c-78.6-78.6-84.793-202.183-18.586-287.875c-7.334,5.666-14.39,11.859-21.117,18.586
	c-85.326,85.326-85.326,223.667,0,308.993s223.667,85.326,308.993,0c6.726-6.726,12.92-13.783,18.586-21.117
	C343.39,455.588,219.807,449.394,141.207,370.794z"/>
<path style="fill:#FFFFFF;" d="M359.803,219.989v37.847c-57.326,57.326-150.274,57.326-207.61,0v-37.847
	C209.529,277.326,302.477,277.326,359.803,219.989z"/>
<path style="fill:#F95428;" d="M282.415,327.557c16.845,0,31.487,9.405,38.969,23.248c-17.849,14.502-40.6,23.183-65.381,23.183
	c-24.781,0-47.532-8.681-65.381-23.183c7.472-13.843,22.125-23.248,38.959-23.248c9.902,0,19.047,3.25,26.422,8.746
	C263.378,330.808,272.513,327.557,282.415,327.557z"/>
<path style="fill:#A81004;" d="M359.803,257.836v12.353c0,28.668-11.618,54.616-30.407,73.393c-2.538,2.548-5.215,4.956-8.012,7.224
	c-7.483-13.843-22.125-23.248-38.969-23.248c-9.902,0-19.037,3.25-26.412,8.746c-7.375-5.496-16.521-8.746-26.422-8.746
	c-16.834,0-31.487,9.405-38.959,23.248c-23.453-19.015-38.43-48.072-38.43-80.617v-12.353
	C209.529,315.161,302.477,315.161,359.803,257.836z"/>
<path style="fill:#2BA5F7;" d="M8.098,240.087L8.098,240.087c0-26.232,21.265-47.497,47.497-47.497h47.497v47.497
	c0,26.231-21.265,47.497-47.497,47.497l0,0C29.364,287.584,8.098,266.32,8.098,240.087z"/>
<path style="fill:#2197D8;" d="M30.614,240.087L30.614,240.087c0-26.232,21.265-47.497,47.497-47.497H55.595
	c-26.231,0-47.497,21.265-47.497,47.497l0,0c0,26.232,21.265,47.497,47.497,47.497l0,0c3.881,0,7.648-0.476,11.258-1.354
	C46.057,281.174,30.614,262.439,30.614,240.087z"/>
<path style="fill:#2BA5F7;" d="M503.903,240.087L503.903,240.087c0-26.232-21.265-47.497-47.497-47.497H408.91v47.497
	c0,26.231,21.265,47.497,47.497,47.497l0,0C482.637,287.584,503.903,266.32,503.903,240.087z"/>
<path style="fill:#2197D8;" d="M426.818,240.087v-47.497h-17.909v47.497c0,26.232,21.265,47.497,47.497,47.497l0,0
	c3.062,0,6.053-0.301,8.955-0.855C443.411,282.54,426.818,263.256,426.818,240.087z"/>
<path d="M362.902,212.507c-3.027-1.254-6.51-0.56-8.826,1.756c-26.196,26.201-61.026,40.63-98.075,40.63
	s-71.881-14.429-98.082-40.63c-2.317-2.317-5.8-3.008-8.825-1.756c-3.027,1.254-4.999,4.207-4.999,7.482v50.199
	c0,33.885,15.1,65.561,41.422,86.901c19.84,16.119,44.873,24.996,70.487,24.996c25.615,0,50.647-8.877,70.481-24.991
	c3.045-2.469,5.956-5.094,8.636-7.786c21.139-21.125,32.78-49.224,32.78-79.12v-50.199
	C367.901,216.713,365.929,213.761,362.902,212.507z M256.002,271.09c35.156,0,68.521-11.631,95.702-33.078v16.41
	c-53.449,50.989-137.955,50.99-191.414,0V238.01C187.478,259.456,220.848,271.09,256.002,271.09z M201.61,348.911
	c6.793-8.3,17-13.255,27.971-13.255c7.851,0,15.315,2.469,21.583,7.142c2.871,2.139,6.808,2.139,9.678,0
	c6.269-4.672,13.728-7.142,21.573-7.142c10.97,0,21.179,4.955,27.979,13.258c-15.899,10.984-34.944,16.976-54.391,16.976
	C236.557,365.89,217.513,359.898,201.61,348.911z M323.657,337.868c-0.247,0.248-0.506,0.493-0.758,0.741
	c-9.842-11.997-24.617-19.15-40.484-19.15c-9.403,0-18.428,2.453-26.412,7.14c-7.985-4.686-17.013-7.14-26.422-7.14
	c-15.873,0-30.648,7.154-40.482,19.154c-17.035-16.608-27.212-38.815-28.632-62.648c27.943,21.922,61.737,32.89,95.535,32.89
	c33.791,0,67.576-10.965,95.512-32.877C350.127,299.366,340.377,321.16,323.657,337.868z"/>
<path d="M512,240.087c0-25.321-17.022-46.727-40.219-53.416c-14.152-43.99-42.135-83.437-79.182-111.472
	c-39.588-29.958-86.821-45.793-136.596-45.793c-49.779,0-97.017,15.835-136.606,45.793c-37.047,28.034-65.032,67.482-79.184,111.474
	C17.02,193.364,0,214.768,0,240.087c0,22.231,13.12,41.445,32.019,50.333c7.971,52.248,34.122,100.188,73.988,135.422
	c41.405,36.596,94.676,56.75,149.996,56.75c55.316,0,108.583-20.154,149.987-56.75c39.864-35.235,66.015-83.174,73.987-135.42
	C498.878,281.536,512,262.32,512,240.087z M16.197,240.087c0-21.724,17.674-39.398,39.398-39.398h39.398v39.398
	c0,21.724-17.674,39.398-39.398,39.398S16.197,261.812,16.197,240.087z M395.264,413.707
	c-38.441,33.977-87.898,52.689-139.261,52.689c-51.367,0-100.827-18.713-139.27-52.689c-35.144-31.061-58.801-72.752-67.44-118.392
	c2.07,0.234,4.17,0.367,6.302,0.367c30.655,0,55.595-24.94,55.595-55.595v-47.497c0-19.354,15.745-35.1,35.1-35.1
	s35.1,15.745,35.1,35.1c0,4.472,3.626,8.098,8.098,8.098s8.098-3.626,8.098-8.098c0-28.285-23.011-51.296-51.296-51.296
	c-25.529,0-46.756,18.748-50.651,43.198H58.08c13.773-37.964,38.7-71.864,71.092-96.376c36.753-27.811,80.61-42.512,126.832-42.512
	c46.217,0,90.071,14.7,126.822,42.512c32.392,24.512,57.318,58.413,71.092,96.376h-37.556c-3.895-24.45-25.122-43.198-50.651-43.198
	c-28.284,0-51.295,23.011-51.295,51.296c0,4.472,3.625,8.098,8.098,8.098c4.474,0,8.098-3.626,8.098-8.098
	c0-19.354,15.745-35.1,35.098-35.1c19.354,0,35.1,15.745,35.1,35.1v47.497c0,30.655,24.94,55.595,55.595,55.595
	c2.13,0,4.229-0.133,6.297-0.367C454.064,340.956,430.408,382.646,395.264,413.707z M456.405,279.486
	c-21.724,0-39.398-17.674-39.398-39.398v-39.399h39.398c21.724,0,39.398,17.674,39.398,39.398S478.129,279.486,456.405,279.486z"/>
<g>
</g>
</svg>

<svg id="surprised" version="1.1"  xmlns="http://www.w3.org/2000/svg" xmlns:xlink="http://www.w3.org/1999/xlink" x="256px" y="153px" width="50px" height="50px" viewBox="0 0 512.001 512.001" style="display: none; enable-background:new 0 0 512.001 512.001;" xml:space="preserve">
<circle style="fill:#F7B239;" cx="256.005" cy="256.004" r="246.855"/>
<path style="fill:#E09B2D;" d="M126.308,385.694c-88.802-88.802-95.799-228.426-20.999-325.241
	c-8.286,6.401-16.258,13.399-23.858,20.999c-96.401,96.401-96.401,252.698,0,349.099s252.698,96.401,349.099,0
	c7.599-7.599,14.597-15.573,20.999-23.858C354.735,481.492,215.109,474.495,126.308,385.694z"/>
<path style="fill:#A81004;" d="M254.349,398.758L254.349,398.758c-33.349,0-60.385-27.035-60.385-60.383v-47.575
	c0-33.349,27.035-60.383,60.383-60.383l0,0c33.349,0,60.383,27.035,60.383,60.383v47.575
	C314.734,371.723,287.699,398.758,254.349,398.758z"/>
<g>
	
		<ellipse transform="matrix(0.7071 -0.7071 0.7071 0.7071 -104.4311 155.2862)" style="fill:#FFFFFF;" cx="135.231" cy="203.703" rx="67.73" ry="53.713"/>
	
		<ellipse transform="matrix(0.7071 0.7071 -0.7071 0.7071 254.396 -206.7572)" style="fill:#FFFFFF;" cx="376.776" cy="203.704" rx="67.73" ry="53.713"/>
</g>
<path style="fill:#F95428;" d="M269.717,335.112c4.575-2.074,9.43-3.196,14.468-3.196c11.236,0,21.605,5.551,29.95,14.932
	c-4.111,29.34-29.315,51.908-59.789,51.908s-55.666-22.581-59.777-51.921c8.344-9.369,18.702-14.92,29.925-14.92
	c5.038,0,9.906,1.122,14.481,3.196C248.795,339.565,259.896,339.553,269.717,335.112z"/>
<path style="fill:#FFFFFF;" d="M306.352,260.098c-13.432,13.078-31.779,21.129-52.006,21.129c-20.214,0-38.562-8.052-51.994-21.117
	c10.504-17.775,29.852-29.693,51.994-29.693c16.677,0,31.767,6.758,42.698,17.689C300.63,251.693,303.753,255.719,306.352,260.098z"
	/>
<path d="M256.001,0C114.842,0,0.001,114.841,0.001,256.001s114.841,256.001,256.001,256.001
	c141.158,0,255.999-114.841,255.999-256.001S397.159,0,256.001,0z M256.001,493.701c-131.069,0-237.702-106.631-237.702-237.7
	S124.932,18.299,256.001,18.299c131.068,0,237.7,106.632,237.7,237.702S387.069,493.701,256.001,493.701z"/>
<path d="M189.596,149.344c-24.513-24.512-68.842-20.067-98.818,9.91c-29.976,29.975-34.421,74.305-9.91,98.818
	c10.649,10.649,25.034,15.832,40.363,15.832c19.953,0,41.502-8.788,58.455-25.742C209.663,218.186,214.109,173.856,189.596,149.344z
	 M186.868,195.651c-1.636,14.178-8.781,28.232-20.12,39.571c-11.339,11.339-25.392,18.485-39.571,20.12
	c-13.388,1.551-25.238-2.082-33.369-10.212c-17.377-17.378-12.933-50.098,9.91-72.939c13.444-13.444,30.309-20.514,45.455-20.514
	c10.588,0,20.334,3.456,27.484,10.605C184.786,170.413,188.414,182.264,186.868,195.651z"/>
<path d="M421.223,159.253c-29.975-29.976-74.307-34.422-98.818-9.91c-24.512,24.512-20.067,68.841,9.91,98.818
	c16.955,16.955,38.499,25.742,58.455,25.742c15.326,0,29.715-5.185,40.363-15.832C455.644,233.559,451.199,189.228,421.223,159.253z
	 M418.193,245.132c-8.13,8.131-19.983,11.761-33.369,10.212c-14.178-1.636-28.232-8.781-39.571-20.12
	c-11.339-11.339-18.485-25.394-20.12-39.572c-1.546-13.388,2.082-25.238,10.212-33.369c7.151-7.15,16.895-10.605,27.484-10.605
	c15.144,0,32.012,7.072,45.455,20.515C431.125,195.034,435.57,227.754,418.193,245.132z"/>
<path d="M303.513,241.637c-13.135-13.135-30.596-20.369-49.167-20.369c-24.468,0-47.408,13.1-59.864,34.177
	c-6.321,10.659-9.661,22.886-9.661,35.36v47.565c0,3.33,0.233,6.623,0.687,9.736c4.777,34.091,34.371,59.8,68.838,59.8
	c34.475,0,64.074-25.703,68.844-59.742c0.46-3.161,0.693-6.456,0.693-9.795v-47.565c0-12.468-3.339-24.698-9.661-35.375
	C311.233,250.395,307.63,245.754,303.513,241.637z M284.184,322.767c-6.233,0-12.371,1.349-18.238,4.009
	c-7.382,3.339-15.836,3.34-23.196,0.004c-5.874-2.663-12.016-4.012-18.258-4.012c-7.461,0-14.659,1.892-21.373,5.541v-37.502
	c0-5.474,0.891-10.873,2.578-16.008c14.112,10.111,30.99,15.58,48.648,15.58c17.667,0,34.547-5.471,48.66-15.587
	c1.687,5.137,2.578,10.54,2.578,16.014v37.578C298.816,324.71,291.553,322.767,284.184,322.767z M254.346,239.567
	c13.683,0,26.55,5.33,36.229,15.009c1.261,1.261,2.441,2.605,3.567,3.994c-11.372,8.747-25.239,13.508-39.794,13.508
	c-14.547,0-28.409-4.758-39.782-13.501C224.21,246.71,238.855,239.567,254.346,239.567z M254.346,389.607
	c-23.922,0-44.65-16.803-49.921-39.78c4.841-4.5,11.648-8.762,20.07-8.762c3.617,0,7.218,0.8,10.701,2.38
	c12.153,5.51,26.109,5.512,38.299,0c3.484-1.58,7.082-2.38,10.692-2.38c8.444,0,15.258,4.269,20.097,8.774
	C299.031,372.789,278.288,389.607,254.346,389.607z"/>

</svg>
	<text id="yourText" style="fill:black;font-size:6pt;" x="242" y="342"></text>
</svg>