<?xml version="1.0" encoding="iso-8859-1"?>
<!-- Generator: Adobe Illustrator 19.0.0, SVG Export Plug-In . SVG Version: 6.00 Build 0)  -->
<svg version="1.1" id="Capa_1" xmlns="http://www.w3.org/2000/svg" xmlns:xlink="http://www.w3.org/1999/xlink" x="0px" y="0px"
	 viewBox="0 0 512 512" style="enable-background:new 0 0 512 512;" xml:space="preserve">
<path style="fill:#6D4D42;" d="M437.937,481.337c1.403,3.109,7.729,15.758,11.356,23.229h42.683
	c-16.339-40.735-46.132-94.108-69.505-129.452c-1.936-2.926-3.892-5.885-5.867-8.87c0.046-0.729,0.094-1.501,0.148-2.364
	c3.29-52.634-0.487-105.687-5.693-158.067c-0.465-4.675-0.73-7.347-0.73-7.347l-27.376,1.948c0,0,0.076,2.634,0.208,7.242
	c1.032,35.868,0.939,71.758-1.138,107.588c-0.047,0.733-0.092,1.454-0.138,2.181c-1.637-2.162-3.297-4.312-4.962-6.468
	c-11.954-15.472-24.148-30.71-37.006-45.446c-1.525-1.749-3.045-3.491-4.566-5.235c0.001-0.103,0.002-0.194,0.003-0.299
	c0.35-38.504-5.117-77.612-19.447-113.511c-1.293-3.241-2.033-5.093-2.033-5.093l-21.737,7.792c0,0,0.422,1.712,1.161,4.71
	c5.01,20.324,6.821,41.223,6.489,62.121c-0.028,1.747-0.065,3.48-0.111,5.192c-6.911-7.29-13.903-14.563-21.098-21.572
	c-32.616-31.77-66.584-61.922-101.814-90.771l-19.396,23.786c0,0,5.806,4.928,15.964,13.552
	c33.811,28.702,65.831,59.555,96.189,91.874c2.112,2.248,4.215,4.539,6.324,6.847c-3.61-0.205-7.359-0.511-11.22-0.883
	c-33.076-3.186-66.911-12.684-94.496-31.673c-3.508-2.415-5.512-3.795-5.512-3.795l-17.586,22.659c0,0,2.246,1.767,6.175,4.861
	c43.326,34.11,101.532,48.079,155.942,47.598c0.272-0.002,0.514-0.007,0.774-0.011c1.182,1.404,2.361,2.805,3.545,4.211
	c9.737,11.567,19.228,23.42,28.268,35.539c2.931,3.929,5.859,7.858,8.79,11.786c-1.215-0.269-2.434-0.539-3.671-0.812
	c-49.602-10.98-101.235-12.737-151.859-12.36c-6.037,0.045-9.487,0.071-9.487,0.071l-0.313,24.524c0,0,3.363,0.205,9.249,0.564
	c32.714,1.996,65.052,4.938,97.306,10.877c31.712,5.84,66.437,12.697,94.448,29.467c0.134,0.08,0.171,0.119,0.256,0.174
	c0.097,0.065,0.175,0.117,0.258,0.172c8.454,13.286,16.562,26.799,24.311,40.509c0.748,1.324,1.49,2.638,2.227,3.939
	c0.177,0.326,0.35,0.645,0.527,0.97c-1.389-0.356-2.771-0.71-4.185-1.072c-20.48-5.246-41.729-8.688-62.796-10.402
	c-8.264-0.672-16.452-0.818-24.737-0.685c-4.086,0.066-6.422,0.103-6.422,0.103v26.575c6.96,0.533,13.896,1.141,20.822,2.021
	c30.994,3.935,60.304,13.723,88.979,25.798C429.657,477.404,433.816,479.345,437.937,481.337z"/>
<circle style="fill:#C04643;" cx="413.36" cy="214.817" r="19.045"/>
<path style="fill:#543A33;" d="M322.928,437.362c-2.515-0.175-4.932-0.289-7.289-0.365v10.812c6.96,0.533,13.896,1.141,20.822,2.021
	c30.994,3.935,60.304,13.723,88.979,25.798c4.218,1.776,8.377,3.718,12.497,5.71C437.937,481.337,418.593,444.016,322.928,437.362z"
	/>
<circle style="fill:#C04643;" cx="333.609" cy="426.683" r="19.045"/>
<circle style="fill:#CE4C48;" cx="308.072" cy="425.293" r="19.045"/>
<path style="fill:#543A33;" d="M309.148,283.669c0.272-0.002,0.514-0.007,0.774-0.011c0,0-156.135-34.983-135.113-68.233
	c-1.576-1-3.141-2.021-4.68-3.079c-3.508-2.415-5.512-3.795-5.512-3.795l-17.586,22.659c0,0,2.246,1.767,6.175,4.861
	C196.532,270.183,254.738,284.151,309.148,283.669z"/>
<circle style="fill:#C04643;" cx="152.951" cy="236.673" r="19.045"/>
<circle style="fill:#CE4C48;" cx="177.097" cy="212.527" r="19.045"/>
<circle style="fill:#E95552;" cx="151.56" cy="211.126" r="19.045"/>
<path style="fill:#44C2A7;" d="M167.589,41.828c-7.113,0.476-25.603-0.7-36.524-23.554c-0.568-1.189-1.9-1.805-3.176-1.469
	c-8.035,2.116-36.42,8.168-61.154-4.063c-2.291-1.133-4.768,1.263-3.711,3.59c11.406,25.126,4.417,53.294,2.037,61.255
	c-0.378,1.263,0.193,2.616,1.363,3.223c22.48,11.67,23.044,30.189,22.333,37.283c-0.155,1.55,1.038,2.881,2.592,2.996
	c24.153,1.78,38.514,26.501,42.571,34.553c0.679,1.347,2.316,1.898,3.666,1.224c24.054-11.996,47.498-7.307,57.479-4.316
	c2.059,0.617,3.994-1.255,3.446-3.334c-2.659-10.075-6.571-33.66,6.216-57.304c0.718-1.327,0.222-2.981-1.102-3.704
	c-7.913-4.321-32.145-19.491-33.125-43.691C170.434,42.962,169.143,41.724,167.589,41.828z"/>
<path style="fill:#543A33;" d="M213.685,335.9c-10.02-0.34-19.458-0.28-28.354,0.128l-0.135,10.59c0,0,3.363,0.205,9.249,0.564
	c32.714,1.996,65.052,4.938,97.306,10.877c31.712,5.84,66.437,12.697,94.448,29.467c0.134,0.08,0.171,0.119,0.256,0.174
	c0.097,0.065,0.176,0.117,0.258,0.172C386.714,387.873,372.595,341.296,213.685,335.9z"/>
<g>
	<path style="fill:#14977C;" d="M116.401,274.252c-4.965,5.115-19.489,16.619-42.9,6.951c-1.218-0.503-2.621-0.068-3.343,1.034
		c-4.553,6.951-21.588,30.448-48.151,37.919c-2.461,0.692-2.697,4.13-0.354,5.151c25.293,11.03,38.957,36.635,42.518,44.143
		c0.565,1.191,1.895,1.813,3.171,1.481c24.513-6.379,37.328,7.001,41.548,12.747c0.922,1.255,2.7,1.445,3.931,0.491
		c19.136-14.846,46.351-6.095,54.756-2.829c1.406,0.546,2.991-0.14,3.543-1.544c9.84-25.015,30.394-37.224,39.812-41.683
		c1.943-0.92,2.127-3.607,0.328-4.783c-8.72-5.704-27.413-20.607-33.743-46.731c-0.355-1.466-1.83-2.363-3.299-2.014
		c-8.771,2.088-36.928,7.038-53.855-10.284C119.273,273.189,117.486,273.134,116.401,274.252z"/>
	<path style="fill:#14977C;" d="M326.911,68.021c-5.867-2.189-20.242-9.809-20.729-32.048c-0.025-1.157-0.87-2.132-2.012-2.324
		c-7.196-1.209-32.105-6.617-47.487-25.342c-1.424-1.734-4.273-0.711-4.268,1.533c0.055,24.233-15.715,44.258-20.496,49.77
		c-0.758,0.875-0.79,2.164-0.073,3.073c13.78,17.463,7.542,32.491,4.41,37.912c-0.684,1.184-0.21,2.682,0.992,3.334
		c18.692,10.151,21.258,35.125,21.597,43.036c0.057,1.324,1.167,2.356,2.492,2.305c23.588-0.914,40.661,11.308,47.571,17.308
		c1.425,1.237,3.651,0.438,3.962-1.423c1.51-9.025,6.899-29.319,25.675-43.628c1.054-0.803,1.254-2.306,0.455-3.363
		c-4.774-6.318-18.691-27.214-10.735-46.939C328.779,69.956,328.193,68.499,326.911,68.021z"/>
</g>
<circle style="fill:#CE4C48;" cx="396.295" cy="195.772" r="19.045"/>
<g>
	<circle style="fill:#E95552;" cx="379.221" cy="214.817" r="19.045"/>
	<circle style="fill:#E95552;" cx="309.462" cy="450.83" r="19.045"/>
</g>
<path d="M428.668,370.907l-4.479-6.773c2.264-36.356,1.481-74.911-2.542-124.19c10.56-3.507,18.201-13.472,18.201-25.194
	c0-11.545-7.312-21.44-17.772-25.069c-2.737-11.743-13.283-20.52-25.847-20.52c-12.572,0-23.123,8.787-25.852,20.541
	c-10.335,3.633-17.766,13.486-17.766,25.047c0,13.635,10.336,24.897,23.582,26.375c0.14,19.574-0.136,37.962-0.84,55.618
	c-10.903-13.875-32.544-39.328-32.544-39.328c0.098-39.283-5.824-75.363-17.581-107.358c3.409-7.49,8.918-15.858,17.804-22.63
	c4.325-3.297,5.173-9.512,1.894-13.853c-3.937-5.209-16.275-23.464-9.763-39.611c2.062-5.112-0.527-11.111-5.693-13.038
	c-13.422-5.006-15.692-17.927-15.85-25.184c-0.104-4.75-3.582-8.77-8.269-9.558c-6.608-1.109-29.232-6.028-42.931-22.705
	c-5.736-6.983-17.588-2.722-17.568,6.312c0.049,21.584-14.271,39.777-18.66,44.837c-3.116,3.591-3.24,8.906-0.295,12.636
	c4.496,5.698,10.968,17.108,3.803,29.512c-2.766,4.788-0.928,11.055,3.908,13.68c15.301,8.309,17.402,30.241,17.682,36.768
	c0.229,5.318,4.575,9.485,9.893,9.485c0.097,0,0.289-0.004,0.385-0.007c10.003-0.391,18.74,1.945,25.769,5.03
	c2.717,12.76,4.327,26.414,4.786,40.785c-2.734-2.78-5.527-5.572-8.37-8.341c-25.126-24.475-52.102-48.933-80.204-72.754
	c0.716-8.063,2.874-17.057,7.713-26.005c2.675-4.943,0.834-11.16-4.105-13.858c-6.648-3.629-28.401-17.054-29.225-37.41
	c-0.233-5.776-5.054-10.254-10.906-9.872c-13.321,0.87-23.719-7.722-29.253-19.303c-2.081-4.353-7.198-6.716-11.855-5.49
	c-3.57,0.94-13.116,3.126-24.647,3.127c-11.813,0-22.334-2.241-31.271-6.659c-8.376-4.142-17.744,4.88-13.869,13.416
	c10.308,22.706,3.892,48.608,1.681,56.003c-1.409,4.708,0.733,9.769,5.093,12.032c17.633,9.153,19.049,22.647,18.324,29.876
	c-0.57,5.681,3.842,10.809,9.505,11.225c20.317,1.498,33.015,23.682,36.423,30.447c2.503,4.966,8.735,7.046,13.714,4.562
	c9.301-4.638,19.493-6.991,30.293-6.991c0.935,0,1.85,0.022,2.752,0.055c27.945,24.057,55.783,50.57,82.881,78.951
	c-19.938-2.588-38.271-7.398-54.695-14.344c3.226-9.311,1.127-20.073-6.296-27.496c-5.013-5.013-11.679-7.774-18.769-7.774
	c-3.994,0-7.919,0.925-11.482,2.632c-4.176-2.618-9.006-4.025-14.057-4.025c-7.091,0-13.757,2.761-18.77,7.774
	c-8.892,8.892-10.138,22.572-3.75,32.814c-4.818,9.959-3.016,22.106,5.142,30.264c5.013,5.013,11.679,7.775,18.77,7.775
	c6.43,0,12.505-2.278,17.323-6.44c37.655,22.258,85.62,34.41,136.174,34.409c0,0,18.618,22.625,26.249,32.693
	c-45.803-8.374-91.859-9.553-131.936-9.379c-6.434-7.11-12.87-16.928-15.955-29.662c-1.307-5.398-6.936-8.832-12.326-7.548
	c-3.265,0.776-9.883,2.08-17.53,2.08c-12.707,0-22.539-3.468-29.224-10.308c-3.984-4.077-10.729-4.135-14.71-0.033
	c-3.053,3.145-9.713,8.42-20.013,8.42c-4.607,0-9.534-1.069-14.642-3.179c-4.498-1.858-9.814-0.215-12.481,3.858
	c-4.23,6.459-19.899,28.055-43.906,34.808c-9.076,2.554-9.942,15.491-1.321,19.25c22.855,9.968,35.428,33.502,38.738,40.48
	c4.418,9.315,14.8,4.084,22.384,4.084c12.804,0,19.947,7.124,23.067,11.37c3.383,4.606,10.085,5.463,14.576,1.979
	c5.816-4.512,13.296-6.8,22.23-6.8c11.056,0,21.313,3.522,25.21,5.036c5.195,2.02,11.198-0.597,13.242-5.792
	c4.898-12.453,12.842-21.412,20.325-27.59c31.643,2.022,56.28,4.606,79.494,8.339c4.091,0.66,7.94-2.126,8.598-6.216
	c0.658-4.091-2.126-7.94-6.216-8.598c-18.857-3.033-38.567-5.32-62.019-7.163c0.388-0.582,1.625-3.9,1.699-4.982
	c0.166-2.405-0.562-4.875-1.998-6.81c39.732,0.314,84.103,2.636,127.246,12.185c4.27,0.945,8.769,1.938,11.598-2.441
	c1.7-2.634,1.584-6.047-0.291-8.558l-8.789-11.783c-8.716-11.686-18.052-23.424-28.543-35.887c-2.553-3.032-4.912-6.961-9.382-6.881
	l-0.742,0.011c-48.615,0.441-94.728-10.899-130.669-32.001c0.498-1.698,0.82-3.437,0.973-5.187c0.014-0.043,0.576-0.069,0.629-0.075
	c1.82-0.198,3.622-0.585,5.363-1.155c2.784-0.912,5.417-2.291,7.751-4.062c20.918,9.303,44.7,15.287,70.777,17.799
	c4.274,0.412,8.039,0.708,11.513,0.905c6.572,0.373,10.411-7.681,5.966-12.548c-2.132-2.335-4.259-4.65-6.395-6.924
	c-24.551-26.138-49.761-50.803-75.166-73.553c2.455-1.032,4.442-3.03,5.474-5.482c1.225-2.901,0.666-5.588-0.017-8.528
	c-0.229-0.986-0.461-2.091-0.683-3.298c23.996,20.697,47.066,41.813,68.746,62.932c7.321,7.131,14.366,14.48,20.889,21.36
	c2.088,2.203,5.295,2.93,8.129,1.843c5.238-2.008,4.853-7.45,4.926-12.078c0.24-15.124-0.659-29.645-2.679-43.376
	c0.011,0.008,0.024,0.015,0.035,0.023c3.618,2.617,8.71,2.494,12.16-0.354c7.625,26.624,11.335,55.958,11.047,87.498
	c0,0-0.003,0.296-0.003,0.297c-0.041,4.183,3.878,7.33,6.416,10.238c11.174,12.806,22.842,27.138,36.723,45.102
	c3.234,4.186,6.623,11.005,13.064,9.062c4.228-1.274,5.216-5.039,5.461-8.929c1.406-24.256,1.974-49.564,1.726-77.204
	c1.767-0.901,3.431-1.996,4.954-3.266c0.026-0.022,0.054-0.041,0.08-0.063c0.02,0.016,0.04,0.031,0.06,0.048
	c0.978,0.819,2.044,1.481,3.077,2.22c2.257,1.398,4.715,2.453,7.287,3.114c4.02,48.947,4.808,87.056,2.569,122.884
	c-0.157,2.51-0.377,4.767,1.082,6.973l5.867,8.871c19.611,29.655,47.1,77.598,64.503,117.812h-26.74
	c-0.992-2.021-8.411-17.063-9.201-18.813c-0.724-1.604-1.99-2.904-3.575-3.67c-5.093-2.461-9.056-4.27-12.85-5.868
	c-27.937-11.765-52.301-19.497-75.388-23.864c0.038-0.04,0.07-0.083,0.108-0.124c3.586-3.842,5.969-8.76,6.768-13.955
	c0.005-0.034,0.014-0.068,0.019-0.103c16.467,1.931,32.535,4.888,47.876,8.818c0,0,4.177,1.069,4.184,1.071
	c7.297,1.868,11.048-6.071,7.925-11.819c-0.02-0.037-0.04-0.073-0.061-0.109l-2.227-3.94c-7.804-13.807-16.05-27.548-24.51-40.842
	c-0.733-1.152-1.827-2.062-2.991-2.76c-24.841-14.871-54.441-22.1-80.12-27.21c-4.065-0.809-8.013,1.83-8.822,5.894
	c-0.808,4.064,1.83,8.013,5.894,8.822c24.049,4.786,51.62,11.469,74.296,24.749c5.929,9.356,11.746,18.93,17.371,28.585
	c-13.313-2.895-27.061-5.102-41.056-6.601c-1.288-2.719-3.048-5.223-5.238-7.413c-5.013-5.013-11.678-7.774-18.769-7.774
	c-3.994,0-7.919,0.924-11.482,2.632c-4.176-2.618-9.007-4.025-14.058-4.025c-7.09,0-13.757,2.761-18.77,7.775
	c-5.013,5.013-7.775,11.679-7.775,18.77c0,5.044,1.404,9.871,4.016,14.043c-4.734,9.876-3.021,22.093,5.151,30.266
	c5.014,5.013,11.68,7.774,18.77,7.774c7.09,0,13.756-2.761,18.77-7.774c3.536-3.536,5.862-7.829,6.982-12.362
	c0.099,0.012,0.203,0.025,0.302,0.037c26.374,3.348,54.022,11.378,87.011,25.27c2.945,1.24,6.026,2.63,9.764,4.407
	c1.229,2.551,8.811,17.923,10.254,20.894c1.254,2.584,3.876,4.225,6.749,4.225c0,0,42.551,0,42.684,0
	c5.237,0,8.91-5.439,6.963-10.295C481.626,458.695,450.389,403.753,428.668,370.907z M165.894,372.725
	c-6.398-2.116-15.917-4.5-26.307-4.5c-10.599,0-19.893,2.469-27.695,7.345c-5.418-5.848-15.845-13.894-32.177-13.894
	c-3.407,0-6.94,0.357-10.543,1.063c-4.842-9.22-16.17-27.473-34.843-39.214c20.103-9.079,33.818-25.613,39.875-34.086
	c5.693,1.955,11.308,2.943,16.739,2.943c12.701,0,21.814-5.238,27.347-9.812c9.261,7.691,21.81,11.731,36.599,11.731
	c6.431,0,12.244-0.765,16.492-1.542c4.499,14.784,12.606,26.002,20.317,33.969c0.023,0.028,0.047,0.056,0.071,0.083l-20.19-1.385
	c-5.666-3.144-5.95-13.664-5.954-13.892c-0.01-4.127-3.355-7.475-7.487-7.483c-0.005,0-0.01,0-0.015,0
	c-4.136,0-7.493,3.349-7.502,7.487c-0.007,3.398,0.59,8.013,2.229,12.602l-14.467-0.993c-5.667-3.145-5.95-13.664-5.954-13.892
	c-0.01-4.127-3.355-7.475-7.487-7.483c-0.005,0-0.01,0-0.015,0c-4.136,0-7.493,3.349-7.502,7.487
	c-0.007,3.398,0.59,8.013,2.229,12.602l-14.467-0.993c-5.667-3.144-5.95-13.662-5.954-13.892c-0.009-4.128-3.355-7.476-7.487-7.484
	c-0.005,0-0.01,0-0.015,0c-4.136,0-7.493,3.349-7.502,7.487c-0.007,3.397,0.59,8.012,2.229,12.602l-16.716-1.147
	c-4.135-0.294-7.715,2.838-7.998,6.971c-0.284,4.133,2.837,7.714,6.971,7.998l16.716,1.147c-2.251,4.323-3.472,8.813-3.93,12.18
	c-0.558,4.105,2.318,7.886,6.423,8.444c0.343,0.046,0.683,0.069,1.02,0.069c3.695,0,6.913-2.73,7.424-6.493
	c0.313-2.308,2.537-10.854,7.817-12.913l14.442,0.991c-2.251,4.323-3.472,8.813-3.93,12.18c-0.556,4.091,2.301,7.844,6.389,8.42
	c0.354,0.05,0.704,0.074,1.051,0.074c3.668,0,6.877-2.706,7.422-6.438c0.016-0.111,1.718-10.597,7.796-12.951l14.467,0.993
	c-2.251,4.323-3.472,8.813-3.93,12.18c-0.556,4.091,2.301,7.844,6.389,8.42c0.354,0.05,0.704,0.074,1.051,0.074
	c3.668,0,6.877-2.706,7.422-6.438c0.016-0.111,1.718-10.597,7.796-12.951l20.201,1.386
	C182.001,348.623,172.394,358.647,165.894,372.725z M185.197,204.295c4.236,4.236,4.481,10.972,0.739,15.502
	c-1.905,2.307-4.672,3.791-7.644,4.118c-0.188,0.021-1.924,0.279-2.056,0.036c-0.253-0.467-0.523-0.927-0.806-1.382
	c1.707-3.545,2.613-7.455,2.613-11.506c0-3.523-0.683-6.942-1.985-10.105C179.437,200.667,182.786,201.884,185.197,204.295z
	 M143.338,202.902c2.18-2.18,5.078-3.38,8.161-3.38c3.079,0,5.973,1.197,8.151,3.372c0.017,0.018,0.031,0.037,0.049,0.055
	c4.138,4.182,4.409,10.782,0.833,15.285c-2.159,2.73-5.548,4.367-9.029,4.367c-3.06,0-5.943-1.185-8.118-3.338
	c-0.018-0.018-0.039-0.033-0.057-0.051C138.839,214.712,138.842,207.398,143.338,202.902z M152.892,248.142
	c-3.083,0-5.981-1.2-8.161-3.38c-2.501-2.501-3.635-5.863-3.354-9.144c3.168,1.305,6.592,1.991,10.122,1.991
	c3.965,0,7.939-0.886,11.509-2.614c0.449,0.281,0.904,0.551,1.368,0.803c0.016,0.229,0.027,0.458,0.029,0.687
	c0.046,4.782-2.956,9.23-7.437,10.92C155.667,247.894,154.281,248.142,152.892,248.142z M138.367,148.141
	c-5.989-10.434-19.995-30.125-42.029-34.037c-0.17-9.282-3.45-26.34-23.131-38.129c2.575-10.09,6.377-31.228,0.368-52.447
	c8.464,2.715,17.738,4.085,27.696,4.085c10.231,0,19.008-1.448,24.742-2.721c11.302,20.367,28.559,23.977,37.344,24.397
	c3.19,22.142,22.402,36.786,32.628,43.113c-5.161,11.019-7.186,21.9-7.621,31.438c-0.02,0.179-0.052,0.356-0.06,0.538
	c-0.095,2.408-0.083,4.72,0,6.943l-14.043-14.515c-2.11-6.144,4.758-14.17,4.877-14.306c2.755-3.073,2.511-7.798-0.553-10.571
	c-3.073-2.779-7.816-2.542-10.597,0.53c-2.28,2.52-4.925,6.348-6.781,10.855l-10.083-10.422c-2.11-6.145,4.76-14.173,4.877-14.307
	c2.755-3.073,2.511-7.798-0.554-10.571c-3.072-2.779-7.816-2.542-10.596,0.531c-2.28,2.52-4.925,6.348-6.781,10.855l-10.083-10.422
	c-2.103-6.124,4.713-14.119,4.876-14.306c2.757-3.073,2.513-7.8-0.552-10.572c-3.072-2.78-7.816-2.542-10.596,0.531
	c-2.28,2.52-4.925,6.348-6.781,10.855l-11.651-12.043c-2.88-2.979-7.63-3.057-10.608-0.175c-2.978,2.881-3.057,7.63-0.175,10.608
	l11.65,12.043c-4.565,1.705-8.48,4.223-11.073,6.418c-3.163,2.677-3.557,7.41-0.88,10.573c2.646,3.127,7.447,3.527,10.573,0.88
	c1.777-1.504,9.15-6.365,14.452-4.361l10.066,10.405c-4.566,1.705-8.48,4.223-11.073,6.418c-3.163,2.676-3.557,7.409-0.881,10.573
	c2.646,3.127,7.449,3.525,10.573,0.881c1.777-1.504,9.151-6.365,14.452-4.36l10.065,10.404c-4.565,1.705-8.48,4.223-11.073,6.418
	c-3.163,2.676-3.557,7.41-0.88,10.573c2.578,3.047,7.403,3.564,10.573,0.88c1.777-1.503,9.151-6.365,14.452-4.36l14.016,14.488
	c-0.042-0.003-0.08-0.008-0.122-0.011c-0.023-0.002-0.045,0.002-0.068,0c-1.98-0.135-4.029-0.219-6.159-0.219
	C159.612,141.518,148.602,143.743,138.367,148.141z M244.857,99.821c3.168-7.779,6.216-22.325-4.736-38.511
	c5.682-7.223,15.593-21.963,18.744-40.121c13.988,12,31.015,17.06,39.994,19.014c1.854,19.455,13.464,28.735,20.86,32.718
	c-4.977,18.516,4.46,36.659,10.412,45.687c-9.297,8.16-15.187,17.634-18.916,26.08l-5.153-14.34c0.58-4.239,6.374-7.778,8.513-8.743
	c3.774-1.668,5.493-6.076,3.841-9.862c-1.656-3.797-6.079-5.531-9.877-3.875c-2.514,1.097-5.65,2.967-8.576,5.507l-3.783-10.528
	c0.579-4.237,6.369-7.776,8.51-8.742c3.776-1.667,5.497-6.076,3.844-9.863c-1.658-3.797-6.08-5.531-9.877-3.875
	c-2.514,1.097-5.65,2.967-8.576,5.508l-3.783-10.529c0.58-4.239,6.374-7.778,8.513-8.742c3.774-1.668,5.493-6.076,3.841-9.862
	c-1.656-3.797-6.079-5.531-9.877-3.875c-2.514,1.097-5.65,2.967-8.576,5.507l-4.523-12.588c-1.4-3.899-5.699-5.925-9.597-4.523
	c-3.899,1.401-5.925,5.698-4.523,9.597l4.518,12.572c-3.876-0.097-7.478,0.472-10.115,1.226c-3.968,1.134-6.253,5.253-5.142,9.227
	c1.111,3.974,5.246,6.299,9.225,5.209c2.26-0.617,8.988-1.578,12.135,1.323l3.778,10.514c-3.876-0.097-7.478,0.472-10.115,1.225
	c-3.984,1.139-6.291,5.291-5.151,9.274c1.139,3.984,5.293,6.289,9.274,5.151c0.088-0.024,8.414-2.103,12.1,1.348l3.773,10.5
	c-3.876-0.097-7.478,0.472-10.115,1.225c-3.984,1.139-6.291,5.291-5.151,9.274c1.139,3.984,5.293,6.289,9.274,5.151
	c0.088-0.024,8.413-2.104,12.1,1.348l5.114,14.232c-8.33-4.186-18.824-7.626-31.154-7.984
	C264.75,130.932,260.481,110.935,244.857,99.821z M413.6,226.276c-3.345,0.127-6.693-1.368-8.906-3.866
	c-0.032-0.037-0.059-0.079-0.091-0.116c0.141-0.473,0.267-0.952,0.381-1.436c0.007-0.028,0.016-0.056,0.022-0.084
	c7.186-2.495,12.879-7.949,15.743-14.862c2.519,2.122,4.094,5.301,4.094,8.837C424.843,220.82,419.593,226.049,413.6,226.276z
	 M396.229,184.165c6.987,0,12.464,6.505,11.383,13.358c-0.412,2.615-1.73,5.043-3.707,6.806c-0.081,0.072-0.166,0.14-0.249,0.21
	c-3.055-7.302-9.283-12.955-16.951-15.234c-0.021-0.006-0.041-0.014-0.061-0.02C388.718,186.199,392.24,184.165,396.229,184.165z
	 M367.615,214.749c0-6.241,5.306-11.541,11.541-11.541c6.225,0,11.535,5.229,11.535,11.479c0,0.012,0.002,0.024,0.002,0.036
	c0,0.012-0.001,0.023-0.001,0.034c0,0.018,0.001,0.036,0.001,0.054c0.085,6.186-5.43,11.479-11.538,11.479
	C372.792,226.29,367.616,221.113,367.615,214.749z M341.707,418.453c3.416,3.416,4.354,9.073,2.13,13.382
	c-2.111,4.087-6.501,6.604-11.103,6.274c-0.237-0.437-0.78-1.345-0.795-1.37c1.857-3.839,2.757-8.145,2.613-12.405
	c-0.107-3.153-0.779-6.301-1.985-9.217C335.948,414.825,339.295,416.043,341.707,418.453z M299.847,417.061
	c2.18-2.18,5.078-3.38,8.161-3.38c5.946,0,11.048,4.734,11.506,10.661c0.047,0.603,0.044,1.24-0.008,1.858
	c-3.164-1.301-6.582-1.985-10.106-1.985c-4.362,0-8.796,1.101-12.629,3.187c-0.028,0.015-0.057,0.028-0.084,0.043
	C295.977,423.801,297.031,419.878,299.847,417.061z M317.561,458.92c-4.449,4.448-11.876,4.446-16.321,0.001
	c-7.066-7.066-1.826-19.699,8.155-19.699C319.384,439.221,324.62,451.861,317.561,458.92z"/>
<g>
</g>
<g>
</g>
<g>
</g>
<g>
</g>
<g>
</g>
<g>
</g>
<g>
</g>
<g>
</g>
<g>
</g>
<g>
</g>
<g>
</g>
<g>
</g>
<g>
</g>
<g>
</g>
<g>
</g>
</svg>
