<?xml version="1.0" encoding="iso-8859-1"?>
<!-- Generator: Adobe Illustrator 19.0.0, SVG Export Plug-In . SVG Version: 6.00 Build 0)  -->
<svg version="1.1" id="Capa_1" xmlns="http://www.w3.org/2000/svg" xmlns:xlink="http://www.w3.org/1999/xlink" x="0px" y="0px"
	 viewBox="0 0 512 512" style="enable-background:new 0 0 512 512;" xml:space="preserve">
<path style="fill:#80C7EA;" d="M414.12,507.75c0-91.49-65.58-110.432-65.58-110.432H163.46c0,0-66.146,18.942-66.146,110.432H414.12
	z"/>
<path style="fill:#2C9CCC;" d="M183.46,397.318h-20c0,0-65.58,18.973-65.58,110.464l19.902-0.031
	C117.782,416.26,183.46,397.318,183.46,397.318z"/>
<circle style="fill:#80C7EA;" cx="256.001" cy="213.37" r="205.87"/>
<path style="fill:#2C9CCC;" d="M70.129,213.374c0-110.347,86.817-200.41,195.872-205.626c-3.314-0.159-6.647-0.246-10-0.246
	c-113.7,0-205.872,92.172-205.872,205.872s92.172,205.872,205.872,205.872c3.353,0,6.686-0.087,10-0.245
	C156.946,413.784,70.129,323.721,70.129,213.374z"/>
<path style="fill:#EEEEEC;" d="M404.211,213.374L404.211,213.374L404.211,213.374c23.7-6.886,18.677-41.826-6.004-41.755l0,0l0,0
	c20.8-13.284,6.136-45.393-17.524-38.373l0,0l0,0c16.215-18.606-6.901-45.283-27.625-31.881l0,0l0,0
	c10.316-22.421-19.379-41.505-35.488-22.807l0,0l0,0c3.582-24.419-30.287-34.364-40.476-11.885l0,0l0,0
	c-3.443-24.439-38.742-24.439-42.185,0l0,0l0,0c-10.189-22.479-44.058-12.534-40.476,11.885l0,0l0,0
	c-16.109-18.698-45.804,0.386-35.488,22.807l0,0l0,0c-20.724-13.402-43.84,13.275-27.625,31.881l0,0l0,0
	c-23.661-7.02-38.324,25.088-17.524,38.373l0,0l0,0c-24.68-0.07-29.704,34.869-6.004,41.755l0,0l0,0
	c-23.7,6.886-18.677,41.826,6.004,41.755l0,0l0,0c-20.8,13.284-6.136,45.393,17.524,38.373l0,0l0,0
	c-16.215,18.606,6.901,45.283,27.625,31.881l0,0l0,0c-10.316,22.421,19.379,41.505,35.488,22.807l0,0l0,0
	c-3.582,24.419,30.287,34.364,40.476,11.885l0,0l0,0c3.443,24.439,38.742,24.439,42.185,0l0,0l0,0
	c10.189,22.479,44.058,12.534,40.476-11.885l0,0l0,0c16.109,18.698,45.804-0.386,35.488-22.807l0,0l0,0
	c20.724,13.402,43.84-13.275,27.625-31.881l0,0l0,0c23.661,7.02,38.324-25.089,17.524-38.373l0,0l0,0
	C422.887,255.2,427.911,220.26,404.211,213.374z"/>
<path style="fill:#F2C48F;" d="M376.901,198.662c-0.45-3.77-1.08-7.49-1.87-11.14l-119.03-69.853l-119.03,69.853
	c-0.79,3.65-1.42,7.37-1.87,11.14c-0.59,4.82-0.88,9.74-0.88,14.71c0,67.27,54.52,121.78,121.78,121.78s121.78-54.51,121.78-121.78
	C377.781,208.402,377.491,203.482,376.901,198.662z"/>
<path style="fill:#E5BA87;" d="M256.001,335.152c3.647,0,7.276-0.211,10.911-0.492c1.365-0.122,2.729-0.261,4.089-0.428
	c-60.182-7.391-106.78-58.67-106.78-120.86c0-8.681,0.914-17.365,2.75-25.85c1.62-7.496,3.943-14.727,6.873-21.639l-36.873,21.639
	c-0.592,2.737-1.095,5.515-1.499,8.322c-2.582,17.94-1.16,36.435,4.224,53.746C155.114,299.167,201.352,335.152,256.001,335.152z"/>
<path style="fill:#6D4D42;" d="M375.031,187.522h-88.7l-30.33-41.85l-30.33,41.85h-88.7c11.85-54.84,60.63-95.93,119.03-95.93
	S363.181,132.682,375.031,187.522z"/>
<path style="fill:#543A33;" d="M166.971,187.522c10.819-50.07,52.426-88.671,104.03-95.008c-2.439-0.299-4.9-0.528-7.381-0.683
	c-2.535-0.158-5.079-0.239-7.619-0.239c-48.363,0-90.128,28.179-109.786,69.01c-1.484,3.082-2.841,6.235-4.066,9.455
	c-2.144,5.633-3.882,11.467-5.178,17.465H166.971z"/>
<path d="M85.227,188.818c-1.369,9.525,1.744,18.398,8.012,24.554c-6.268,6.156-9.381,15.029-8.012,24.554
	s6.856,17.161,14.604,21.302c-4.278,7.672-4.767,17.063-0.77,25.815c3.997,8.753,11.414,14.534,20.015,16.325
	c-1.943,8.566,0.233,17.715,6.534,24.986c6.302,7.273,15.039,10.731,23.804,10.025c0.549,8.767,5.215,16.931,13.31,22.133
	c8.096,5.203,17.46,6.055,25.663,2.913c2.996,8.258,9.773,14.776,19.007,17.487c9.232,2.713,18.459,0.892,25.443-4.435
	c5.202,7.079,13.541,11.424,23.164,11.424c9.622,0,17.962-4.346,23.163-11.424c6.985,5.326,16.214,7.146,25.444,4.435
	c9.233-2.711,16.011-9.229,19.007-17.487c8.202,3.143,17.568,2.29,25.663-2.913c8.095-5.202,12.761-13.367,13.31-22.133
	c8.759,0.706,17.502-2.753,23.804-10.025c6.301-7.271,8.478-16.42,6.534-24.986c8.6-1.792,16.018-7.573,20.015-16.325
	c3.997-8.753,3.509-18.144-0.77-25.816c7.746-4.141,13.235-11.778,14.604-21.302c1.369-9.524-1.744-18.397-8.012-24.554
	c6.268-6.156,9.381-15.029,8.012-24.554s-6.856-17.161-14.604-21.302c4.277-7.671,4.767-17.063,0.77-25.815
	c-3.997-8.753-11.414-14.535-20.015-16.325c1.944-8.567-0.233-17.714-6.534-24.987c-6.302-7.272-15.044-10.734-23.804-10.025
	c-0.549-8.768-5.215-16.931-13.31-22.134s-17.461-6.056-25.663-2.913c-2.996-8.258-9.773-14.776-19.007-17.487
	c-9.231-2.711-18.458-0.892-25.443,4.435c-5.202-7.079-13.541-11.424-23.164-11.424c-9.622,0-17.962,4.346-23.163,11.424
	c-6.985-5.326-16.214-7.146-25.444-4.435c-9.233,2.711-16.011,9.229-19.007,17.487c-8.203-3.143-17.567-2.29-25.663,2.913
	c-8.095,5.203-12.761,13.366-13.31,22.134c-8.758-0.707-17.502,2.753-23.803,10.024c-6.302,7.272-8.479,16.42-6.535,24.987
	c-8.6,1.792-16.018,7.572-20.015,16.325s-3.509,18.144,0.77,25.815C92.085,171.658,86.596,179.294,85.227,188.818z M109.884,206.17
	c-8.501-2.47-10.598-9.741-9.81-15.217c0.785-5.465,4.831-11.836,13.647-11.836c0.023,0,0.05,0,0.073,0
	c3.327,0,6.259-2.193,7.196-5.387c0.939-3.201-0.348-6.638-3.159-8.434c-7.461-4.765-7.424-12.332-5.126-17.364
	c2.299-5.032,7.987-10.018,16.48-7.498c3.194,0.948,6.639-0.329,8.442-3.136c1.804-2.807,1.536-6.467-0.655-8.982
	c-5.816-6.673-3.649-13.923-0.026-18.104c3.623-4.182,10.489-7.359,17.925-2.551c2.799,1.811,6.463,1.555,8.983-0.63
	c2.521-2.185,3.297-5.772,1.902-8.803c-3.7-8.042,0.422-14.388,5.076-17.379c4.654-2.991,12.141-4.103,17.917,2.602
	c2.177,2.526,5.762,3.311,8.797,1.927c3.035-1.386,4.79-4.61,4.306-7.911c-1.285-8.758,4.458-13.686,9.766-15.245
	c5.312-1.559,12.804-0.518,16.458,7.544c1.377,3.039,4.601,4.8,7.898,4.328c3.302-0.475,5.894-3.074,6.359-6.377
	c1.235-8.766,8.134-11.875,13.666-11.875c5.532,0,12.431,3.11,13.666,11.875c0.466,3.304,3.058,5.902,6.359,6.377
	c3.3,0.472,6.521-1.289,7.898-4.328c3.654-8.062,11.15-9.102,16.458-7.544c5.308,1.559,11.051,6.486,9.766,15.245
	c-0.484,3.301,1.271,6.525,4.306,7.911c3.034,1.384,6.619,0.599,8.797-1.927c5.778-6.706,13.263-5.594,17.917-2.602
	c4.654,2.991,8.776,9.337,5.076,17.379c-1.395,3.031-0.619,6.618,1.902,8.803s6.183,2.441,8.983,0.63
	c7.435-4.808,14.302-1.63,17.925,2.551s5.79,11.431-0.026,18.104c-2.191,2.515-2.459,6.176-0.655,8.982
	c1.804,2.807,5.246,4.083,8.443,3.135c8.489-2.516,14.183,2.465,16.479,7.498c2.298,5.032,2.335,12.599-5.126,17.364
	c-2.812,1.795-4.099,5.233-3.159,8.434c0.938,3.194,3.869,5.387,7.196,5.387c0.023-0.001,0.048,0,0.073,0
	c8.815,0,12.862,6.372,13.647,11.836c0.788,5.476-1.309,12.747-9.81,15.217c-3.203,0.931-5.407,3.866-5.407,7.202
	s2.204,6.271,5.407,7.202c8.501,2.47,10.598,9.741,9.81,15.217c-0.785,5.465-4.831,11.837-13.647,11.837c-0.026,0-0.053,0-0.073,0
	c-3.327,0-6.259,2.193-7.196,5.387c-0.939,3.201,0.348,6.638,3.159,8.434c7.461,4.764,7.424,12.332,5.126,17.364
	c-2.299,5.033-7.997,10.013-16.479,7.498c-3.197-0.952-6.64,0.328-8.443,3.135c-1.804,2.807-1.536,6.467,0.655,8.982
	c5.816,6.673,3.649,13.923,0.026,18.104c-3.624,4.181-10.494,7.357-17.925,2.552c-2.801-1.812-6.464-1.556-8.983,0.63
	c-2.521,2.185-3.297,5.772-1.902,8.803c3.7,8.041-0.422,14.387-5.075,17.378c-4.655,2.992-12.14,4.104-17.918-2.602
	c-2.178-2.527-5.763-3.313-8.797-1.927c-3.035,1.386-4.79,4.61-4.306,7.911c1.285,8.758-4.458,13.686-9.766,15.245
	c-5.313,1.558-12.804,0.518-16.458-7.544c-1.377-3.039-4.598-4.8-7.898-4.328c-3.302,0.475-5.894,3.074-6.359,6.377
	c-1.235,8.766-8.134,11.875-13.666,11.875c-5.532,0-12.431-3.11-13.666-11.875c-0.466-3.304-3.058-5.902-6.359-6.377
	c-0.358-0.051-0.716-0.077-1.07-0.077c-2.909,0-5.601,1.696-6.828,4.404c-3.653,8.063-11.149,9.104-16.458,7.544
	c-5.308-1.559-11.051-6.486-9.766-15.245c0.484-3.301-1.271-6.525-4.306-7.911s-6.62-0.601-8.797,1.927
	c-5.778,6.706-13.262,5.594-17.918,2.602c-4.653-2.991-8.775-9.337-5.075-17.378c1.395-3.031,0.619-6.619-1.902-8.803
	c-2.521-2.186-6.185-2.442-8.983-0.63c-7.434,4.808-14.301,1.63-17.925-2.552c-3.623-4.181-5.79-11.431,0.026-18.104
	c2.191-2.515,2.459-6.176,0.655-8.982c-1.804-2.807-5.248-4.084-8.443-3.135c-8.485,2.517-14.181-2.466-16.479-7.498
	c-2.298-5.032-2.335-12.6,5.126-17.364c2.812-1.795,4.099-5.233,3.159-8.434c-0.938-3.194-3.869-5.387-7.196-5.387
	c-0.007,0-0.015,0-0.021,0c-8.888,0.022-12.912-6.361-13.699-11.836c-0.788-5.476,1.309-12.747,9.81-15.217
	c3.203-0.931,5.407-3.866,5.407-7.202C115.291,210.036,113.087,207.101,109.884,206.17z"/>
<circle cx="203.591" cy="225.34" r="12.721"/>
<circle cx="308.411" cy="225.34" r="12.721"/>
<path d="M164.633,437.544c-4.143,0-7.5,3.358-7.5,7.5V504.5c0,4.142,3.357,7.5,7.5,7.5s7.5-3.358,7.5-7.5v-59.456
	C172.133,440.902,168.775,437.544,164.633,437.544z"/>
<path d="M347.369,437.544c-4.143,0-7.5,3.358-7.5,7.5V504.5c0,4.142,3.357,7.5,7.5,7.5s7.5-3.358,7.5-7.5v-59.456
	C354.869,440.902,351.512,437.544,347.369,437.544z"/>
<path d="M256.001,282.095c13.949,0,26.96-7.507,33.954-19.591c2.075-3.585,0.851-8.173-2.734-10.248
	c-3.582-2.073-8.173-0.852-10.248,2.734c-4.321,7.467-12.357,12.105-20.972,12.105c-8.616,0-16.652-4.64-20.973-12.108
	c-2.075-3.585-6.663-4.811-10.248-2.736c-3.585,2.074-4.811,6.662-2.736,10.248C229.037,274.585,242.049,282.095,256.001,282.095z"
	/>
<path d="M386.459,411.125c-7.232-6.775-14.486-11.509-20.582-14.752c14.746-8.89,28.512-19.635,41.001-32.124
	c40.301-40.301,62.495-93.883,62.495-150.877C469.373,95.718,373.654,0,256.001,0C192.065,0,132.04,28.318,91.316,77.694
	c-2.636,3.195-2.182,7.922,1.014,10.558c3.194,2.634,7.922,2.183,10.559-1.014C140.753,41.33,196.56,15,256.001,15
	c109.383,0,198.372,88.989,198.372,198.372c0,102.502-78.145,187.093-177.988,197.331c-0.094,0.009-0.188,0.019-0.282,0.028
	c-1.464,0.148-2.933,0.277-4.406,0.392c-0.476,0.037-0.954,0.069-1.431,0.103c-1.193,0.085-2.387,0.164-3.586,0.228
	c-0.879,0.046-1.76,0.079-2.641,0.113c-0.868,0.035-1.735,0.076-2.606,0.099c-1.807,0.048-3.617,0.077-5.433,0.077
	c-1.816,0-3.626-0.029-5.433-0.077c-0.871-0.023-1.738-0.065-2.606-0.099c-0.881-0.034-1.762-0.067-2.641-0.113
	c-1.198-0.064-2.393-0.143-3.586-0.228c-0.477-0.033-0.954-0.066-1.431-0.103c-1.473-0.116-2.942-0.245-4.406-0.392
	c-0.094-0.009-0.188-0.019-0.282-0.029c-99.843-10.238-177.988-94.829-177.988-197.331c0-36.297,9.893-71.803,28.608-102.678
	c2.146-3.542,1.016-8.154-2.526-10.301c-3.541-2.148-8.153-1.018-10.302,2.526c-20.137,33.22-30.78,71.415-30.78,110.454
	c0,56.994,22.194,110.576,62.495,150.877c12.489,12.489,26.255,23.234,41.001,32.124c-6.096,3.243-13.35,7.976-20.582,14.752
	c-16.04,15.026-35.161,43.424-35.161,93.375c0,4.142,3.357,7.5,7.5,7.5s7.5-3.358,7.5-7.5c0-35.432,10.042-62.983,29.848-81.89
	c11.23-10.72,22.629-15.521,27.51-17.222c12.481,6.075,25.531,10.902,39.001,14.418c0.292,0.077,0.583,0.155,0.876,0.23
	c1.418,0.364,2.842,0.71,4.269,1.044c0.537,0.127,1.073,0.259,1.611,0.382c1.134,0.257,2.274,0.494,3.413,0.732
	c2.37,0.498,4.749,0.964,7.139,1.379c0.05,0.009,0.1,0.019,0.151,0.028c1.292,0.224,2.59,0.423,3.888,0.623
	c0.53,0.081,1.057,0.169,1.588,0.247c1.216,0.178,2.436,0.338,3.657,0.495c0.638,0.082,1.275,0.166,1.914,0.242
	c1.148,0.137,2.298,0.262,3.45,0.381c0.749,0.077,1.498,0.151,2.248,0.22c1.067,0.098,2.134,0.192,3.204,0.274
	c0.888,0.069,1.777,0.127,2.667,0.185c0.954,0.062,1.907,0.125,2.863,0.175c1.117,0.058,2.237,0.099,3.357,0.139
	c0.753,0.027,1.504,0.063,2.259,0.083c1.899,0.05,3.802,0.079,5.71,0.079s3.81-0.029,5.71-0.079
	c0.756-0.019,1.508-0.055,2.262-0.083c1.118-0.041,2.236-0.081,3.351-0.139c0.96-0.049,1.917-0.113,2.874-0.175
	c0.885-0.058,1.77-0.116,2.652-0.184c1.075-0.083,2.148-0.177,3.22-0.276c0.743-0.069,1.485-0.141,2.227-0.218
	c1.159-0.119,2.316-0.245,3.471-0.383c0.629-0.075,1.257-0.158,1.885-0.238c1.23-0.158,2.46-0.319,3.685-0.498
	c0.515-0.075,1.027-0.16,1.541-0.24c3.784-0.582,7.545-1.265,11.281-2.05c1.114-0.233,2.228-0.465,3.337-0.716
	c0.554-0.126,1.105-0.262,1.658-0.393c1.41-0.331,2.816-0.672,4.217-1.031c0.306-0.079,0.612-0.161,0.917-0.241
	c13.46-3.516,26.502-8.34,38.974-14.411c4.901,1.708,16.291,6.511,27.512,17.221c19.806,18.907,29.848,46.458,29.848,81.89
	c0,4.142,3.357,7.5,7.5,7.5s7.5-3.358,7.5-7.5C421.622,454.549,402.501,426.151,386.459,411.125z"/>
<path d="M256.001,342.65c71.285,0,129.28-57.995,129.28-129.28c0-5.287-0.313-10.536-0.933-15.602
	c-0.469-3.928-1.137-7.905-1.985-11.822c-0.001-0.003-0.001-0.007-0.002-0.01c-6.143-28.424-21.998-54.263-44.646-72.755
	c-22.974-18.76-51.994-29.091-81.714-29.091s-58.74,10.331-81.715,29.091c-22.648,18.493-38.504,44.331-44.646,72.755
	c-0.001,0.003-0.001,0.007-0.002,0.01c-0.847,3.918-1.515,7.896-1.982,11.803c-0.621,5.072-0.936,10.328-0.936,15.621
	C126.721,284.655,184.716,342.65,256.001,342.65z M256.001,99.09c50.297,0,94.859,33.517,109.336,80.93h-75.179l-28.084-38.751
	c-1.411-1.946-3.669-3.099-6.073-3.099s-4.662,1.152-6.073,3.099l-28.084,38.751h-75.179
	C161.142,132.606,205.704,99.09,256.001,99.09z M142.548,199.549c0.18-1.503,0.392-3.016,0.637-4.529h82.486
	c2.404,0,4.662-1.152,6.073-3.099l24.257-33.47l24.257,33.47c1.411,1.946,3.669,3.099,6.073,3.099h82.486
	c0.245,1.513,0.457,3.026,0.637,4.529c0.001,0.007,0.002,0.015,0.003,0.022c0.547,4.47,0.824,9.112,0.824,13.799
	c0,63.014-51.266,114.28-114.28,114.28s-114.28-51.266-114.28-114.28C141.721,208.684,141.998,204.041,142.548,199.549z"/>
<g>
</g>
<g>
</g>
<g>
</g>
<g>
</g>
<g>
</g>
<g>
</g>
<g>
</g>
<g>
</g>
<g>
</g>
<g>
</g>
<g>
</g>
<g>
</g>
<g>
</g>
<g>
</g>
<g>
</g>
</svg>
