<svg xmlns:rdf="http://www.w3.org/1999/02/22-rdf-syntax-ns#" xmlns="http://www.w3.org/2000/svg" xmlns:cc="http://web.resource.org/cc/" xmlns:xlink="http://www.w3.org/1999/xlink" xmlns:dc="http://purl.org/dc/elements/1.1/" xmlns:svg="http://www.w3.org/2000/svg" id="Layer_1" xml:space="preserve" overflow="visible" viewBox="0 0 359.396 391.655" version="1.1" enable-background="new 0 0 359.396 391.655">
                              <path id="handle-color1" stroke="#130F06" d="m229.89 129.9s-12.5-52.25-25.5-74-39.75-31.25-57.75-29.75-46.5 17.25-53 41.75 7 74.5 7 74.5l-20.25 6.5s-22.75-129.25 65.25-130.5 105.25 114 105.25 114l-21-2.5z" fill="black"/>
                               <path stroke="#130F06" d="m254.44 101.8l-20.333 2.611c-3.286 0.422-5.608 3.429-5.187 6.715l1.019 7.935c0.422 3.287 3.429 5.609 6.716 5.187l20.333-2.611c3.286-0.422 5.608-3.429 5.187-6.715l-1.019-7.935c-0.43-3.28-3.44-5.6-6.72-5.18zm4.74 12.76c0.322 2.509-1.588 4.822-4.264 5.166l-16.562 2.127c-2.678 0.344-5.11-1.412-5.433-3.92l-0.778-6.059c-0.321-2.508 1.589-4.822 4.266-5.166l16.562-2.126c2.677-0.344 5.109 1.412 5.432 3.921l0.77 6.06z" fill="#EFF0F0"/>
                               <path stroke="#130F06" d="m96.498 113.8l-20.333 2.611c-3.286 0.422-5.608 3.429-5.187 6.715l1.019 7.935c0.422 3.287 3.429 5.609 6.716 5.187l20.333-2.611c3.286-0.422 5.608-3.429 5.187-6.715l-1.019-7.935c-0.42-3.28-3.425-5.61-6.712-5.18zm4.742 12.76c0.322 2.509-1.588 4.822-4.264 5.166l-16.562 2.127c-2.678 0.344-5.11-1.412-5.433-3.92l-0.778-6.059c-0.321-2.508 1.589-4.822 4.266-5.166l16.562-2.126c2.677-0.344 5.109 1.412 5.432 3.921l0.78 6.06z" fill="#EFF0F0"/>
                              <path id="face-color" stroke="#130F06" d="m345.64 361.66s19-3 11.5-67-10.5-96.5-16-112-20.5-54-84.5-53.5-161 2.5-208 24-43.736 41.882-44.5 49c-8 74.5-1.301 132.8 5.5 160 7 28 11 29 28 29 25.402 0 91-5 160.5-11s147.5-18.5 147.5-18.5z" fill="gray"/>
                              <path id="base-color" tagName="base-color" stroke="#130F06" d="m355.14 322.16s3 18.5-4.5 25.5-19 9-26 9.5-273 26-273 26-22 1.5-27.5-6.5-7.5-6.5-9-39.5-3.5-116.5-1.5-132 6-34.5 27-48 47-18.5 122.5-26.5 114 0 124.5 5.5 40 18 46.5 51.5 21 134.5 21 134.5z" fill="brown"/>
                              <polygon id="handle-color2"  stroke="#130F06" points="258.14 132.66 257.14 118.66 235.64 119.66 236.14 134.16" fill="black"/>
                              <polygon id="handle-color3"  stroke="#130F06" points="98.643 125.16 100.64 140.16 80.143 145.66 77.143 128.16" fill="black"/>
                              <path id="handle-color4" stroke="#130F06" d="m226.14 58.405s-0.108-0.191-0.325-0.549c-3.102-5.104-28.442-44.038-78.675-41.701-53.75 2.5-62.75 47.5-62.75 47.5l-2.25-13s17-48.25 61.25-48.5 66.5 19.5 77.5 41.75 5.25 14.5 5.25 14.5z" fill="black"/>
                              <path id="handle-color5" stroke="#130F06" d="m255.64 107.66l-20.5 3.5s3 3.5 0-6-10-30-14.5-43-27-64-75-59c-54.591 5.687-59 37-56.5 61s9 58 9 58l-21.5 4s-18.5-112 59-124.5 113 79.995 120 106z" fill="black"/>
                              <metadata><rdf:RDF><cc:Work><dc:format>image/svg+xml</dc:format><dc:type rdf:resource="http://purl.org/dc/dcmitype/StillImage"/><cc:license rdf:resource="http://creativecommons.org/licenses/publicdomain/"/>
                                             <dc:publisher><cc:Agent rdf:about="http://openclipart.org/"><dc:title>Openclipart</dc:title></cc:Agent></dc:publisher><dc:title>purse</dc:title><dc:date>2007-04-18T09:05:31</dc:date><dc:description>a handled bag or purse</dc:description><dc:source>http://openclipart.org/detail/4001/purse-by-johnny_automatic-4001</dc:source><dc:creator><cc:Agent><dc:title>johnny_automatic</dc:title></cc:Agent></dc:creator><dc:subject><rdf:Bag><rdf:li>accessory</rdf:li><rdf:li>apparel</rdf:li><rdf:li>bag</rdf:li><rdf:li>clip art</rdf:li><rdf:li>clipart</rdf:li><rdf:li>clothing</rdf:li><rdf:li>handbag</rdf:li><rdf:li>image</rdf:li><rdf:li>media</rdf:li><rdf:li>png</rdf:li><rdf:li>public domain</rdf:li><rdf:li>purse</rdf:li><rdf:li>svg</rdf:li></rdf:Bag></dc:subject></cc:Work><cc:License rdf:about="http://creativecommons.org/licenses/publicdomain/"><cc:permits rdf:resource="http://creativecommons.org/ns#Reproduction"/><cc:permits rdf:resource="http://creativecommons.org/ns#Distribution"/><cc:permits rdf:resource="http://creativecommons.org/ns#DerivativeWorks"/></cc:License></rdf:RDF></metadata></svg>
