<?xml version="1.0" encoding="iso-8859-1"?>
<!-- Generator: Adobe Illustrator 19.1.0, SVG Export Plug-In . SVG Version: 6.00 Build 0)  -->
<svg version="1.1" id="Capa_1" xmlns="http://www.w3.org/2000/svg" xmlns:xlink="http://www.w3.org/1999/xlink" x="0px" y="0px"
	 viewBox="0 0 470 470" style="enable-background:new 0 0 470 470;" xml:space="preserve">
<g>
	<path style="fill:#FF3B33;" d="M67.5,434.715c-4.142,0-7.5-3.358-7.5-7.5c0-0.004-15-0.004-15-0.004c0,4.146-3.358,7.504-7.5,7.504
		H15V455h440v-20.285H67.5z"/>
	<path style="fill:#FF7633;" d="M67.5,419.715H455V400H15v19.715h22.5c4.141,0,7.497,3.356,7.5,7.496h15
		C60.003,423.071,63.359,419.715,67.5,419.715z"/>
	<path style="fill:#3DE2F3;" d="M355.881,353.973l0-74.092c0-4.14,3.355-7.497,7.495-7.5v-15.001
		c-2.678-0.002-5.151-1.431-6.49-3.75l-18.517-32.075c-4.573,16.033-6.919,32.55-6.919,49.24v52.145
		C331.45,337.964,341.883,350.589,355.881,353.973z"/>
	<path style="fill:#3DE2F3;" d="M94.833,353.973v-74.092c0-4.142,3.358-7.5,7.5-7.5c0.003,0,0.003-15,0.003-15
		c-2.682,0.001-5.158-1.429-6.498-3.749l-18.52-32.065c-4.571,16.03-6.916,32.543-6.916,49.229v52.145
		C70.402,337.964,80.835,350.589,94.833,353.973z"/>
	<path style="fill:#3DE2F3;" d="M225.357,353.867l0-57.052l-30.092-52.126c-2.071-3.587-0.842-8.174,2.745-10.245
		c3.586-2.071,8.175-0.842,10.245,2.746l17.102,29.623l0-39.999l-29.622-51.311c-2.071-3.587-0.842-8.174,2.745-10.245
		c3.586-2.072,8.175-0.842,10.245,2.746l16.632,28.809l0-39.999l-32.443-56.197c-9.021,28.056-13.651,57.153-13.651,86.592v113.599
		C179.264,327.814,199.345,350.206,225.357,353.867z"/>
	<path style="fill:#B9F5FB;" d="M109.833,279.881v74.092c13.998-3.384,24.431-16.009,24.431-31.033v-52.145
		c0-16.69-2.346-33.207-6.919-49.24l-18.516,32.075c-1.339,2.32-3.814,3.749-6.492,3.75v15
		C106.477,272.383,109.833,275.74,109.833,279.881z"/>
	<path style="fill:#B9F5FB;" d="M363.381,272.381c4.142,0,7.5,3.358,7.5,7.5l0,74.092c13.999-3.384,24.431-16.009,24.431-31.033
		v-52.145c0-16.686-2.345-33.2-6.916-49.229l-18.52,32.066c-1.34,2.32-3.815,3.749-6.495,3.749
		C363.376,257.381,363.376,272.381,363.381,272.381z"/>
	<path style="fill:#B9F5FB;" d="M240.357,156.816l0,40.008l16.632-28.797c2.071-3.587,6.658-4.814,10.246-2.744
		c3.587,2.072,4.815,6.659,2.744,10.246l-29.622,51.287l0,40.008l17.098-29.604c2.071-3.587,6.659-4.815,10.246-2.744
		c3.587,2.072,4.815,6.659,2.744,10.246l-30.088,52.094l0,57.05c26.012-3.66,46.093-26.052,46.093-53.058V187.21
		c0-29.433-4.628-58.524-13.645-86.575L240.357,156.816z"/>
	<path style="fill:#FF7633;" d="M363.383,234.882l18.541-32.102c-4.889-12.062-11.082-23.763-18.542-34.952
		c-7.458,11.185-13.649,22.882-18.538,34.94L363.383,234.882z"/>
	<path style="fill:#FF7633;" d="M83.791,202.781l18.541,32.102l18.539-32.114c-4.889-12.058-11.079-23.754-18.537-34.94
		C94.872,179.018,88.68,190.718,83.791,202.781z"/>
	<path style="fill:#FF3B33;" d="M232.859,139.808l33.297-57.651c-8.517-21.432-19.646-42.145-33.299-61.803
		c-13.649,19.653-24.775,40.359-33.292,61.784L232.859,139.808z"/>
	<path style="fill:#081C1F;" d="M462.5,385h-91.619l0-15.736c22.324-3.602,39.431-23,39.431-46.324v-52.145
		c0-23.799-4.387-47.252-12.884-69.586c-0.112-0.373-0.247-0.738-0.415-1.09c-6.739-17.409-15.982-34.128-27.61-49.785
		c-1.415-1.905-3.648-3.028-6.021-3.028s-4.606,1.123-6.021,3.028c-11.714,15.773-21.01,32.621-27.762,50.168
		c-0.064,0.154-0.122,0.31-0.175,0.468c-8.557,22.405-12.974,45.941-12.974,69.824v52.145c0,23.324,17.107,42.722,39.431,46.324
		l0,15.736H240.357l0-16.016c34.306-3.749,61.093-32.888,61.093-68.175V187.21c0-36.383-6.711-72.243-19.712-106.396
		c-0.132-0.499-0.317-0.984-0.549-1.447c-10.314-26.692-24.48-52.329-42.31-76.338C237.464,1.123,235.23,0,232.857,0
		s-4.606,1.123-6.021,3.028c-17.909,24.114-32.124,49.869-42.449,76.687c-0.112,0.255-0.209,0.516-0.292,0.782
		c-13.08,34.249-19.831,70.218-19.831,106.714v113.599c0,35.287,26.787,64.426,61.093,68.175l0,16.016H109.833v-15.736
		c22.324-3.602,39.431-23,39.431-46.324v-52.145c0-23.885-4.417-47.422-12.974-69.827c-0.052-0.156-0.11-0.31-0.173-0.462
		c-6.752-17.548-16.049-34.398-27.763-50.171c-1.415-1.905-3.648-3.028-6.021-3.028s-4.606,1.123-6.021,3.028
		c-11.626,15.655-20.868,32.371-27.607,49.776c-0.171,0.357-0.308,0.727-0.421,1.105c-8.496,22.332-12.882,45.783-12.882,69.58
		v52.145c0,23.324,17.107,42.722,39.431,46.324V385H7.5c-4.142,0-7.5,3.358-7.5,7.5v70c0,4.142,3.358,7.5,7.5,7.5h455
		c4.142,0,7.5-3.358,7.5-7.5v-70C470,388.358,466.642,385,462.5,385z M381.924,202.781l-18.541,32.102l-18.539-32.114
		c4.889-12.058,11.08-23.755,18.538-34.94C370.842,179.018,377.034,190.718,381.924,202.781z M331.45,270.795
		c0-16.69,2.346-33.207,6.919-49.24l18.517,32.075c1.339,2.319,3.812,3.748,6.49,3.75c2.684,0,5.16-1.429,6.5-3.749l18.52-32.066
		c4.571,16.03,6.916,32.543,6.916,49.229v52.145c0,15.023-10.432,27.649-24.431,31.033l0-74.092c0-4.142-3.358-7.5-7.5-7.5
		c-4.145,0.003-7.5,3.36-7.5,7.5l0,74.092c-13.999-3.384-24.431-16.009-24.431-31.033V270.795z M286.45,300.809
		c0,27.005-20.081,49.397-46.093,53.058l0-57.05l30.088-52.094c2.072-3.587,0.843-8.174-2.744-10.246
		c-3.586-2.072-8.174-0.843-10.246,2.744l-17.098,29.604l0-40.008l29.622-51.287c2.072-3.587,0.843-8.174-2.744-10.246
		c-3.588-2.071-8.174-0.843-10.246,2.744l-16.632,28.797l0-40.008l32.448-56.181c9.017,28.051,13.645,57.141,13.645,86.575V300.809z
		 M266.156,82.157l-33.297,57.651l-33.293-57.67c8.516-21.425,19.642-42.131,33.292-61.784
		C246.51,40.012,257.639,60.725,266.156,82.157z M179.264,187.21c0-29.44,4.63-58.536,13.651-86.592l32.443,56.197l0,39.999
		l-16.632-28.809c-2.07-3.588-6.659-4.817-10.245-2.746c-3.587,2.071-4.816,6.658-2.745,10.245l29.622,51.311l0,39.999
		l-17.102-29.623c-2.07-3.587-6.659-4.817-10.245-2.746c-3.587,2.071-4.816,6.658-2.745,10.245l30.092,52.126l0,57.052
		c-26.012-3.66-46.093-26.052-46.093-53.058V187.21z M102.332,234.882l-18.541-32.102c4.889-12.063,11.082-23.763,18.542-34.952
		c7.458,11.185,13.649,22.881,18.537,34.94L102.332,234.882z M70.402,270.795c0-16.686,2.345-33.2,6.916-49.229l18.52,32.065
		c1.34,2.32,3.816,3.75,6.496,3.749c2.681-0.002,5.155-1.43,6.495-3.75l18.516-32.075c4.573,16.033,6.919,32.55,6.919,49.24v52.145
		c0,15.023-10.432,27.649-24.431,31.033v-74.092c0-4.141-3.356-7.498-7.497-7.5c-4.145,0-7.503,3.358-7.503,7.5v74.092
		c-13.998-3.384-24.431-16.009-24.431-31.033V270.795z M15,455v-20.285h22.5c4.142,0,7.5-3.358,7.5-7.5
		c-0.003-4.144-3.359-7.5-7.5-7.5H15V400h440v19.715H67.5c-4.141,0-7.497,3.356-7.5,7.496c0,4.146,3.358,7.504,7.5,7.504H455V455H15
		z"/>
</g>
<g>
</g>
<g>
</g>
<g>
</g>
<g>
</g>
<g>
</g>
<g>
</g>
<g>
</g>
<g>
</g>
<g>
</g>
<g>
</g>
<g>
</g>
<g>
</g>
<g>
</g>
<g>
</g>
<g>
</g>
</svg>
