<?xml version="1.0" encoding="iso-8859-1"?>
<!-- Generator: Adobe Illustrator 19.0.0, SVG Export Plug-In . SVG Version: 6.00 Build 0)  -->
<svg version="1.1" id="Layer_1" xmlns="http://www.w3.org/2000/svg" xmlns:xlink="http://www.w3.org/1999/xlink" x="0px" y="0px"
	 viewBox="0 0 512 512" style="enable-background:new 0 0 512 512;" xml:space="preserve">
<g>
	<path style="fill:#F7EBD4;" d="M8.173,256c35.422,53.825,92.886,95.036,161.54,114.104V141.896
		C101.058,160.964,43.595,202.175,8.173,256z"/>
	<path style="fill:#F7EBD4;" d="M342.288,141.896v228.208c68.654-19.068,126.118-60.279,161.54-114.104
		C468.405,202.175,410.943,160.964,342.288,141.896z"/>
</g>
<path style="fill:#4BBCD6;" d="M169.712,141.896c-34.486,26.119-56.769,67.507-56.769,114.104s22.283,87.984,56.769,114.104
	c27.228,7.562,56.215,11.645,86.288,11.645s59.059-4.083,86.288-11.645c34.486-26.119,56.769-67.507,56.769-114.104
	s-22.283-87.985-56.769-114.104c-27.228-7.562-56.215-11.645-86.288-11.645S196.94,134.334,169.712,141.896z"/>
<path style="fill:#F23E6D;" d="M297.354,200.348c-14.336-5.938-30.118-3.079-41.353,6.088c-11.236-9.167-27.017-12.026-41.353-6.088
	c-20.776,8.606-30.641,32.423-22.035,53.2l24.988,60.325c5.064,12.226,19.081,18.032,31.307,12.968
	c2.692-1.116,5.072-2.666,7.094-4.534c2.022,1.868,4.402,3.418,7.094,4.534c12.226,5.064,26.242-0.742,31.307-12.968l24.988-60.325
	C327.995,232.772,318.129,208.954,297.354,200.348z"/>
<g>
	<circle style="fill:#3E0412;" cx="282.394" cy="238.797" r="8.17"/>
	<path style="fill:#3E0412;" d="M300.48,192.8c-5.977-2.475-12.265-3.731-18.688-3.731c-6.054,0-12.026,1.16-17.621,3.321v-19.956
		c0-4.512-3.658-8.17-8.17-8.17c-4.512,0-8.17,3.658-8.17,8.17v19.956c-5.595-2.161-11.569-3.321-17.622-3.321
		c-6.423,0-12.711,1.255-18.688,3.731c-24.905,10.316-36.773,38.97-26.457,63.874L210.051,317
		c4.993,12.054,16.649,19.841,29.696,19.841c4.225,0,8.359-0.825,12.286-2.451c1.374-0.569,2.699-1.227,3.97-1.972
		c1.27,0.744,2.594,1.402,3.967,1.971c3.927,1.627,8.061,2.452,12.287,2.452c13.047,0,24.703-7.789,29.695-19.841l24.988-60.325
		C337.253,231.77,325.384,203.115,300.48,192.8z M311.842,250.422l-24.989,60.325c-2.454,5.925-8.184,9.754-14.597,9.754
		c-2.068,0-4.099-0.407-6.034-1.208c-1.738-0.72-3.311-1.724-4.676-2.986c-1.565-1.447-3.556-2.17-5.545-2.17
		s-3.979,0.723-5.545,2.17c-1.366,1.263-2.939,2.267-4.677,2.986c-1.936,0.802-3.966,1.208-6.034,1.208
		c-6.414,0-12.144-3.829-14.598-9.755l-24.988-60.325c-6.868-16.58,1.034-35.657,17.614-42.525c3.985-1.65,8.168-2.487,12.435-2.487
		c7.486,0,14.812,2.613,20.627,7.359c0.376,0.3,0.744,0.548,1.13,0.768c0.027,0.015,0.052,0.034,0.08,0.048
		c0.367,0.204,0.754,0.374,1.154,0.52c0.059,0.022,0.115,0.044,0.174,0.064c0.381,0.13,0.775,0.232,1.18,0.304
		c0.069,0.012,0.137,0.021,0.207,0.032c0.405,0.062,0.817,0.104,1.24,0.105c0.431-0.001,0.841-0.042,1.243-0.104
		c0.071-0.011,0.142-0.02,0.212-0.033c0.402-0.072,0.793-0.173,1.172-0.303c0.062-0.021,0.123-0.046,0.185-0.068
		c0.395-0.145,0.78-0.314,1.144-0.515c0.03-0.016,0.059-0.036,0.088-0.053c0.385-0.22,0.751-0.466,1.093-0.744
		c5.847-4.766,13.17-7.379,20.656-7.379c4.267,0,8.451,0.837,12.435,2.487C310.807,214.765,318.708,233.841,311.842,250.422z"/>
	<path style="fill:#3E0412;" d="M404.833,157.682c-44.947-23.29-96.413-35.602-148.833-35.602
		c-52.421,0-103.886,12.311-148.834,35.602c-43.752,22.672-80.342,55.116-105.819,93.827c-1.793,2.726-1.793,6.257,0,8.983
		c25.477,38.711,62.068,71.155,105.819,93.826c44.948,23.29,96.413,35.602,148.834,35.602s103.887-12.311,148.833-35.602
		c43.751-22.671,80.343-55.116,105.819-93.826c1.794-2.726,1.794-6.257,0-8.983C485.176,212.798,448.584,180.352,404.833,157.682z
		 M18.027,256c28.764-41.614,70.784-74.122,119.681-94.31c-21.216,26.459-32.935,59.361-32.935,94.31s11.719,67.85,32.935,94.31
		C88.811,330.121,46.792,297.613,18.027,256z M173.17,362.441c-33.102-25.775-52.057-64.456-52.057-106.441
		s18.955-80.665,52.058-106.441c26.485-7.278,54.377-11.139,82.83-11.139c28.452,0,56.345,3.861,82.83,11.139
		c33.101,25.776,52.056,64.456,52.056,106.441s-18.955,80.664-52.056,106.441c-26.485,7.278-54.378,11.139-82.83,11.139
		C227.548,373.579,199.655,369.719,173.17,362.441z M374.292,350.309c21.216-26.458,32.934-59.36,32.934-94.309
		s-11.718-67.85-32.934-94.31c48.897,20.188,90.916,52.695,119.681,94.31C465.209,297.613,423.19,330.121,374.292,350.309z"/>
	<path style="fill:#3E0412;" d="M417.364,378.498c-48.804,25.289-104.602,38.656-161.364,38.656s-112.562-13.367-161.364-38.656
		c-4.006-2.074-8.937-0.511-11.013,3.495c-2.076,4.007-0.511,8.937,3.495,11.013c51.116,26.488,109.515,40.488,168.882,40.488
		s117.766-14,168.881-40.488c4.007-2.076,5.571-7.007,3.496-11.013C426.302,377.986,421.369,376.423,417.364,378.498z"/>
	<path style="fill:#3E0412;" d="M8.171,195.233c2.118,0,4.234-0.818,5.835-2.451c23.139-23.601,50.267-43.547,80.632-59.28
		c48.803-25.288,104.602-38.655,161.364-38.655c47.166,0,94.584,9.447,137.127,27.32c4.161,1.748,8.95-0.207,10.697-4.368
		c1.747-4.16-0.208-8.949-4.368-10.696C354.926,88.396,305.32,78.506,256,78.506c-59.368,0-117.766,14-168.881,40.487
		c-31.904,16.532-60.429,37.511-84.782,62.35c-3.159,3.222-3.108,8.395,0.114,11.554C4.041,194.456,6.106,195.233,8.171,195.233z"/>
	<path style="fill:#3E0412;" d="M421.955,135.936c28.519,15.342,54.103,34.469,76.042,56.847c1.6,1.632,3.716,2.451,5.833,2.451
		c2.064,0,4.13-0.777,5.719-2.337c3.222-3.158,3.274-8.331,0.114-11.554c-23.092-23.555-49.997-43.673-79.967-59.798
		c-3.976-2.137-8.928-0.648-11.066,3.325C416.493,128.844,417.981,133.799,421.955,135.936z"/>
</g>
<g>
</g>
<g>
</g>
<g>
</g>
<g>
</g>
<g>
</g>
<g>
</g>
<g>
</g>
<g>
</g>
<g>
</g>
<g>
</g>
<g>
</g>
<g>
</g>
<g>
</g>
<g>
</g>
<g>
</g>
</svg>
