<?xml version="1.0" encoding="iso-8859-1"?>
<!-- Generator: Adobe Illustrator 19.0.0, SVG Export Plug-In . SVG Version: 6.00 Build 0)  -->
<svg version="1.1" id="Capa_1" xmlns="http://www.w3.org/2000/svg" xmlns:xlink="http://www.w3.org/1999/xlink" x="0px" y="0px"
	 viewBox="0 0 511.998 511.998" style="enable-background:new 0 0 511.998 511.998;" xml:space="preserve">
<g>
	
		<rect x="107.234" y="160.722" transform="matrix(-0.9973 0.0729 -0.0729 -0.9973 257.0102 479.1907)" style="fill:#F49D18;" width="25.051" height="167.128"/>
	<polygon style="fill:#F49D18;" points="107.485,76.233 58.063,100.778 62.747,124.25 112.22,141.047 158.727,117.238 
		159.951,93.334 	"/>
</g>
<polygon style="fill:#DB8D15;" points="82.749,114.165 82.749,114.165 78.638,90.559 58.063,100.778 59.231,106.631 62.747,124.25 
	85.874,132.103 "/>
<g>
	<path style="fill:#FBBF0D;" d="M153.576,51.931l-95.224,6.957c-4.529,0.331-7.744,4.555-6.855,9.009l6.565,32.881l101.889-7.444
		l1.716-33.486C161.9,55.313,158.106,51.6,153.576,51.931z"/>
	<path style="fill:#FBBF0D;" d="M158.727,117.238l-1.742,33.958c-0.567,11.146-5.246,21.201-12.566,28.679
		c-7.312,7.477-17.272,12.374-28.403,13.187c-22.254,1.626-42.24-13.588-46.61-35.468l-6.659-33.344L158.727,117.238z"/>
</g>
<g>
	<path style="fill:#E0AB0A;" d="M117.916,192.879c0.408-0.048,0.813-0.107,1.218-0.167c0.192-0.028,0.385-0.053,0.577-0.083
		c0.526-0.084,1.049-0.178,1.569-0.28c0.051-0.01,0.101-0.019,0.152-0.029c0.568-0.114,1.133-0.237,1.694-0.372
		c-16.687-4.285-30.217-19.465-33.718-39.561l-5.174-29.707l-21.485,1.569l0,0l0,0l6.659,33.344
		c3.807,19.064,19.471,33.061,38.157,35.275c1.421,0.168,2.858,0.273,4.31,0.302c1.37,0.028,2.751-0.008,4.142-0.11
		C116.654,193.015,117.287,192.952,117.916,192.879z"/>
	<path style="fill:#E0AB0A;" d="M51.378,67.038c0.024,0.285,0.063,0.571,0.12,0.859l6.565,32.881l22.075-1.613l-2.073-11.906
		l-5.126-29.437l-4.089,0.299l-10.496,0.767c-0.849,0.062-1.652,0.261-2.39,0.573c-0.246,0.104-0.485,0.22-0.716,0.348
		C52.711,61.212,51.124,64.016,51.378,67.038z"/>
</g>
<path style="fill:#44C2A7;" d="M378.934,323.979l43.834-19.751c13.515-6.09,29.412-0.07,35.502,13.446
	c6.091,13.517,0.07,29.413-13.446,35.502l-47.226,21.279L378.934,323.979z"/>
<path style="fill:#1F967E;" d="M444.824,333.176l-47.226,21.279l-12.324-33.332l-6.34,2.856l18.663,50.478l47.226-21.279
	c13.177-5.937,19.225-21.191,13.877-34.478C456.208,324.912,451.409,330.208,444.824,333.176z"/>
<path style="fill:#44C2A7;" d="M177.285,323.979l-43.834-19.751c-13.515-6.09-29.412-0.07-35.502,13.446
	c-6.091,13.517-0.07,29.413,13.446,35.502l47.226,21.279L177.285,323.979z"/>
<path style="fill:#1F967E;" d="M158.623,354.455l-47.226-21.279c-6.585-2.966-11.384-8.264-13.877-14.476
	c-5.347,13.286,0.7,28.542,13.877,34.478l47.226,21.279l18.663-50.478l-6.34-2.856L158.623,354.455z"/>
<circle style="fill:#EEEEEC;" cx="278.113" cy="370.592" r="133.922"/>
<path style="fill:#D4D3D3;" d="M184.188,370.596c0-67.167,49.446-122.781,113.923-132.437c-6.526-0.977-13.204-1.488-20.002-1.488
	c-73.965,0-133.925,59.96-133.925,133.925s59.96,133.925,133.925,133.925c6.798,0,13.476-0.51,20.002-1.488
	C233.635,493.377,184.188,437.763,184.188,370.596z"/>
<path style="fill:#D13834;" d="M400.53,274.48l-35.35-35.144l-38.553,38.778l35.349,35.144c3.395,3.375,8.883,3.359,12.258-0.036
	l26.331-26.485C403.941,283.343,403.925,277.856,400.53,274.48z"/>
<path style="fill:#E95552;" d="M357.247,194.108c30.041,26.014,35.992,107.886-79.136,107.886s-109.177-81.871-79.136-107.886
	L357.247,194.108L357.247,194.108z"/>
<path style="fill:#D13834;" d="M228.976,194.108h-30.002c-23.454,20.311-32.222,74.667,19.849,97.528
	C202.659,257.504,211.935,213.81,228.976,194.108z"/>
<circle style="fill:#EEEEEC;" cx="278.113" cy="168.654" r="83.117"/>
<path style="fill:#D4D3D3;" d="M214.999,158.393c0-23.252,7.568-44.516,20.084-60.86c-24.028,14.568-40.086,40.969-40.086,71.12
	c0,45.902,37.211,83.113,83.113,83.113c3.461,0,6.866-0.237,10.216-0.647C247.037,245.676,214.999,206.241,214.999,158.393z"/>
<g>
	<circle style="fill:#424342;" cx="278.113" cy="339.849" r="15.367"/>
	<circle style="fill:#424342;" cx="278.113" cy="392.584" r="15.367"/>
	<circle style="fill:#424342;" cx="278.113" cy="445.319" r="15.367"/>
</g>
<g>
	<circle style="fill:#E95552;" cx="278.113" cy="168.654" r="17.725"/>
	<path style="fill:#E95552;" d="M211.889,85.539c0-50.678,122.615-114.308,179.618-52.666v16.57
		c-39.107-8.617-47.176,36.095-47.176,36.095l-66.223,16.443L211.889,85.539z"/>
</g>
<circle style="fill:#E3F0FB;" cx="391.504" cy="41.822" r="23.202"/>
<path style="fill:#CAD6DF;" d="M401.508,55.02c-12.812,0-23.199-10.386-23.199-23.199c0-3.829,0.933-7.439,2.576-10.621
	c-7.468,3.854-12.577,11.639-12.577,20.622c0,12.812,10.386,23.199,23.199,23.199c8.983,0,16.768-5.109,20.622-12.577
	C408.947,54.086,405.338,55.02,401.508,55.02z"/>
<rect x="211.887" y="85.536" style="fill:#44C2A7;" width="132.442" height="32.888"/>
<rect x="211.887" y="85.536" style="fill:#1F967E;" width="20.002" height="32.888"/>
<path d="M278.149,362.694c12.609,0,22.868-10.259,22.868-22.868c0-12.609-10.258-22.868-22.868-22.868s-22.868,10.258-22.868,22.868
	C255.281,352.436,265.54,362.694,278.149,362.694z M278.149,331.96c4.337,0,7.867,3.528,7.867,7.867
	c0,4.338-3.528,7.867-7.867,7.867s-7.867-3.529-7.867-7.867C270.283,335.489,273.812,331.96,278.149,331.96z"/>
<path d="M278.149,415.43c12.609,0,22.868-10.259,22.868-22.868s-10.258-22.868-22.868-22.868s-22.868,10.258-22.868,22.868
	S265.54,415.43,278.149,415.43z M278.149,384.695c4.337,0,7.867,3.528,7.867,7.867s-3.528,7.867-7.867,7.867
	s-7.867-3.529-7.867-7.867S273.812,384.695,278.149,384.695z"/>
<path d="M278.149,468.166c12.609,0,22.868-10.259,22.868-22.868s-10.258-22.868-22.868-22.868s-22.868,10.258-22.868,22.868
	S265.54,468.166,278.149,468.166z M278.149,437.431c4.337,0,7.867,3.528,7.867,7.867s-3.528,7.867-7.867,7.867
	s-7.867-3.529-7.867-7.867S273.812,437.431,278.149,437.431z"/>
<path d="M278.149,193.855c13.909,0,25.225-11.316,25.225-25.225s-11.316-25.225-25.225-25.225s-25.225,11.316-25.225,25.225
	S264.24,193.855,278.149,193.855z M278.149,158.405c5.638,0,10.224,4.586,10.224,10.224s-4.586,10.224-10.224,10.224
	s-10.224-4.586-10.224-10.224S272.512,158.405,278.149,158.405z"/>
<path d="M306.275,198.587c-3.397-2.37-8.073-1.536-10.443,1.862c-3.529,5.061-10.305,8.205-17.682,8.205
	c-7.379,0-14.155-3.145-17.685-8.208c-2.369-3.397-7.044-4.233-10.442-1.864s-4.232,7.045-1.864,10.443
	c6.386,9.161,17.598,14.63,29.991,14.63c12.39,0,23.6-5.467,29.986-14.625C310.506,205.631,309.672,200.956,306.275,198.587z"/>
<circle cx="240.26" cy="149.672" r="10.439"/>
<circle cx="316.037" cy="149.672" r="10.439"/>
<path d="M169.198,60.209c0.21-4.101-1.291-8.16-4.118-11.136c-3.082-3.244-7.476-4.978-12.01-4.646l-95.223,6.957
	c-4.303,0.314-8.271,2.464-10.883,5.898s-3.625,7.83-2.781,12.06l17.908,89.698c3.694,18.498,17.108,33.094,34.243,38.897
	l7.447,101.941c-5.428,3.521-9.868,8.567-12.629,14.693c-3.768,8.365-4.054,17.696-0.805,26.274
	c3.249,8.58,9.646,15.379,18.009,19.148l28.399,12.795c1.189,76.964,64.156,139.211,141.398,139.211s140.209-62.247,141.398-139.211
	c0,0,28.389-12.791,28.398-12.795c17.045-7.681,24.89-28.363,17.204-45.422c-7.661-17.004-28.427-24.86-45.422-17.203l-16.409,7.394
	c-1.153-2.188-2.358-4.351-3.63-6.484c0,0,6.234-6.27,6.238-6.274c6.217-6.253,6.181-16.655-0.067-22.865l-23.076-22.943
	c2.812-21.275-5.404-42.016-17.037-54.355c1.965-7.412,3.018-15.19,3.018-23.211c0-19.082-5.841-37.222-16.892-52.651V86.297
	c0.693-3.053,4.605-18.177,15.296-25.869c5.616,7.332,14.452,12.072,24.379,12.072c16.928,0,30.7-13.772,30.7-30.7
	s-13.772-30.7-30.7-30.7c-4.18,0-8.168,0.843-11.803,2.363c-39.023-24.271-90.575-11.837-123.647,6.758
	c-3.611,2.03-4.892,6.604-2.862,10.214s6.604,4.891,10.214,2.862c42.995-24.174,80.711-21.055,103.426-9.793
	c-1.161,1.56-2.147,3.235-2.987,4.983c-2.657,5.528-3.558,11.755-2.705,17.82c0.004,0.031,0.006,0.063,0.011,0.094
	c-13.646,8.159-20.005,23.163-22.623,31.615H220.536c2.585-9.15,9.612-19.226,20.137-28.628c3.089-2.76,3.356-7.502,0.597-10.591
	c-2.759-3.089-7.502-3.357-10.591-0.597c-16.928,15.121-26.25,31.925-26.25,47.316v30.461
	c-11.052,15.428-16.893,33.57-16.893,52.653c0,8.021,1.053,15.799,3.018,23.211c-14.119,14.978-23.219,42.34-13.653,67.999
	c1.062,2.85,2.341,5.604,3.816,8.256c-11.286,10.733-20.619,23.136-27.736,36.666l-8.979-4.045l-7.721-105.682
	c4.981-2.533,9.563-5.87,13.536-9.934c8.837-9.026,14.056-20.939,14.697-33.541L169.198,60.209z M407.246,41.799
	c0,8.656-7.043,15.698-15.698,15.698c-8.434,0-15.698-7.248-15.698-15.698c0-8.527,7.182-15.697,15.698-15.697
	C400.203,26.1,407.246,33.143,407.246,41.799z M67.12,107.616l84.945-6.206l-0.451,8.806l-73.292,5.354l-9.477,0.692L67.12,107.616z
	 M154.216,59.441l-1.377,26.871l-8.633,0.631L64.172,92.79l-5.233-26.445L154.216,59.441z M409.607,318.381l16.282-7.337
	c9.614-4.331,21.253,0.082,25.581,9.689c4.337,9.626-0.088,21.257-9.689,25.582l-22.905,10.321
	c-0.004-0.038-0.009-0.075-0.013-0.113c-1.314-12.734-4.315-25.495-9.022-37.519C409.761,318.797,409.689,318.587,409.607,318.381z
	 M395.626,280.601c0.001,0.221-0.058,0.543-0.339,0.826l-26.331,26.484c-0.443,0.449-1.203,0.453-1.65,0.005l-15.489-15.399
	c14.168-8.792,22.059-19.643,26.4-29.708l17.066,16.968C395.565,280.059,395.626,280.381,395.626,280.601z M336.871,93.016v17.887
	H219.43V93.016H336.871z M215.769,125.905h124.762c8.668,12.604,13.231,27.299,13.231,42.725c0,37.753-27.813,69.13-64.023,74.724
	c-3.832,0.592-7.712,0.889-11.589,0.889c-3.872,0-7.762-0.306-11.589-0.889c-36.211-5.594-64.023-36.971-64.023-74.724
	C202.538,153.205,207.101,138.509,215.769,125.905z M196.636,208.259c12.909,26.675,37.987,45.233,67.201,49.85
	c9.487,1.499,19.137,1.472,28.625,0c29.214-4.617,54.292-23.175,67.201-49.85c6.818,10.461,10.574,25.204,7.65,39.443
	c-0.789,3.823-2.06,7.554-3.772,11.063c-15.48,31.735-58.466,36.229-89.471,35.667c-30.547-0.554-70.923-7.142-83.111-39.832
	C184.911,238.381,188.708,220.424,196.636,208.259z M189.608,280.348c4.853,5.253,10.462,9.603,16.566,13.194
	c20.832,12.26,45.497,15.625,69.294,15.911c20.732,0.249,41.982-1.828,61.403-9.507c0.272-0.107,0.552-0.208,0.822-0.317
	c0,0,19.019,18.909,19.036,18.926c6.23,6.194,16.669,6.164,22.866-0.067l9.144-9.197c10.362,18.642,15.836,39.96,15.836,61.28
	c0,69.711-56.713,126.424-126.424,126.424s-126.424-56.713-126.424-126.424C151.725,337.05,165.536,303.975,189.608,280.348z
	 M137.76,353.583c-0.121,1.015-0.25,2.031-0.35,3.048c0,0-22.881-10.31-22.893-10.315c-9.607-4.328-14.021-15.966-9.69-25.581
	c3.058-6.789,10.215-11.401,17.66-11.401c4.179,0,7.518,1.761,11.288,3.228l12.904,5.815
	C142.171,329.696,139.202,341.477,137.76,353.583z M121.597,199.91l6.937,94.958c-0.11-0.02-3.037-0.43-4.401-0.495
	c-1.897-0.09-3.813-0.027-5.7,0.196l-6.862-93.926c1.674,0.04,3.358,0,5.045-0.124c1.574-0.115,3.252-0.32,4.847-0.589
	C121.508,199.922,121.553,199.917,121.597,199.91z M149.534,150.791c-0.936,18.242-15.814,33.435-34.025,34.767
	c-18.232,1.334-35.13-11.543-38.707-29.457l-4.995-25.013l79.035-5.774C150.841,125.315,149.535,150.781,149.534,150.791z"/>


</svg>
