<?xml version="1.0" encoding="iso-8859-1"?>
<!-- Generator: Adobe Illustrator 19.1.0, SVG Export Plug-In . SVG Version: 6.00 Build 0)  -->
<svg version="1.1" id="Capa_1" xmlns="http://www.w3.org/2000/svg" xmlns:xlink="http://www.w3.org/1999/xlink" x="0px" y="0px"
	 viewBox="0 0 470 470" style="enable-background:new 0 0 470 470;" xml:space="preserve">
<g>
	<path style="fill:#F3F0E0;" d="M377.047,298.357c-4.478-45.047-30.563-85.667-69.779-108.658c-1.973-1.156-3.31-3.149-3.632-5.413
		c-0.322-2.263,0.405-4.55,1.976-6.211c17.042-18.018,26.428-41.603,26.428-66.409c0-53.302-43.364-96.667-96.667-96.667
		s-96.667,43.365-96.667,96.667c0,24.806,9.386,48.391,26.428,66.409c1.57,1.661,2.298,3.948,1.976,6.211
		c-0.322,2.264-1.659,4.256-3.632,5.413c-43.479,25.49-70.489,72.588-70.489,122.916C92.988,391.126,156.862,455,235.372,455
		c73.51,0,134.418-55.082,141.677-128.126c0.403-4.06,3.975-7.036,8.02-6.731c0.123-2.494,0.188-5.003,0.188-7.527
		c0-2.526-0.084-5.032-0.207-7.527C380.997,305.385,377.45,302.411,377.047,298.357z M168.004,88.274
		c4.596-14.144,17.67-23.646,32.533-23.646c0.599,0,1.196,0.016,1.793,0.047c3.925-14.572,17.277-25.347,33.042-25.347
		s29.117,10.774,33.042,25.347c0.597-0.031,1.194-0.047,1.793-0.047c14.863,0,27.938,9.502,32.533,23.646
		c4.872,14.996-1.252,31.026-13.901,39.262c5.393,14.098,0.925,30.667-11.831,39.934c-5.885,4.276-12.83,6.536-20.086,6.536
		c-7.9,0-15.515-2.763-21.55-7.636c-6.035,4.873-13.649,7.636-21.55,7.636c-7.256,0-14.201-2.26-20.086-6.536
		c-12.756-9.267-17.224-25.836-11.831-39.934C169.256,119.301,163.132,103.27,168.004,88.274z M322.015,337.21
		c11.339,23.256,4.692,52.131-16.911,67.827c-9.353,6.795-20.39,10.387-31.918,10.387c-14.168,0-27.755-5.589-37.813-15.278
		c-10.058,9.688-23.644,15.277-37.81,15.278c-11.534-0.001-22.571-3.593-31.922-10.387c-21.604-15.695-28.25-44.57-16.911-67.826
		c-22.843-12.149-34.437-39.416-26.187-64.812c7.304-22.479,28.082-37.581,51.703-37.581c2.538,0,5.069,0.179,7.579,0.534
		c4.498-25.477,26.846-44.928,53.547-44.928s49.049,19.451,53.547,44.928c2.51-0.355,5.041-0.534,7.579-0.534
		c23.621,0,44.399,15.103,51.703,37.581C356.452,297.795,344.858,325.062,322.015,337.21z"/>
	<path style="fill:#E8B9AC;" d="M235.372,122.442c6.771,0,12.278-5.508,12.278-12.278s-5.508-12.279-12.278-12.279
		s-12.278,5.508-12.278,12.279S228.602,122.442,235.372,122.442z"/>
	<path style="fill:#BC6190;" d="M194.508,117.086c2.267,0.75,4.04,2.533,4.777,4.803c0.737,2.27,0.351,4.755-1.042,6.694
		c-6.147,8.558-4.215,20.559,4.31,26.752c3.306,2.401,7.202,3.67,11.27,3.67c6.103,0,11.899-2.93,15.506-7.839
		c1.413-1.923,3.657-3.059,6.044-3.059s4.631,1.136,6.044,3.059c3.606,4.909,9.403,7.839,15.506,7.839
		c4.067,0,7.964-1.269,11.27-3.67c8.524-6.194,10.457-18.195,4.31-26.752c-1.393-1.938-1.779-4.424-1.042-6.694
		c0.737-2.27,2.511-4.053,4.777-4.803c10.004-3.31,15.494-14.155,12.238-24.177c-2.582-7.944-9.923-13.281-18.268-13.281
		c-1.974,0-3.94,0.308-5.845,0.916c-2.276,0.728-4.758,0.325-6.688-1.078c-1.932-1.403-3.079-3.641-3.092-6.027
		c-0.056-10.537-8.674-19.11-19.211-19.11s-19.155,8.573-19.211,19.11c-0.013,2.387-1.16,4.625-3.092,6.027
		c-1.93,1.403-4.412,1.805-6.688,1.078c-1.904-0.607-3.871-0.916-5.845-0.916c-8.345,0-15.686,5.337-18.268,13.282
		C179.014,102.931,184.504,113.776,194.508,117.086z M235.372,82.885c15.041,0,27.278,12.237,27.278,27.279
		s-12.237,27.278-27.278,27.278s-27.278-12.237-27.278-27.278S220.331,82.885,235.372,82.885z"/>
	<path style="fill:#3E2C3A;" d="M235.372,137.442c15.041,0,27.278-12.237,27.278-27.278s-12.237-27.279-27.278-27.279
		s-27.278,12.237-27.278,27.279S220.331,137.442,235.372,137.442z M235.372,97.885c6.771,0,12.278,5.508,12.278,12.279
		s-5.508,12.278-12.278,12.278s-12.278-5.508-12.278-12.278S228.602,97.885,235.372,97.885z"/>
	<path style="fill:#3E2C3A;" d="M181.906,127.536c-5.393,14.098-0.925,30.667,11.831,39.934c5.885,4.276,12.83,6.536,20.086,6.536
		c7.9,0,15.515-2.763,21.55-7.636c6.035,4.873,13.649,7.636,21.55,7.636c7.256,0,14.201-2.26,20.086-6.536
		c12.756-9.267,17.224-25.836,11.831-39.934c12.649-8.236,18.773-24.267,13.901-39.262c-4.596-14.144-17.67-23.646-32.533-23.646
		c-0.599,0-1.196,0.016-1.793,0.047c-3.925-14.572-17.277-25.347-33.042-25.347s-29.117,10.774-33.042,25.347
		c-0.597-0.031-1.194-0.047-1.793-0.047c-14.863,0-27.938,9.502-32.533,23.646C163.132,103.27,169.256,119.301,181.906,127.536z
		 M182.27,92.91c2.582-7.944,9.923-13.282,18.268-13.282c1.974,0,3.94,0.308,5.845,0.916c2.275,0.728,4.758,0.325,6.688-1.078
		c1.932-1.403,3.079-3.641,3.092-6.027c0.056-10.537,8.674-19.11,19.211-19.11s19.155,8.573,19.211,19.11
		c0.013,2.387,1.16,4.625,3.092,6.027c1.93,1.403,4.411,1.805,6.688,1.078c1.904-0.607,3.871-0.916,5.845-0.916
		c8.345,0,15.686,5.337,18.268,13.281c3.256,10.021-2.234,20.867-12.238,24.177c-2.267,0.75-4.04,2.533-4.777,4.803
		c-0.737,2.27-0.351,4.755,1.042,6.694c6.147,8.558,4.215,20.559-4.31,26.752c-3.306,2.401-7.202,3.67-11.27,3.67
		c-6.103,0-11.899-2.93-15.506-7.839c-1.413-1.923-3.657-3.059-6.044-3.059s-4.631,1.136-6.044,3.059
		c-3.606,4.909-9.403,7.839-15.506,7.839c-4.067,0-7.964-1.269-11.27-3.67c-8.524-6.194-10.457-18.195-4.31-26.752
		c1.393-1.938,1.779-4.424,1.042-6.694c-0.737-2.27-2.511-4.053-4.777-4.803C184.504,113.776,179.014,102.931,182.27,92.91z"/>
	<path style="fill:#E8B9AC;" d="M262.578,309.059c0-15.001-12.204-27.206-27.206-27.206s-27.206,12.205-27.206,27.206
		c0,15.001,12.204,27.206,27.206,27.206S262.578,324.06,262.578,309.059z"/>
	<path style="fill:#8D496C;" d="M333.936,277.034c-5.29-16.279-20.335-27.216-37.438-27.216c-4.048,0-8.077,0.63-11.976,1.874
		c-2.275,0.726-4.759,0.325-6.688-1.077c-1.931-1.403-3.079-3.641-3.092-6.028c-0.115-21.595-17.777-39.163-39.371-39.163
		s-39.256,17.568-39.371,39.163c-0.013,2.387-1.161,4.625-3.092,6.028c-1.93,1.402-4.411,1.803-6.688,1.077
		c-3.898-1.244-7.928-1.874-11.976-1.874c-17.103,0-32.147,10.937-37.438,27.216c-6.673,20.537,4.578,42.763,25.08,49.545
		c2.266,0.75,4.04,2.533,4.777,4.803c0.737,2.27,0.351,4.755-1.042,6.694c-12.6,17.539-8.637,42.133,8.833,54.825
		c6.772,4.92,14.761,7.521,23.102,7.522c12.505,0,24.379-6.005,31.77-16.064c1.413-1.923,3.657-3.059,6.044-3.059
		s4.631,1.136,6.044,3.059c7.391,10.059,19.268,16.064,31.77,16.064c8.34,0,16.328-2.601,23.102-7.522
		c17.47-12.693,21.433-37.287,8.833-54.826c-1.393-1.938-1.779-4.424-1.042-6.694c0.737-2.27,2.512-4.053,4.777-4.803
		C329.358,319.797,340.609,297.571,333.936,277.034z M277.578,309.059c0,1.934-0.142,3.834-0.396,5.699l7.779,2.528
		c3.939,1.28,6.096,5.511,4.815,9.451c-1.029,3.169-3.97,5.184-7.131,5.184c-0.769,0-1.55-0.119-2.319-0.369l-7.781-2.528
		c-1.817,3.37-4.085,6.46-6.713,9.203l4.822,6.637c2.435,3.351,1.692,8.042-1.659,10.476c-1.331,0.967-2.874,1.433-4.402,1.433
		c-2.319,0-4.606-1.072-6.073-3.092l-4.806-6.615c-3.387,1.641-7.028,2.831-10.843,3.519v8.181c0,4.142-3.357,7.5-7.5,7.5
		s-7.5-3.358-7.5-7.5v-8.181c-3.814-0.687-7.456-1.878-10.843-3.519l-4.806,6.615c-1.467,2.02-3.755,3.092-6.073,3.092
		c-1.529,0-3.071-0.465-4.402-1.433c-3.352-2.435-4.094-7.125-1.659-10.476l4.822-6.637c-2.628-2.743-4.896-5.833-6.713-9.203
		l-7.781,2.528c-0.77,0.25-1.551,0.369-2.319,0.369c-3.161,0-6.102-2.015-7.131-5.184c-1.28-3.939,0.876-8.171,4.815-9.451
		l7.779-2.528c-0.253-1.865-0.396-3.766-0.396-5.699c0-1.934,0.142-3.834,0.396-5.699l-7.779-2.528
		c-3.939-1.28-6.096-5.511-4.815-9.451s5.517-6.096,9.45-4.815l7.781,2.528c1.817-3.37,4.085-6.46,6.713-9.203l-4.822-6.637
		c-2.435-3.351-1.692-8.042,1.659-10.476c3.353-2.433,8.043-1.691,10.476,1.66l4.806,6.615c3.387-1.641,7.028-2.832,10.843-3.519
		v-8.181c0-4.142,3.357-7.5,7.5-7.5s7.5,3.358,7.5,7.5v8.181c3.814,0.687,7.456,1.878,10.843,3.519l4.806-6.615
		c2.436-3.353,7.127-4.093,10.476-1.66c3.352,2.435,4.094,7.125,1.659,10.476l-4.822,6.637c2.628,2.743,4.896,5.833,6.713,9.203
		l7.781-2.528c3.935-1.281,8.171,0.875,9.45,4.815c1.28,3.939-0.876,8.171-4.815,9.451l-7.779,2.528
		C277.436,305.225,277.578,307.125,277.578,309.059z"/>
	<path style="fill:#3E2C3A;" d="M296.498,234.818c-2.538,0-5.069,0.179-7.579,0.534c-4.498-25.477-26.846-44.928-53.547-44.928
		s-49.049,19.451-53.547,44.928c-2.51-0.355-5.041-0.534-7.579-0.534c-23.621,0-44.399,15.103-51.703,37.581
		c-8.251,25.396,3.344,52.663,26.187,64.812c-11.339,23.256-4.692,52.131,16.911,67.826c9.351,6.794,20.388,10.386,31.917,10.387
		c14.171,0,27.757-5.59,37.814-15.278c10.059,9.688,23.646,15.278,37.813,15.278c11.528,0,22.565-3.592,31.918-10.387
		c21.604-15.696,28.25-44.571,16.911-67.827c22.843-12.149,34.438-39.416,26.187-64.812
		C340.898,249.92,320.119,234.818,296.498,234.818z M308.856,326.58c-2.266,0.75-4.04,2.533-4.777,4.803
		c-0.737,2.27-0.351,4.755,1.042,6.694c12.6,17.539,8.637,42.133-8.833,54.826c-6.773,4.921-14.762,7.522-23.102,7.522
		c-12.502,0-24.379-6.005-31.77-16.064c-1.413-1.923-3.657-3.059-6.044-3.059s-4.631,1.136-6.044,3.059
		c-7.391,10.06-19.265,16.064-31.766,16.064c-8.345-0.001-16.333-2.602-23.105-7.522c-17.47-12.692-21.433-37.287-8.833-54.825
		c1.393-1.938,1.779-4.424,1.042-6.694c-0.737-2.27-2.512-4.053-4.777-4.803c-20.502-6.783-31.753-29.009-25.08-49.545
		c5.29-16.279,20.335-27.216,37.438-27.216c4.048,0,8.077,0.63,11.976,1.874c2.276,0.726,4.758,0.325,6.688-1.077
		c1.931-1.403,3.079-3.641,3.092-6.028c0.115-21.595,17.777-39.163,39.371-39.163s39.256,17.568,39.371,39.163
		c0.013,2.387,1.161,4.625,3.092,6.028c1.929,1.402,4.412,1.803,6.688,1.077c3.898-1.244,7.928-1.874,11.976-1.874
		c17.103,0,32.147,10.937,37.438,27.216C340.609,297.571,329.358,319.797,308.856,326.58z"/>
	<path style="fill:#3E2C3A;" d="M289.778,291.381c-1.279-3.94-5.516-6.096-9.45-4.815l-7.781,2.528
		c-1.817-3.37-4.085-6.46-6.713-9.203l4.822-6.637c2.435-3.351,1.692-8.042-1.659-10.476c-3.349-2.433-8.04-1.693-10.476,1.66
		l-4.806,6.615c-3.387-1.641-7.028-2.832-10.843-3.519v-8.181c0-4.142-3.357-7.5-7.5-7.5s-7.5,3.358-7.5,7.5v8.181
		c-3.814,0.687-7.456,1.878-10.843,3.519l-4.806-6.615c-2.433-3.351-7.123-4.093-10.476-1.66c-3.352,2.435-4.094,7.125-1.659,10.476
		l4.822,6.637c-2.628,2.743-4.896,5.833-6.713,9.203l-7.781-2.528c-3.934-1.281-8.17,0.875-9.45,4.815s0.876,8.171,4.815,9.451
		l7.779,2.528c-0.253,1.865-0.396,3.766-0.396,5.699c0,1.934,0.142,3.834,0.396,5.699l-7.779,2.528
		c-3.939,1.28-6.096,5.511-4.815,9.451c1.029,3.169,3.97,5.184,7.131,5.184c0.769,0,1.55-0.119,2.319-0.369l7.781-2.528
		c1.817,3.37,4.085,6.46,6.713,9.203l-4.822,6.637c-2.435,3.351-1.692,8.042,1.659,10.476c1.331,0.967,2.873,1.433,4.402,1.433
		c2.318,0,4.606-1.072,6.073-3.092l4.806-6.615c3.387,1.641,7.028,2.831,10.843,3.519v8.181c0,4.142,3.357,7.5,7.5,7.5
		s7.5-3.358,7.5-7.5v-8.181c3.814-0.687,7.456-1.878,10.843-3.519l4.806,6.615c1.467,2.02,3.754,3.092,6.073,3.092
		c1.528,0,3.071-0.466,4.402-1.433c3.352-2.435,4.094-7.125,1.659-10.476l-4.822-6.637c2.628-2.743,4.896-5.833,6.713-9.203
		l7.781,2.528c0.77,0.25,1.551,0.369,2.319,0.369c3.161,0,6.102-2.015,7.131-5.184c1.28-3.939-0.876-8.171-4.815-9.451l-7.779-2.528
		c0.253-1.865,0.396-3.766,0.396-5.699c0-1.934-0.142-3.834-0.396-5.699l7.779-2.528
		C288.902,299.552,291.058,295.321,289.778,291.381z M235.372,336.265c-15.002,0-27.206-12.205-27.206-27.206
		c0-15.001,12.204-27.206,27.206-27.206s27.206,12.205,27.206,27.206C262.578,324.06,250.374,336.265,235.372,336.265z"/>
	<path style="fill:#3E2C3A;" d="M385.253,320.152c-0.062-0.006-0.123-0.004-0.185-0.009c-4.044-0.305-7.616,2.671-8.02,6.731
		C369.79,399.918,308.882,455,235.372,455c-78.511,0-142.385-63.874-142.385-142.384c0-50.328,27.01-97.426,70.489-122.916
		c1.973-1.156,3.31-3.149,3.632-5.413c0.322-2.263-0.405-4.55-1.976-6.211c-17.042-18.018-26.428-41.603-26.428-66.409
		C138.705,58.365,182.07,15,235.372,15s96.667,43.365,96.667,96.667c0,24.806-9.386,48.391-26.428,66.409
		c-1.57,1.661-2.298,3.948-1.976,6.211c0.322,2.264,1.659,4.256,3.632,5.413c39.216,22.991,65.302,63.61,69.779,108.658
		c0.402,4.054,3.95,7.028,8.002,6.732c0.068-0.005,0.135-0.003,0.203-0.01c4.121-0.41,7.131-4.083,6.721-8.205
		c-4.652-46.819-30.411-89.308-69.487-115.341c15.894-19.773,24.554-44.257,24.554-69.866C347.039,50.094,296.946,0,235.372,0
		S123.705,50.094,123.705,111.667c0,25.609,8.66,50.093,24.554,69.866c-19.918,13.266-36.674,30.982-48.79,51.669
		c-14.053,23.996-21.481,51.456-21.481,79.414C77.988,399.397,148.59,470,235.372,470c39.291,0,76.915-14.56,105.941-40.997
		c28.829-26.258,46.821-62.001,50.661-100.646C392.385,324.235,389.375,320.562,385.253,320.152z"/>
</g>
<g>
</g>
<g>
</g>
<g>
</g>
<g>
</g>
<g>
</g>
<g>
</g>
<g>
</g>
<g>
</g>
<g>
</g>
<g>
</g>
<g>
</g>
<g>
</g>
<g>
</g>
<g>
</g>
<g>
</g>
</svg>
